<svg width="294" height="115" viewBox="0 0 294 115" fill="none" xmlns="http://www.w3.org/2000/svg">
<path d="M0.415039 48.1572C0.415039 47.5485 0.664062 47.0228 1.16211 46.5801C1.66016 46.1374 2.1582 45.75 2.65625 45.418C3.20964 45.0859 4.06738 44.5602 5.22949 43.8408C6.44694 43.1214 7.77507 42.319 9.21387 41.4336C10.708 40.4928 12.2852 39.5244 13.9453 38.5283C15.6055 37.4769 17.1549 36.5085 18.5938 35.623C20.0879 34.6823 21.416 33.8522 22.5781 33.1328C23.7956 32.4134 24.681 31.86 25.2344 31.4727C25.8984 31.0299 26.4795 30.6426 26.9775 30.3105C27.4756 29.9785 27.9736 29.7295 28.4717 29.5635C28.9697 29.3421 29.4954 29.1761 30.0488 29.0654C30.6576 28.9548 31.4046 28.8994 32.29 28.8994C32.29 30.2829 31.9303 31.3896 31.2109 32.2197C30.4915 33.0498 29.5785 33.8799 28.4717 34.71C27.8076 35.1527 26.5902 35.9551 24.8193 37.1172C23.1038 38.224 21.2777 39.4137 19.3408 40.6865C17.404 41.904 15.5778 43.0938 13.8623 44.2559C12.1468 45.3626 10.9294 46.1097 10.21 46.4971C9.43522 46.9398 9.04785 47.5208 9.04785 48.2402V48.4893C9.04785 48.5446 9.07552 48.5999 9.13086 48.6553L29.5508 51.8926C29.5508 52.0033 29.5785 52.1139 29.6338 52.2246C29.6338 52.3353 29.6338 52.446 29.6338 52.5566C29.6891 52.612 29.7168 52.6673 29.7168 52.7227C29.7168 54.2721 28.9421 55.4342 27.3926 56.209C27.2266 56.209 26.8669 56.209 26.3135 56.209C25.8154 56.209 25.262 56.2367 24.6533 56.292C24.0999 56.292 23.5742 56.292 23.0762 56.292C22.5781 56.292 22.2184 56.292 21.9971 56.292C21.2777 56.292 20.2262 56.2643 18.8428 56.209C17.5146 56.0983 16.0482 55.9323 14.4434 55.7109C12.8385 55.4342 11.2061 55.1022 9.5459 54.7148C7.88574 54.3275 6.36393 53.8294 4.98047 53.2207C3.65234 52.612 2.54557 51.8926 1.66016 51.0625C0.830078 50.2324 0.415039 49.264 0.415039 48.1572ZM47.3145 104.769C47.3145 102.444 47.7018 100.231 48.4766 98.1279C49.2513 96.0251 50.2474 94.0329 51.4648 92.1514C52.6823 90.2699 54.0658 88.4714 55.6152 86.7559C57.1647 85.0957 58.7142 83.5186 60.2637 82.0244C60.8171 81.471 61.7025 80.641 62.9199 79.5342C64.1374 78.4827 65.5208 77.2653 67.0703 75.8818C68.6198 74.5537 70.2523 73.1426 71.9678 71.6484C73.6833 70.2096 75.3434 68.8262 76.9482 67.498C78.4977 66.1699 79.8812 64.9801 81.0986 63.9287C82.3714 62.8773 83.3122 62.1025 83.9209 61.6045C84.0869 61.0511 84.3913 60.221 84.834 59.1143C85.2767 58.0075 85.7747 56.7347 86.3281 55.2959C86.9368 53.8571 87.5456 52.363 88.1543 50.8135C88.763 49.264 89.3441 47.7975 89.8975 46.4141C90.5062 44.9753 91.0319 43.7025 91.4746 42.5957C91.9727 41.4889 92.3324 40.6589 92.5537 40.1055C92.8304 39.4414 93.1624 38.7497 93.5498 38.0303C93.9925 37.2555 94.4629 36.5361 94.9609 35.8721C95.5143 35.208 96.123 34.6546 96.7871 34.2119C97.5065 33.7692 98.2812 33.5479 99.1113 33.5479C99.1113 35.3187 98.807 37.2832 98.1982 39.4414C97.6449 41.5996 96.9531 43.7301 96.123 45.833C95.293 47.9359 94.4352 49.9004 93.5498 51.7266C92.7197 53.5527 92.028 55.0469 91.4746 56.209C91.5853 56.209 91.7513 56.2367 91.9727 56.292C92.2493 56.292 92.443 56.292 92.5537 56.292C93.9925 56.292 95.3483 56.0983 96.6211 55.7109C97.9492 55.3236 99.3327 55.1299 100.771 55.1299C101.214 55.1299 101.685 55.1576 102.183 55.2129C102.736 55.2682 103.096 55.6003 103.262 56.209C102.653 57.4264 101.712 58.2842 100.439 58.7822C99.1667 59.2803 97.7832 59.6953 96.2891 60.0273C94.8503 60.3594 93.4668 60.7744 92.1387 61.2725C90.8659 61.7705 89.9528 62.6006 89.3994 63.7627C89.0674 64.4268 88.5417 65.4782 87.8223 66.917C87.1582 68.3005 86.3835 69.8499 85.498 71.5654C84.668 73.3363 83.7549 75.1901 82.7588 77.127C81.818 79.1191 80.9326 81.0007 80.1025 82.7715C79.2725 84.5423 78.5254 86.1471 77.8613 87.5859C77.1973 89.0247 76.7269 90.0762 76.4502 90.7402C75.5094 92.7324 74.5133 95.0843 73.4619 97.7959C72.3551 100.507 71.0547 103.081 69.5605 105.516C68.0111 108.006 66.1849 110.109 64.082 111.824C61.9792 113.54 59.4613 114.397 56.5283 114.397C55.1449 114.397 53.8997 114.121 52.793 113.567C51.6309 113.069 50.6624 112.378 49.8877 111.492C49.0576 110.607 48.4212 109.583 47.9785 108.421C47.5358 107.259 47.3145 106.041 47.3145 104.769ZM51.5479 103.44C51.5479 104.271 51.6032 105.073 51.7139 105.848C51.7692 106.622 51.9629 107.314 52.2949 107.923C52.5716 108.587 53.0143 109.113 53.623 109.5C54.1764 109.887 54.9788 110.081 56.0303 110.081C58.0778 110.081 60.0146 109.334 61.8408 107.84C63.667 106.401 65.3271 104.658 66.8213 102.61C68.2601 100.618 69.5329 98.5153 70.6396 96.3018C71.7464 94.0882 72.6042 92.2344 73.2129 90.7402C73.6003 89.7995 74.043 88.665 74.541 87.3369C75.0391 86.0641 75.5648 84.7083 76.1182 83.2695C76.6715 81.8307 77.2249 80.3919 77.7783 78.9531C78.3317 77.5697 78.8021 76.3245 79.1895 75.2178C79.6322 74.111 79.9919 73.1979 80.2686 72.4785C80.5452 71.7591 80.6836 71.3717 80.6836 71.3164V69.1582C80.5729 69.2689 80.3516 69.4072 80.0195 69.5732C79.6875 69.7946 79.3555 70.016 79.0234 70.2373C78.6914 70.4587 78.3594 70.6523 78.0273 70.8184C77.7507 71.0397 77.557 71.2057 77.4463 71.3164C77.0036 71.7038 76.3118 72.3402 75.3711 73.2256C74.375 74.1663 73.2959 75.1901 72.1338 76.2969C70.9163 77.4036 69.6436 78.5658 68.3154 79.7832C66.9873 81.056 65.7422 82.2458 64.5801 83.3525C63.3626 84.5146 62.2835 85.5384 61.3428 86.4238C60.3467 87.3646 59.6273 88.0563 59.1846 88.499C58.4098 89.7718 57.5798 90.9616 56.6943 92.0684C55.8089 93.1751 55.0065 94.3096 54.2871 95.4717C53.5124 96.6338 52.876 97.8512 52.3779 99.124C51.8245 100.397 51.5479 101.836 51.5479 103.44ZM105.42 2.91797C105.42 2.5306 105.558 2.19857 105.835 1.92188C106.112 1.58984 106.444 1.31315 106.831 1.0918C107.274 0.815104 107.716 0.621419 108.159 0.510742C108.602 0.344727 108.962 0.261719 109.238 0.261719C110.068 0.261719 110.566 0.59375 110.732 1.25781C110.898 1.86654 110.981 2.47526 110.981 3.08398C110.981 4.13542 110.677 5.0485 110.068 5.82324C109.515 6.54264 108.685 6.90234 107.578 6.90234C107.08 6.90234 106.665 6.79167 106.333 6.57031C106.056 6.29362 105.835 5.96159 105.669 5.57422C105.558 5.13151 105.475 4.6888 105.42 4.24609C105.42 3.80339 105.42 3.36068 105.42 2.91797ZM100.771 61.6045C101.27 58.4502 102.21 55.5449 103.594 52.8887C104.977 50.2324 106.554 47.9359 108.325 45.999C110.151 44.0068 112.116 42.3743 114.219 41.1016C116.322 39.8288 118.369 39.0264 120.361 38.6943C122.354 38.307 124.18 38.39 125.84 38.9434C127.555 39.4967 128.939 40.6035 129.99 42.2637C129.99 43.5365 129.686 44.7539 129.077 45.916C128.524 47.0781 127.887 48.2402 127.168 49.4023C126.504 50.5645 125.868 51.7542 125.259 52.9717C124.705 54.1891 124.429 55.4896 124.429 56.873C124.429 58.3118 124.733 59.474 125.342 60.3594C126.006 61.1895 127.14 61.6045 128.745 61.6045C130.073 61.6045 131.346 61.4108 132.563 61.0234C133.836 60.6361 135.109 60.4424 136.382 60.4424C136.603 60.4424 136.963 60.4701 137.461 60.5254C138.014 60.5254 138.374 60.5254 138.54 60.5254C137.876 61.4661 137.018 62.2686 135.967 62.9326C134.915 63.5967 133.809 64.1777 132.646 64.6758C131.484 65.1185 130.267 65.4505 128.994 65.6719C127.777 65.8932 126.642 66.0039 125.591 66.0039C124.595 66.0039 123.709 65.7826 122.935 65.3398C122.16 64.8971 121.496 64.3161 120.942 63.5967C120.389 62.8773 119.946 62.0749 119.614 61.1895C119.338 60.2487 119.199 59.3356 119.199 58.4502C118.369 59.391 117.456 60.387 116.46 61.4385C115.519 62.4346 114.495 63.3477 113.389 64.1777C112.337 65.0078 111.175 65.6995 109.902 66.2529C108.685 66.8063 107.412 67.083 106.084 67.083C104.645 67.083 103.4 66.5573 102.349 65.5059C101.297 64.3991 100.771 63.0986 100.771 61.6045ZM106.25 59.0312C106.25 59.474 106.25 59.972 106.25 60.5254C106.305 61.0788 106.665 61.4385 107.329 61.6045C108.713 61.2725 110.29 60.5531 112.061 59.4463C113.831 58.2842 115.492 56.9561 117.041 55.4619C118.59 53.9124 119.891 52.2799 120.942 50.5645C121.994 48.7936 122.52 47.1058 122.52 45.501C122.52 45.3903 122.492 45.2243 122.437 45.0029C122.437 44.7262 122.437 44.5326 122.437 44.4219C120.555 44.4219 118.646 44.8092 116.709 45.584C114.772 46.3587 113.029 47.4378 111.479 48.8213C109.93 50.1494 108.657 51.6989 107.661 53.4697C106.72 55.2406 106.25 57.0944 106.25 59.0312ZM149.663 49.7344C150.272 49.1257 150.604 48.4616 150.659 47.7422C150.715 47.0228 150.742 46.2757 150.742 45.501C150.742 42.07 150.05 39.7181 148.667 38.4453C147.339 37.1172 145.015 36.4531 141.694 36.4531C141.694 35.9551 141.943 35.5677 142.441 35.291C142.995 35.0143 143.604 34.8483 144.268 34.793C144.987 34.6823 145.651 34.627 146.26 34.627C146.868 34.627 147.256 34.627 147.422 34.627C148.75 34.627 149.94 34.9313 150.991 35.54C152.043 36.0934 152.928 36.7021 153.647 37.3662C154.422 38.0303 155.031 38.6667 155.474 39.2754C155.972 39.8288 156.331 40.1055 156.553 40.1055C157.051 40.1055 157.521 39.9948 157.964 39.7734C158.462 39.5521 158.905 39.3031 159.292 39.0264C159.679 38.6943 160.399 38.141 161.45 37.3662C162.502 36.5361 163.581 35.6784 164.688 34.793C165.85 33.8522 166.929 32.9945 167.925 32.2197C168.976 31.3896 169.696 30.8086 170.083 30.4766C170.249 30.4212 170.526 30.3382 170.913 30.2275C171.356 30.1169 171.799 30.0062 172.241 29.8955C172.684 29.7295 173.099 29.5911 173.486 29.4805C173.929 29.3698 174.233 29.3145 174.399 29.3145H174.648C174.704 29.3145 174.759 29.3145 174.814 29.3145C174.87 29.2591 174.925 29.2314 174.98 29.2314C175.423 29.2314 175.811 29.4251 176.143 29.8125C176.475 30.1999 176.641 30.6149 176.641 31.0576C176.641 31.611 176.364 31.9984 175.811 32.2197C175.257 32.3857 174.593 32.5241 173.818 32.6348C173.099 32.7454 172.38 32.8561 171.66 32.9668C170.941 33.0775 170.415 33.3265 170.083 33.7139L158.296 47.6592V58.4502H169.336C169.336 59.6123 169.032 60.4977 168.423 61.1064C167.814 61.7152 167.067 62.1579 166.182 62.4346C165.296 62.6559 164.328 62.7943 163.276 62.8496C162.225 62.8496 161.284 62.8496 160.454 62.8496C157.909 62.8496 155.833 61.9919 154.229 60.2764C152.624 58.5609 151.434 56.4857 150.659 54.0508C150.05 55.0469 149.22 56.2643 148.169 57.7031C147.173 59.0866 146.038 60.4424 144.766 61.7705C143.548 63.0433 142.22 64.1501 140.781 65.0908C139.398 65.9762 138.042 66.4189 136.714 66.4189V62.6836L149.663 49.7344ZM221.631 64.1777C221.631 63.3477 221.714 62.6559 221.88 62.1025C222.101 61.4938 222.765 60.9681 223.872 60.5254C224.315 59.7507 225.007 58.5609 225.947 56.9561C226.888 55.2959 227.939 53.4421 229.102 51.3945C230.319 49.347 231.592 47.1888 232.92 44.9199C234.248 42.651 235.521 40.4928 236.738 38.4453C237.956 36.3978 239.035 34.5716 239.976 32.9668C240.972 31.3066 241.719 30.0892 242.217 29.3145C242.77 28.3737 243.545 27.1839 244.541 25.7451C245.537 24.251 246.616 22.7568 247.778 21.2627C248.94 19.7132 250.158 18.2191 251.431 16.7803C252.703 15.3415 253.921 14.1517 255.083 13.2109C255.194 13.1556 255.415 13.1003 255.747 13.0449C256.079 12.9342 256.3 12.8789 256.411 12.8789C256.411 13.709 256.024 14.9264 255.249 16.5312C254.53 18.1361 253.589 19.9346 252.427 21.9268C251.265 23.8636 249.964 25.9111 248.525 28.0693C247.087 30.2275 245.675 32.3304 244.292 34.3779C242.909 36.4255 241.636 38.3346 240.474 40.1055C239.367 41.8763 238.509 43.3151 237.9 44.4219C237.236 45.584 236.406 47.1611 235.41 49.1533C234.469 51.0902 233.418 53.11 232.256 55.2129C231.094 57.2604 229.876 59.2803 228.604 61.2725C227.386 63.2093 226.169 64.7588 224.951 65.9209C224.785 66.0869 224.425 66.3083 223.872 66.585C223.319 66.8617 222.987 67 222.876 67C222.544 67 222.267 66.8893 222.046 66.668C221.88 66.3913 221.769 66.1146 221.714 65.8379C221.659 65.5059 221.631 65.2015 221.631 64.9248C221.631 64.5928 221.631 64.3438 221.631 64.1777ZM259.98 59.4463C260.368 58.3949 261.06 57.3988 262.056 56.458C263.107 55.5173 264.325 54.6318 265.708 53.8018C267.147 52.9717 268.696 52.2246 270.356 51.5605C272.017 50.8965 273.649 50.3154 275.254 49.8174C276.859 49.264 278.381 48.8213 279.819 48.4893C281.313 48.1019 282.559 47.8252 283.555 47.6592C283.555 47.6038 283.555 47.5208 283.555 47.4102C283.61 47.2441 283.638 47.1335 283.638 47.0781C283.638 46.3587 283.223 45.7777 282.393 45.335C281.562 44.8923 280.898 44.5879 280.4 44.4219C279.681 44.1452 278.408 43.7025 276.582 43.0938C274.756 42.485 272.791 41.8486 270.688 41.1846C268.641 40.4652 266.704 39.8011 264.878 39.1924C263.052 38.5837 261.779 38.1686 261.06 37.9473C260.174 36.8405 259.759 35.8997 259.814 35.125C259.925 34.2949 260.312 33.6585 260.977 33.2158C261.641 32.7731 262.471 32.4964 263.467 32.3857C264.518 32.2751 265.542 32.3304 266.538 32.5518C267.59 32.7178 268.503 33.0775 269.277 33.6309C270.052 34.1842 270.55 34.9036 270.771 35.7891L290.029 43.2598C292.298 44.2005 293.433 45.6393 293.433 47.5762C293.433 48.4616 293.128 49.1257 292.52 49.5684C291.966 50.0111 291.274 50.3154 290.444 50.4814C289.614 50.6475 288.757 50.7581 287.871 50.8135C287.041 50.8135 286.349 50.8135 285.796 50.8135L263.218 60.5254C263.107 60.5254 262.996 60.5531 262.886 60.6084C262.83 60.6084 262.747 60.6084 262.637 60.6084C262.139 60.6084 261.668 60.5254 261.226 60.3594C260.838 60.138 260.423 59.8337 259.98 59.4463Z" fill="black"/>
</svg>
