<svg width="295" height="157" viewBox="0 0 295 157" fill="none" xmlns="http://www.w3.org/2000/svg">
<path d="M0.415039 72.1572C0.415039 71.5485 0.664062 71.0228 1.16211 70.5801C1.66016 70.1374 2.1582 69.75 2.65625 69.418C3.20964 69.0859 4.06738 68.5602 5.22949 67.8408C6.44694 67.1214 7.77507 66.319 9.21387 65.4336C10.708 64.4928 12.2852 63.5244 13.9453 62.5283C15.6055 61.4769 17.1549 60.5085 18.5938 59.623C20.0879 58.6823 21.416 57.8522 22.5781 57.1328C23.7956 56.4134 24.681 55.86 25.2344 55.4727C25.8984 55.0299 26.4795 54.6426 26.9775 54.3105C27.4756 53.9785 27.9736 53.7295 28.4717 53.5635C28.9697 53.3421 29.4954 53.1761 30.0488 53.0654C30.6576 52.9548 31.4046 52.8994 32.29 52.8994C32.29 54.2829 31.9303 55.3896 31.2109 56.2197C30.4915 57.0498 29.5785 57.8799 28.4717 58.71C27.8076 59.1527 26.5902 59.9551 24.8193 61.1172C23.1038 62.224 21.2777 63.4137 19.3408 64.6865C17.404 65.904 15.5778 67.0938 13.8623 68.2559C12.1468 69.3626 10.9294 70.1097 10.21 70.4971C9.43522 70.9398 9.04785 71.5208 9.04785 72.2402V72.4893C9.04785 72.5446 9.07552 72.5999 9.13086 72.6553L29.5508 75.8926C29.5508 76.0033 29.5785 76.1139 29.6338 76.2246C29.6338 76.3353 29.6338 76.446 29.6338 76.5566C29.6891 76.612 29.7168 76.6673 29.7168 76.7227C29.7168 78.2721 28.9421 79.4342 27.3926 80.209C27.2266 80.209 26.8669 80.209 26.3135 80.209C25.8154 80.209 25.262 80.2367 24.6533 80.292C24.0999 80.292 23.5742 80.292 23.0762 80.292C22.5781 80.292 22.2184 80.292 21.9971 80.292C21.2777 80.292 20.2262 80.2643 18.8428 80.209C17.5146 80.0983 16.0482 79.9323 14.4434 79.7109C12.8385 79.4342 11.2061 79.1022 9.5459 78.7148C7.88574 78.3275 6.36393 77.8294 4.98047 77.2207C3.65234 76.612 2.54557 75.8926 1.66016 75.0625C0.830078 74.2324 0.415039 73.264 0.415039 72.1572ZM47.3145 128.769C47.3145 126.444 47.7018 124.231 48.4766 122.128C49.2513 120.025 50.2474 118.033 51.4648 116.151C52.6823 114.27 54.0658 112.471 55.6152 110.756C57.1647 109.096 58.7142 107.519 60.2637 106.024C60.8171 105.471 61.7025 104.641 62.9199 103.534C64.1374 102.483 65.5208 101.265 67.0703 99.8818C68.6198 98.5537 70.2523 97.1426 71.9678 95.6484C73.6833 94.2096 75.3434 92.8262 76.9482 91.498C78.4977 90.1699 79.8812 88.9801 81.0986 87.9287C82.3714 86.8773 83.3122 86.1025 83.9209 85.6045C84.0869 85.0511 84.3913 84.221 84.834 83.1143C85.2767 82.0075 85.7747 80.7347 86.3281 79.2959C86.9368 77.8571 87.5456 76.363 88.1543 74.8135C88.763 73.264 89.3441 71.7975 89.8975 70.4141C90.5062 68.9753 91.0319 67.7025 91.4746 66.5957C91.9727 65.4889 92.3324 64.6589 92.5537 64.1055C92.8304 63.4414 93.1624 62.7497 93.5498 62.0303C93.9925 61.2555 94.4629 60.5361 94.9609 59.8721C95.5143 59.208 96.123 58.6546 96.7871 58.2119C97.5065 57.7692 98.2812 57.5479 99.1113 57.5479C99.1113 59.3187 98.807 61.2832 98.1982 63.4414C97.6449 65.5996 96.9531 67.7301 96.123 69.833C95.293 71.9359 94.4352 73.9004 93.5498 75.7266C92.7197 77.5527 92.028 79.0469 91.4746 80.209C91.5853 80.209 91.7513 80.2367 91.9727 80.292C92.2493 80.292 92.443 80.292 92.5537 80.292C93.9925 80.292 95.3483 80.0983 96.6211 79.7109C97.9492 79.3236 99.3327 79.1299 100.771 79.1299C101.214 79.1299 101.685 79.1576 102.183 79.2129C102.736 79.2682 103.096 79.6003 103.262 80.209C102.653 81.4264 101.712 82.2842 100.439 82.7822C99.1667 83.2803 97.7832 83.6953 96.2891 84.0273C94.8503 84.3594 93.4668 84.7744 92.1387 85.2725C90.8659 85.7705 89.9528 86.6006 89.3994 87.7627C89.0674 88.4268 88.5417 89.4782 87.8223 90.917C87.1582 92.3005 86.3835 93.8499 85.498 95.5654C84.668 97.3363 83.7549 99.1901 82.7588 101.127C81.818 103.119 80.9326 105.001 80.1025 106.771C79.2725 108.542 78.5254 110.147 77.8613 111.586C77.1973 113.025 76.7269 114.076 76.4502 114.74C75.5094 116.732 74.5133 119.084 73.4619 121.796C72.3551 124.507 71.0547 127.081 69.5605 129.516C68.0111 132.006 66.1849 134.109 64.082 135.824C61.9792 137.54 59.4613 138.397 56.5283 138.397C55.1449 138.397 53.8997 138.121 52.793 137.567C51.6309 137.069 50.6624 136.378 49.8877 135.492C49.0576 134.607 48.4212 133.583 47.9785 132.421C47.5358 131.259 47.3145 130.041 47.3145 128.769ZM51.5479 127.44C51.5479 128.271 51.6032 129.073 51.7139 129.848C51.7692 130.622 51.9629 131.314 52.2949 131.923C52.5716 132.587 53.0143 133.113 53.623 133.5C54.1764 133.887 54.9788 134.081 56.0303 134.081C58.0778 134.081 60.0146 133.334 61.8408 131.84C63.667 130.401 65.3271 128.658 66.8213 126.61C68.2601 124.618 69.5329 122.515 70.6396 120.302C71.7464 118.088 72.6042 116.234 73.2129 114.74C73.6003 113.799 74.043 112.665 74.541 111.337C75.0391 110.064 75.5648 108.708 76.1182 107.27C76.6715 105.831 77.2249 104.392 77.7783 102.953C78.3317 101.57 78.8021 100.325 79.1895 99.2178C79.6322 98.111 79.9919 97.1979 80.2686 96.4785C80.5452 95.7591 80.6836 95.3717 80.6836 95.3164V93.1582C80.5729 93.2689 80.3516 93.4072 80.0195 93.5732C79.6875 93.7946 79.3555 94.016 79.0234 94.2373C78.6914 94.4587 78.3594 94.6523 78.0273 94.8184C77.7507 95.0397 77.557 95.2057 77.4463 95.3164C77.0036 95.7038 76.3118 96.3402 75.3711 97.2256C74.375 98.1663 73.2959 99.1901 72.1338 100.297C70.9163 101.404 69.6436 102.566 68.3154 103.783C66.9873 105.056 65.7422 106.246 64.5801 107.353C63.3626 108.515 62.2835 109.538 61.3428 110.424C60.3467 111.365 59.6273 112.056 59.1846 112.499C58.4098 113.772 57.5798 114.962 56.6943 116.068C55.8089 117.175 55.0065 118.31 54.2871 119.472C53.5124 120.634 52.876 121.851 52.3779 123.124C51.8245 124.397 51.5479 125.836 51.5479 127.44ZM105.42 26.918C105.42 26.5306 105.558 26.1986 105.835 25.9219C106.112 25.5898 106.444 25.3132 106.831 25.0918C107.274 24.8151 107.716 24.6214 108.159 24.5107C108.602 24.3447 108.962 24.2617 109.238 24.2617C110.068 24.2617 110.566 24.5938 110.732 25.2578C110.898 25.8665 110.981 26.4753 110.981 27.084C110.981 28.1354 110.677 29.0485 110.068 29.8232C109.515 30.5426 108.685 30.9023 107.578 30.9023C107.08 30.9023 106.665 30.7917 106.333 30.5703C106.056 30.2936 105.835 29.9616 105.669 29.5742C105.558 29.1315 105.475 28.6888 105.42 28.2461C105.42 27.8034 105.42 27.3607 105.42 26.918ZM100.771 85.6045C101.27 82.4502 102.21 79.5449 103.594 76.8887C104.977 74.2324 106.554 71.9359 108.325 69.999C110.151 68.0068 112.116 66.3743 114.219 65.1016C116.322 63.8288 118.369 63.0264 120.361 62.6943C122.354 62.307 124.18 62.39 125.84 62.9434C127.555 63.4967 128.939 64.6035 129.99 66.2637C129.99 67.5365 129.686 68.7539 129.077 69.916C128.524 71.0781 127.887 72.2402 127.168 73.4023C126.504 74.5645 125.868 75.7542 125.259 76.9717C124.705 78.1891 124.429 79.4896 124.429 80.873C124.429 82.3118 124.733 83.474 125.342 84.3594C126.006 85.1895 127.14 85.6045 128.745 85.6045C130.073 85.6045 131.346 85.4108 132.563 85.0234C133.836 84.6361 135.109 84.4424 136.382 84.4424C136.603 84.4424 136.963 84.4701 137.461 84.5254C138.014 84.5254 138.374 84.5254 138.54 84.5254C137.876 85.4661 137.018 86.2686 135.967 86.9326C134.915 87.5967 133.809 88.1777 132.646 88.6758C131.484 89.1185 130.267 89.4505 128.994 89.6719C127.777 89.8932 126.642 90.0039 125.591 90.0039C124.595 90.0039 123.709 89.7826 122.935 89.3398C122.16 88.8971 121.496 88.3161 120.942 87.5967C120.389 86.8773 119.946 86.0749 119.614 85.1895C119.338 84.2487 119.199 83.3356 119.199 82.4502C118.369 83.391 117.456 84.387 116.46 85.4385C115.519 86.4346 114.495 87.3477 113.389 88.1777C112.337 89.0078 111.175 89.6995 109.902 90.2529C108.685 90.8063 107.412 91.083 106.084 91.083C104.645 91.083 103.4 90.5573 102.349 89.5059C101.297 88.3991 100.771 87.0986 100.771 85.6045ZM106.25 83.0312C106.25 83.474 106.25 83.972 106.25 84.5254C106.305 85.0788 106.665 85.4385 107.329 85.6045C108.713 85.2725 110.29 84.5531 112.061 83.4463C113.831 82.2842 115.492 80.9561 117.041 79.4619C118.59 77.9124 119.891 76.2799 120.942 74.5645C121.994 72.7936 122.52 71.1058 122.52 69.501C122.52 69.3903 122.492 69.2243 122.437 69.0029C122.437 68.7262 122.437 68.5326 122.437 68.4219C120.555 68.4219 118.646 68.8092 116.709 69.584C114.772 70.3587 113.029 71.4378 111.479 72.8213C109.93 74.1494 108.657 75.6989 107.661 77.4697C106.72 79.2406 106.25 81.0944 106.25 83.0312ZM149.663 73.7344C150.272 73.1257 150.604 72.4616 150.659 71.7422C150.715 71.0228 150.742 70.2757 150.742 69.501C150.742 66.07 150.05 63.7181 148.667 62.4453C147.339 61.1172 145.015 60.4531 141.694 60.4531C141.694 59.9551 141.943 59.5677 142.441 59.291C142.995 59.0143 143.604 58.8483 144.268 58.793C144.987 58.6823 145.651 58.627 146.26 58.627C146.868 58.627 147.256 58.627 147.422 58.627C148.75 58.627 149.94 58.9313 150.991 59.54C152.043 60.0934 152.928 60.7021 153.647 61.3662C154.422 62.0303 155.031 62.6667 155.474 63.2754C155.972 63.8288 156.331 64.1055 156.553 64.1055C157.051 64.1055 157.521 63.9948 157.964 63.7734C158.462 63.5521 158.905 63.3031 159.292 63.0264C159.679 62.6943 160.399 62.141 161.45 61.3662C162.502 60.5361 163.581 59.6784 164.688 58.793C165.85 57.8522 166.929 56.9945 167.925 56.2197C168.976 55.3896 169.696 54.8086 170.083 54.4766C170.249 54.4212 170.526 54.3382 170.913 54.2275C171.356 54.1169 171.799 54.0062 172.241 53.8955C172.684 53.7295 173.099 53.5911 173.486 53.4805C173.929 53.3698 174.233 53.3145 174.399 53.3145H174.648C174.704 53.3145 174.759 53.3145 174.814 53.3145C174.87 53.2591 174.925 53.2314 174.98 53.2314C175.423 53.2314 175.811 53.4251 176.143 53.8125C176.475 54.1999 176.641 54.6149 176.641 55.0576C176.641 55.611 176.364 55.9984 175.811 56.2197C175.257 56.3857 174.593 56.5241 173.818 56.6348C173.099 56.7454 172.38 56.8561 171.66 56.9668C170.941 57.0775 170.415 57.3265 170.083 57.7139L158.296 71.6592V82.4502H169.336C169.336 83.6123 169.032 84.4977 168.423 85.1064C167.814 85.7152 167.067 86.1579 166.182 86.4346C165.296 86.6559 164.328 86.7943 163.276 86.8496C162.225 86.8496 161.284 86.8496 160.454 86.8496C157.909 86.8496 155.833 85.9919 154.229 84.2764C152.624 82.5609 151.434 80.4857 150.659 78.0508C150.05 79.0469 149.22 80.2643 148.169 81.7031C147.173 83.0866 146.038 84.4424 144.766 85.7705C143.548 87.0433 142.22 88.1501 140.781 89.0908C139.398 89.9762 138.042 90.4189 136.714 90.4189V86.6836L149.663 73.7344ZM221.631 88.1777C221.631 87.3477 221.714 86.6559 221.88 86.1025C222.101 85.4938 222.765 84.9681 223.872 84.5254C224.315 83.7507 225.007 82.5609 225.947 80.9561C226.888 79.2959 227.939 77.4421 229.102 75.3945C230.319 73.347 231.592 71.1888 232.92 68.9199C234.248 66.651 235.521 64.4928 236.738 62.4453C237.956 60.3978 239.035 58.5716 239.976 56.9668C240.972 55.3066 241.719 54.0892 242.217 53.3145C242.77 52.3737 243.545 51.1839 244.541 49.7451C245.537 48.251 246.616 46.7568 247.778 45.2627C248.94 43.7132 250.158 42.2191 251.431 40.7803C252.703 39.3415 253.921 38.1517 255.083 37.2109C255.194 37.1556 255.415 37.1003 255.747 37.0449C256.079 36.9342 256.3 36.8789 256.411 36.8789C256.411 37.709 256.024 38.9264 255.249 40.5312C254.53 42.1361 253.589 43.9346 252.427 45.9268C251.265 47.8636 249.964 49.9111 248.525 52.0693C247.087 54.2275 245.675 56.3304 244.292 58.3779C242.909 60.4255 241.636 62.3346 240.474 64.1055C239.367 65.8763 238.509 67.3151 237.9 68.4219C237.236 69.584 236.406 71.1611 235.41 73.1533C234.469 75.0902 233.418 77.11 232.256 79.2129C231.094 81.2604 229.876 83.2803 228.604 85.2725C227.386 87.2093 226.169 88.7588 224.951 89.9209C224.785 90.0869 224.425 90.3083 223.872 90.585C223.319 90.8617 222.987 91 222.876 91C222.544 91 222.267 90.8893 222.046 90.668C221.88 90.3913 221.769 90.1146 221.714 89.8379C221.659 89.5059 221.631 89.2015 221.631 88.9248C221.631 88.5928 221.631 88.3438 221.631 88.1777ZM259.98 83.4463C260.368 82.3949 261.06 81.3988 262.056 80.458C263.107 79.5173 264.325 78.6318 265.708 77.8018C267.147 76.9717 268.696 76.2246 270.356 75.5605C272.017 74.8965 273.649 74.3154 275.254 73.8174C276.859 73.264 278.381 72.8213 279.819 72.4893C281.313 72.1019 282.559 71.8252 283.555 71.6592C283.555 71.6038 283.555 71.5208 283.555 71.4102C283.61 71.2441 283.638 71.1335 283.638 71.0781C283.638 70.3587 283.223 69.7777 282.393 69.335C281.562 68.8923 280.898 68.5879 280.4 68.4219C279.681 68.1452 278.408 67.7025 276.582 67.0938C274.756 66.485 272.791 65.8486 270.688 65.1846C268.641 64.4652 266.704 63.8011 264.878 63.1924C263.052 62.5837 261.779 62.1686 261.06 61.9473C260.174 60.8405 259.759 59.8997 259.814 59.125C259.925 58.2949 260.312 57.6585 260.977 57.2158C261.641 56.7731 262.471 56.4964 263.467 56.3857C264.518 56.2751 265.542 56.3304 266.538 56.5518C267.59 56.7178 268.503 57.0775 269.277 57.6309C270.052 58.1842 270.55 58.9036 270.771 59.7891L290.029 67.2598C292.298 68.2005 293.433 69.6393 293.433 71.5762C293.433 72.4616 293.128 73.1257 292.52 73.5684C291.966 74.0111 291.274 74.3154 290.444 74.4814C289.614 74.6475 288.757 74.7581 287.871 74.8135C287.041 74.8135 286.349 74.8135 285.796 74.8135L263.218 84.5254C263.107 84.5254 262.996 84.5531 262.886 84.6084C262.83 84.6084 262.747 84.6084 262.637 84.6084C262.139 84.6084 261.668 84.5254 261.226 84.3594C260.838 84.138 260.423 83.8337 259.98 83.4463Z" fill="black"/>
</svg>
