<svg width="101" height="101" viewBox="0 0 101 101" fill="none" xmlns="http://www.w3.org/2000/svg">
<path d="M50.1259 100.252C77.8096 100.252 100.252 77.8096 100.252 50.1259C100.252 22.4421 77.8096 0 50.1259 0C22.4421 0 0 22.4421 0 50.1259C0 77.8096 22.4421 100.252 50.1259 100.252Z" fill="#FC521F"/>
<path d="M61.9055 73.1791L53.9403 68.5818L77.9028 54.7602C78.8218 54.2303 79.6871 53.6217 80.4926 52.9438C83.6076 57.3787 83.9131 63.2184 81.1371 68.0281C78.6094 72.3788 73.9597 75.0582 68.9279 75.0636C66.4729 75.0636 64.0466 74.4132 61.9055 73.1779V73.1791ZM59.9864 76.4993C60.9054 77.0304 61.8649 77.4768 62.8567 77.836C60.5688 82.746 55.6612 85.9302 50.102 85.9302C42.3421 85.9302 36.025 79.6203 36.025 71.8651V44.2195L48.1829 51.2359V68.583C48.1829 69.2681 48.5493 69.9006 49.1425 70.2432L59.9864 76.4993ZM31.3132 75.0612C26.2842 75.0561 21.6368 72.3786 19.1099 68.0305C17.2342 64.8033 16.7288 60.9596 17.7064 57.3572C18.6629 53.7476 21.0246 50.6711 24.2645 48.8143L32.2274 44.2195L32.2286 71.8603C32.2286 72.9213 32.3193 73.9728 32.5043 75.0147C32.108 75.0457 31.7094 75.0612 31.3132 75.0612ZM62.2993 40.898L50.145 47.9097L35.1072 39.2367C34.5135 38.8953 33.7831 38.8953 33.1893 39.2367L22.3454 45.4917C21.4265 46.0204 20.56 46.6255 19.7532 47.307C16.6406 42.8732 16.3363 37.0324 19.1099 32.2227C21.637 27.8717 26.2863 25.1918 31.318 25.186C33.7706 25.186 36.1993 25.84 38.3404 27.074L62.2993 40.898ZM50.102 14.3218C57.8656 14.3218 64.1791 20.6317 64.1791 28.3904V37.5802L40.2237 23.7598C39.3073 23.2291 38.3455 22.781 37.3498 22.4207C39.6365 17.5072 44.5464 14.3218 50.102 14.3218ZM81.1359 32.2275C85.0147 38.9455 82.7042 47.5648 75.9813 51.4436L52.0223 65.264V51.2383L67.0589 42.5629C67.6533 42.2204 68.0197 41.5879 68.0197 40.9028V28.3904C68.0197 27.3342 67.9242 26.2816 67.7428 25.2444C73.1809 24.7913 78.394 27.5093 81.1359 32.2275Z" fill="white"/>
</svg>
