<svg width="100" height="100" viewBox="0 0 100 100" fill="none" xmlns="http://www.w3.org/2000/svg">
<path d="M91.3301 44.975C91.3301 39.8781 85.3307 35.3582 76.1059 32.5989C78.3252 23.2262 77.3561 15.7695 72.9398 13.2469C71.8569 12.6455 70.6349 12.3394 69.3964 12.3592C65.2759 12.3592 60.0681 15.2369 54.8084 20.2154C49.5488 15.2739 44.3557 12.411 40.2426 12.411C38.9849 12.3832 37.7429 12.695 36.6474 13.3135C32.2533 15.8435 31.3434 23.2558 33.5331 32.5841C24.3527 35.3286 18.3829 39.8115 18.3681 44.8862C18.3533 49.9609 24.3749 54.503 33.5996 57.2549C31.3804 66.635 32.3421 74.0843 36.7658 76.6069C37.8447 77.2117 39.0652 77.5181 40.3018 77.4946C44.4297 77.4946 49.6375 74.617 54.8972 69.6384C60.1494 74.58 65.3425 77.4428 69.4629 77.4428C70.7201 77.4659 71.9609 77.1545 73.0581 76.5403C77.4523 74.0104 78.3548 66.598 76.1725 57.3067C85.3529 54.5252 91.3227 50.0423 91.3301 44.975ZM58.1965 21.8873C64.2551 16.4649 68.0426 15.8805 69.389 15.8805C70.0134 15.8604 70.6317 16.0086 71.1792 16.3095C73.2949 17.5153 74.1382 21.7689 73.465 27.4058C73.2926 28.8454 73.0457 30.275 72.7253 31.689C69.6599 30.9765 66.5512 30.465 63.4191 30.1577C61.554 27.5404 59.5177 25.0494 57.3236 22.701C57.5973 22.4273 57.8932 22.1536 58.1965 21.8873ZM39.858 49.1694C40.435 50.279 41.049 51.3887 41.6852 52.5057C42.3213 53.6227 42.9871 54.7545 43.7269 55.8716C41.7221 55.5831 39.7766 55.2206 37.9272 54.7915C38.445 52.9126 39.1034 51.0632 39.858 49.1694ZM37.8088 35.0845C39.6804 34.648 41.6408 34.2855 43.6751 34.0044C42.9353 35.0993 42.2992 36.2237 41.6334 37.3999C40.9676 38.5761 40.3832 39.6192 39.8136 40.7436C39.059 38.8202 38.3908 36.9339 37.8088 35.0845ZM41.663 44.9528C42.5803 43.0146 43.5888 41.0765 44.6886 39.1383C45.7982 37.2002 46.9892 35.3138 48.2172 33.5088C50.3699 33.3461 52.5891 33.2573 54.875 33.2647C57.1608 33.2721 59.3135 33.3535 61.4514 33.5236C62.6794 35.3138 63.8556 37.2224 64.9652 39.1087C66.0749 40.9951 67.0957 42.9703 68.013 44.901C67.1031 46.8392 66.0897 48.7847 64.9948 50.7081C63.9 52.6315 62.6942 54.54 61.4662 56.345C59.3135 56.5152 57.0942 56.5965 54.8084 56.5965C52.5226 56.5965 50.3699 56.5004 48.232 56.3302C47.004 54.54 45.8204 52.6758 44.7108 50.7451C43.6011 48.8143 42.6173 46.8836 41.6926 44.9528H41.663ZM65.9713 34.0266C67.9834 34.3077 69.929 34.6702 71.771 35.0993C71.2236 36.9265 70.5726 38.798 69.818 40.6844C69.2336 39.5748 68.627 38.4652 67.9834 37.3481C67.3398 36.2311 66.6593 35.1067 66.0009 34.0266H65.9713ZM68.013 52.4613C68.6492 51.3418 69.2558 50.2248 69.8328 49.1102C70.5726 51.0336 71.3123 52.9274 71.8301 54.7767C69.966 55.2132 68.0056 55.5683 65.9713 55.8494C66.6864 54.7546 67.3768 53.6252 68.0426 52.4613H68.013ZM54.8232 25.2162C56.1548 26.6365 57.4641 28.1752 58.7439 29.8248C57.4789 29.773 56.1843 29.7361 54.875 29.7361C53.5656 29.7361 52.2267 29.7361 50.9321 29.8248C52.1971 28.1826 53.4916 26.6365 54.8232 25.2162ZM38.4154 16.3391C38.9767 16.0406 39.6075 15.8976 40.2426 15.9248C41.5754 15.9804 42.8825 16.3103 44.082 16.8939C46.793 18.1721 49.2886 19.8642 51.4795 21.9095L52.345 22.701C50.1733 25.0322 48.1568 27.5034 46.3086 30.0985C43.1597 30.4036 40.0338 30.9126 36.9507 31.6224C36.6252 30.1873 36.3589 28.7818 36.211 27.428C35.4416 21.8429 36.3293 17.5819 38.408 16.3687L38.4154 16.3391ZM34.5021 53.8447C33.1122 53.4203 31.7444 52.9265 30.4039 52.3651C25.1517 50.1459 21.8967 47.2978 21.8967 44.864C21.8967 42.4302 25.1664 39.597 30.4113 37.4147C31.7279 36.8694 33.071 36.3904 34.4356 35.9796C35.3603 39.0444 36.4872 42.0445 37.8088 44.9602C36.5154 47.8469 35.4108 50.8147 34.5021 53.8447ZM51.5165 67.974C45.4579 73.3964 41.6704 73.9734 40.3166 73.9734C39.6921 73.9942 39.0736 73.8459 38.5264 73.5443C36.4107 72.3385 35.5674 68.0849 36.2406 62.448C36.4124 61.0108 36.6593 59.5836 36.9803 58.1722C40.0466 58.8786 43.155 59.3876 46.2864 59.6961C48.1493 62.3152 50.1857 64.8063 52.382 67.1528L51.5165 67.974ZM54.8972 64.6377C53.5656 63.2173 52.2563 61.6787 50.9691 60.029C52.2415 60.0882 53.536 60.1178 54.8454 60.1178C56.1548 60.1178 57.4937 60.1178 58.7883 60.0364C57.5085 61.6786 56.2065 63.2173 54.8898 64.6377H54.8972ZM71.3049 73.5147C70.7436 73.8222 70.11 73.973 69.4703 73.9512C68.124 73.9512 64.2921 73.3594 58.2557 67.9592L57.3901 67.1676C59.5594 64.8363 61.5734 62.3651 63.4191 59.7701C66.5711 59.4693 69.6997 58.9602 72.7844 58.2462C73.1099 59.6813 73.3688 61.0868 73.5242 62.4406C74.2565 68.0183 73.4058 72.2793 71.2975 73.4851L71.3049 73.5147ZM79.2943 52.4761C78.0293 52.9939 76.6903 53.4748 75.27 53.9038C74.3416 50.8393 73.2122 47.8393 71.8893 44.9232C73.1888 42.0397 74.2983 39.0744 75.2108 36.0462C76.6008 36.4705 77.9686 36.9643 79.3091 37.5257C84.5539 39.7449 87.8162 42.593 87.8088 45.0268C87.8014 47.4606 84.5391 50.2642 79.2869 52.4465L79.2943 52.4761ZM54.8232 51.7216C56.1663 51.723 57.4797 51.3262 58.5973 50.5812C59.7149 49.8362 60.5864 48.7766 61.1018 47.5362C61.6171 46.2959 61.7531 44.9306 61.4925 43.613C61.2319 42.2954 60.5864 41.0847 59.6377 40.1339C58.689 39.1832 57.4797 38.5351 56.1627 38.2716C54.8457 38.0081 53.4801 38.1411 52.2386 38.6538C50.9972 39.1664 49.9357 40.0357 49.1882 41.1516C48.4408 42.2676 48.0411 43.5801 48.0397 44.9232C48.0377 45.8153 48.2117 46.699 48.5518 47.5237C48.8918 48.3484 49.3912 49.098 50.0213 49.7295C50.6514 50.361 51.3998 50.8619 52.2238 51.2038C53.0478 51.5456 53.9311 51.7216 54.8232 51.7216V51.7216ZM9.69818 4V85.8538H100V4H9.69818ZM96.4714 82.3326H13.2342V7.52863H96.4714V82.3326ZM33.5922 57.2549C31.373 66.635 32.3347 74.0843 36.7584 76.6069C37.8373 77.2117 39.0578 77.5181 40.2944 77.4946C44.4223 77.4946 49.6301 74.617 54.8898 69.6384C60.142 74.58 65.3351 77.4428 69.4555 77.4428C70.7127 77.4659 71.9535 77.1545 73.0507 76.5403C77.4449 74.0104 78.3474 66.598 76.1651 57.3067C85.3455 54.5548 91.3153 50.0719 91.3227 45.0046C91.3301 39.9373 85.3233 35.3878 76.0985 32.6285C78.3178 23.2558 77.3487 15.7991 72.9324 13.2765C71.8495 12.6751 70.6275 12.369 69.389 12.3888C65.2685 12.3888 60.0607 15.2665 54.801 20.245C49.5414 15.3034 44.3483 12.4406 40.2352 12.4406C38.9775 12.4128 37.7355 12.7246 36.64 13.3431C32.2459 15.8731 31.336 23.2854 33.5257 32.6137C24.3453 35.3582 18.3755 39.8411 18.3607 44.9158C18.3459 49.9905 24.3749 54.4882 33.5996 57.2549H33.5922ZM51.5017 67.974C45.4431 73.3964 41.6556 73.9734 40.3018 73.9734C39.6773 73.9942 39.0588 73.8459 38.5116 73.5443C36.3959 72.3385 35.5526 68.0849 36.2258 62.448C36.3976 61.0108 36.6445 59.5836 36.9655 58.1722C40.0318 58.8786 43.1402 59.3876 46.2716 59.6961C48.1345 62.3152 50.1709 64.8063 52.3672 67.1528L51.5017 67.974ZM69.8402 40.6844C69.2558 39.5748 68.6492 38.4652 68.0056 37.3481C67.362 36.2311 66.6741 35.1289 65.9935 34.0266C68.0056 34.3077 69.9512 34.6702 71.7932 35.0993C71.2531 36.9265 70.6022 38.798 69.8476 40.6844H69.8402ZM71.8523 54.7398C69.9882 55.1762 68.0278 55.5313 65.9935 55.8124C66.6889 54.7176 67.3694 53.5882 68.0352 52.4243C68.701 51.2604 69.3076 50.1434 69.855 49.0732C70.6317 51.0336 71.3049 52.9126 71.8375 54.7767L71.8523 54.7398ZM67.9982 44.864C67.0883 46.8022 66.0749 48.7477 64.98 50.6711C63.8852 52.5945 62.6794 54.503 61.4514 56.308C59.2987 56.4782 57.0794 56.5596 54.7936 56.5596C52.5078 56.5596 50.3551 56.4634 48.2172 56.2932C46.9892 54.503 45.8056 52.6388 44.696 50.7081C43.5863 48.7773 42.5729 46.8466 41.6482 44.9158C42.5655 42.9777 43.574 41.0395 44.6738 39.1013C45.7834 37.1632 46.9744 35.2768 48.2024 33.4718C50.3551 33.3091 52.5743 33.2203 54.8602 33.2277C57.146 33.2351 59.2987 33.3165 61.4366 33.4866C62.6646 35.2768 63.8408 37.1854 64.9504 39.0718C66.0601 40.9581 67.0883 42.9703 68.0056 44.901L67.9982 44.864ZM43.7269 55.8716C41.7221 55.5831 39.7766 55.2206 37.9272 54.7915C38.4746 52.9717 39.133 51.0928 39.8876 49.2064C40.4646 50.316 41.0786 51.4257 41.7147 52.5427C42.3509 53.6597 42.9871 54.7545 43.7269 55.8716ZM41.663 37.3777C41.0194 38.4874 40.4128 39.597 39.8432 40.7214C39.0689 38.8128 38.3908 36.9339 37.8088 35.0845C39.6804 34.648 41.6408 34.2855 43.6751 34.0044C42.9871 35.0993 42.3287 36.2311 41.663 37.3777ZM54.8898 64.6377C53.5582 63.2173 52.2489 61.6787 50.9617 60.029C52.2341 60.0882 53.5286 60.1178 54.838 60.1178C56.1474 60.1178 57.4863 60.1178 58.7809 60.0364C57.5085 61.6786 56.2065 63.2173 54.8898 64.6377ZM71.2975 73.5147C70.7362 73.8222 70.1026 73.973 69.4629 73.9512C68.1166 73.9512 64.2847 73.3594 58.2483 67.9592L57.3827 67.1676C59.552 64.8363 61.566 62.3651 63.4117 59.7701C66.5637 59.4693 69.6923 58.9602 72.777 58.2462C73.1025 59.6813 73.3614 61.0868 73.5168 62.4406C74.2565 68.0183 73.4058 72.2793 71.2975 73.4851V73.5147ZM75.2034 36.0388C76.5934 36.4631 77.9612 36.9569 79.3017 37.5183C84.5465 39.7375 87.8088 42.5856 87.8014 45.0194C87.7941 47.4532 84.5391 50.316 79.2869 52.4983C78.0219 53.0161 76.6829 53.497 75.2626 53.926C74.3342 50.8615 73.2048 47.8614 71.8819 44.9454C73.1838 42.0427 74.2933 39.0575 75.2034 36.0092V36.0388ZM58.1891 21.9169C64.2477 16.4945 68.0352 15.91 69.3816 15.91C70.006 15.89 70.6243 16.0382 71.1718 16.3391C73.2875 17.5449 74.1308 21.7985 73.4576 27.4354C73.2852 28.875 73.0383 30.3046 72.7179 31.7186C69.6525 31.0061 66.5438 30.4946 63.4117 30.1873C61.5466 27.57 59.5103 25.079 57.3162 22.7306C57.5973 22.4273 57.8932 22.1536 58.1965 21.8873L58.1891 21.9169ZM54.8232 25.2162C56.1548 26.6365 57.4641 28.1752 58.7439 29.8248C57.4789 29.773 56.1843 29.7361 54.875 29.7361C53.5656 29.7361 52.2267 29.7361 50.9321 29.8248C52.1971 28.1826 53.4916 26.6365 54.8232 25.2162ZM38.4154 16.3391C38.9767 16.0406 39.6075 15.8976 40.2426 15.9248C41.5754 15.9804 42.8825 16.3103 44.082 16.8939C46.793 18.1721 49.2886 19.8642 51.4795 21.9095L52.345 22.701C50.1733 25.0322 48.1568 27.5034 46.3086 30.0985C43.1597 30.4036 40.0338 30.9126 36.9507 31.6224C36.6252 30.1873 36.3589 28.7818 36.211 27.428C35.4416 21.8429 36.3293 17.5819 38.408 16.3687L38.4154 16.3391ZM30.4113 37.4147C31.7279 36.8694 33.071 36.3904 34.4356 35.9796C35.3603 39.0444 36.4872 42.0445 37.8088 44.9602C36.5106 47.8442 35.4011 50.8094 34.4874 53.8373C33.0974 53.4129 31.7296 52.9191 30.3891 52.3577C25.1369 50.1385 21.8819 47.2904 21.8819 44.8566C21.8819 42.4228 25.1664 39.597 30.4113 37.4147ZM54.8232 38.1545C53.4801 38.153 52.1667 38.5499 51.0491 39.2948C49.9315 40.0398 49.06 41.0995 48.5446 42.3398C48.0293 43.5801 47.8933 44.9454 48.1539 46.263C48.4145 47.5806 49.06 48.7913 50.0087 49.7421C50.9573 50.6929 52.1667 51.3409 53.4837 51.6044C54.8007 51.8679 56.1663 51.7349 57.4077 51.2222C58.6492 50.7096 59.7107 49.8404 60.4582 48.7244C61.2056 47.6085 61.6053 46.2959 61.6067 44.9528C61.6136 44.0576 61.4432 43.17 61.1053 42.3409C60.7675 41.5119 60.2689 40.758 59.6383 40.1226C59.0077 39.4872 58.2576 38.9829 57.4312 38.6387C56.6048 38.2946 55.7184 38.1174 54.8232 38.1175V38.1545ZM54.8232 38.1545C53.4801 38.153 52.1667 38.5499 51.0491 39.2948C49.9315 40.0398 49.06 41.0995 48.5446 42.3398C48.0293 43.5801 47.8933 44.9454 48.1539 46.263C48.4145 47.5806 49.06 48.7913 50.0087 49.7421C50.9573 50.6929 52.1667 51.3409 53.4837 51.6044C54.8007 51.8679 56.1663 51.7349 57.4077 51.2222C58.6492 50.7096 59.7107 49.8404 60.4582 48.7244C61.2056 47.6085 61.6053 46.2959 61.6067 44.9528C61.6136 44.0576 61.4432 43.17 61.1053 42.3409C60.7675 41.5119 60.2689 40.758 59.6383 40.1226C59.0077 39.4872 58.2576 38.9829 57.4312 38.6387C56.6048 38.2946 55.7184 38.1174 54.8232 38.1175V38.1545ZM54.8232 38.1545C53.4801 38.153 52.1667 38.5499 51.0491 39.2948C49.9315 40.0398 49.06 41.0995 48.5446 42.3398C48.0293 43.5801 47.8933 44.9454 48.1539 46.263C48.4145 47.5806 49.06 48.7913 50.0087 49.7421C50.9573 50.6929 52.1667 51.3409 53.4837 51.6044C54.8007 51.8679 56.1663 51.7349 57.4077 51.2222C58.6492 50.7096 59.7107 49.8404 60.4582 48.7244C61.2056 47.6085 61.6053 46.2959 61.6067 44.9528C61.6136 44.0576 61.4432 43.17 61.1053 42.3409C60.7675 41.5119 60.2689 40.758 59.6383 40.1226C59.0077 39.4872 58.2576 38.9829 57.4312 38.6387C56.6048 38.2946 55.7184 38.1174 54.8232 38.1175V38.1545ZM91.3301 44.9898C91.3301 39.8929 85.3307 35.373 76.1059 32.6137C78.3252 23.241 77.3561 15.7843 72.9398 13.2617C71.8569 12.6603 70.6349 12.3542 69.3964 12.374C65.2759 12.374 60.0681 15.2517 54.8084 20.2302C49.5488 15.2887 44.3557 12.4258 40.2426 12.4258C38.9849 12.398 37.7429 12.7098 36.6474 13.3283C32.2533 15.8583 31.3434 23.2706 33.5331 32.5989C24.3527 35.3434 18.3829 39.8263 18.3681 44.901C18.3533 49.9757 24.3749 54.5178 33.5996 57.2697C31.3804 66.6498 32.3421 74.0991 36.7658 76.6217C37.8447 77.2265 39.0652 77.5329 40.3018 77.5094C44.4297 77.5094 49.6375 74.6317 54.8972 69.6532C60.1494 74.5948 65.3425 77.4576 69.4629 77.4576C70.7201 77.4807 71.9609 77.1692 73.0581 76.5551C77.4523 74.0252 78.3548 66.6128 76.1725 57.3215C85.3529 54.5252 91.3227 50.0423 91.3301 44.975V44.9898ZM58.1965 21.8873C64.2551 16.4649 68.0426 15.8805 69.389 15.8805C70.0134 15.8604 70.6317 16.0086 71.1792 16.3095C73.2949 17.5153 74.1382 21.7689 73.465 27.4058C73.2926 28.8454 73.0457 30.275 72.7253 31.689C69.6599 30.9765 66.5512 30.465 63.4191 30.1577C61.554 27.5404 59.5177 25.0494 57.3236 22.701C57.5973 22.4273 57.8932 22.1536 58.1965 21.8873ZM39.858 49.1694C40.435 50.279 41.049 51.3887 41.6852 52.5057C42.3213 53.6227 42.9871 54.7545 43.7269 55.8716C41.7221 55.5831 39.7766 55.2206 37.9272 54.7915C38.445 52.9126 39.1034 51.0632 39.858 49.1694ZM37.8088 35.0845C39.6804 34.648 41.6408 34.2855 43.6751 34.0044C42.9353 35.0993 42.2992 36.2237 41.6334 37.3999C40.9676 38.5761 40.3832 39.6192 39.8136 40.7436C39.059 38.8202 38.3908 36.9339 37.8088 35.0845ZM41.663 44.9528C42.5803 43.0146 43.5888 41.0765 44.6886 39.1383C45.7982 37.2002 46.9892 35.3138 48.2172 33.5088C50.3699 33.3461 52.5891 33.2573 54.875 33.2647C57.1608 33.2721 59.3135 33.3535 61.4514 33.5236C62.6794 35.3138 63.8556 37.2224 64.9652 39.1087C66.0749 40.9951 67.0957 42.9703 68.013 44.901C67.1031 46.8392 66.0897 48.7847 64.9948 50.7081C63.9 52.6315 62.6942 54.54 61.4662 56.345C59.3135 56.5152 57.0942 56.5965 54.8084 56.5965C52.5226 56.5965 50.3699 56.5004 48.232 56.3302C47.004 54.54 45.8204 52.6758 44.7108 50.7451C43.6011 48.8143 42.6173 46.8836 41.6926 44.9528H41.663ZM65.9713 34.0266C67.9834 34.3077 69.929 34.6702 71.771 35.0993C71.2236 36.9265 70.5726 38.798 69.818 40.6844C69.2336 39.5748 68.627 38.4652 67.9834 37.3481C67.3398 36.2311 66.6593 35.1067 66.0009 34.0266H65.9713ZM68.013 52.4613C68.6492 51.3418 69.2558 50.2248 69.8328 49.1102C70.5726 51.0336 71.3123 52.9274 71.8301 54.7767C69.966 55.2132 68.0056 55.5683 65.9713 55.8494C66.6864 54.7546 67.3768 53.6252 68.0426 52.4613H68.013ZM54.8232 25.2162C56.1548 26.6365 57.4641 28.1752 58.7439 29.8248C57.4789 29.773 56.1843 29.7361 54.875 29.7361C53.5656 29.7361 52.2267 29.7361 50.9321 29.8248C52.1971 28.1826 53.4916 26.6365 54.8232 25.2162ZM38.4154 16.3391C38.9767 16.0406 39.6075 15.8976 40.2426 15.9248C41.5754 15.9804 42.8825 16.3103 44.082 16.8939C46.793 18.1721 49.2886 19.8642 51.4795 21.9095L52.345 22.701C50.1733 25.0322 48.1568 27.5034 46.3086 30.0985C43.1597 30.4036 40.0338 30.9126 36.9507 31.6224C36.6252 30.1873 36.3589 28.7818 36.211 27.428C35.4416 21.8429 36.3293 17.5819 38.408 16.3687L38.4154 16.3391ZM34.5021 53.8447C33.1122 53.4203 31.7444 52.9265 30.4039 52.3651C25.1517 50.1459 21.8967 47.2978 21.8967 44.864C21.8967 42.4302 25.1664 39.597 30.4113 37.4147C31.7279 36.8694 33.071 36.3904 34.4356 35.9796C35.3603 39.0444 36.4872 42.0445 37.8088 44.9602C36.5154 47.8469 35.4108 50.8147 34.5021 53.8447ZM51.5165 67.974C45.4579 73.3964 41.6704 73.9734 40.3166 73.9734C39.6921 73.9942 39.0736 73.8459 38.5264 73.5443C36.4107 72.3385 35.5674 68.0849 36.2406 62.448C36.4124 61.0108 36.6593 59.5836 36.9803 58.1722C40.0466 58.8786 43.155 59.3876 46.2864 59.6961C48.1493 62.3152 50.1857 64.8063 52.382 67.1528L51.5165 67.974ZM54.8972 64.6377C53.5656 63.2173 52.2563 61.6787 50.9691 60.029C52.2415 60.0882 53.536 60.1178 54.8454 60.1178C56.1548 60.1178 57.4937 60.1178 58.7883 60.0364C57.5085 61.6786 56.2065 63.2173 54.8898 64.6377H54.8972ZM71.3049 73.5147C70.7436 73.8222 70.11 73.973 69.4703 73.9512C68.124 73.9512 64.2921 73.3594 58.2557 67.9592L57.3901 67.1676C59.5594 64.8363 61.5734 62.3651 63.4191 59.7701C66.5711 59.4693 69.6997 58.9602 72.7844 58.2462C73.1099 59.6813 73.3688 61.0868 73.5242 62.4406C74.2565 68.0183 73.4058 72.2793 71.2975 73.4851L71.3049 73.5147ZM79.2943 52.4761C78.0293 52.9939 76.6903 53.4748 75.27 53.9038C74.3416 50.8393 73.2122 47.8393 71.8893 44.9232C73.1888 42.0397 74.2983 39.0744 75.2108 36.0462C76.6008 36.4705 77.9686 36.9643 79.3091 37.5257C84.5539 39.7449 87.8162 42.593 87.8088 45.0268C87.8014 47.4606 84.5391 50.2642 79.2869 52.4465L79.2943 52.4761ZM54.8232 51.7216C56.1663 51.723 57.4797 51.3262 58.5973 50.5812C59.7149 49.8362 60.5864 48.7766 61.1018 47.5362C61.6171 46.2959 61.7531 44.9306 61.4925 43.613C61.2319 42.2954 60.5864 41.0847 59.6377 40.1339C58.689 39.1832 57.4797 38.5351 56.1627 38.2716C54.8457 38.0081 53.4801 38.1411 52.2386 38.6538C50.9972 39.1664 49.9357 40.0357 49.1882 41.1516C48.4408 42.2676 48.0411 43.5801 48.0397 44.9232C48.0377 45.8153 48.2117 46.699 48.5518 47.5237C48.8918 48.3484 49.3912 49.098 50.0213 49.7295C50.6514 50.361 51.3998 50.8619 52.2238 51.2038C53.0478 51.5456 53.9311 51.7216 54.8232 51.7216V51.7216ZM3.54342 92.0382V10.1548L0 13.7056V95.5668H90.287L93.823 92.0382H3.54342Z" fill="#09D3AC"/>
</svg>
