<svg width="400" height="400" viewBox="0 0 400 400" fill="none" xmlns="http://www.w3.org/2000/svg">
<path fill-rule="evenodd" clip-rule="evenodd" d="M134.466 233.326C161.273 217.827 179.31 188.848 179.31 155.655H244.828L193.103 245.31H244.828L193.103 334.966L134.466 233.326ZM134.466 233.326C121.282 240.948 105.978 245.31 89.6552 245.31C40.14 245.31 0 205.17 0 155.655C0 106.14 40.14 66 89.6552 66C139.17 66 179.31 106.14 179.31 155.655H89.6552L134.466 233.326ZM244.828 245.31H400L296.552 66L244.828 155.655H296.552L244.828 245.31Z" fill="url(#paint0_linear_1307_226)"/>
<defs>
<linearGradient id="paint0_linear_1307_226" x1="200" y1="66" x2="200" y2="334.966" gradientUnits="userSpaceOnUse">
<stop offset="0.145833" stop-color="white"/>
<stop offset="0.822917"/>
</linearGradient>
</defs>
</svg>
