<svg width="400" height="400" viewBox="0 0 400 400" fill="none" xmlns="http://www.w3.org/2000/svg">
<path d="M346.026 161.529C343.991 146.45 335.614 133.524 320.415 121.676L311.678 115.812L305.814 124.549C298.394 135.798 294.564 151.476 295.761 166.436C296.359 171.702 298.035 181.156 303.42 189.414C298.035 192.286 287.384 196.355 273.142 196.116H1.47456L0.995848 199.227C-1.51738 214.307 -1.51737 261.22 29.0003 297.363C52.2177 324.769 86.9242 338.771 132.402 338.771C230.776 338.771 303.54 293.533 337.648 211.195C351.052 211.434 379.894 211.315 394.734 182.951C395.093 182.353 396.051 180.558 398.564 175.292L400 172.3L391.623 166.675C382.647 160.691 361.943 158.537 346.026 161.529ZM218.809 61H177.52V98.5787H218.809V61ZM218.809 106.118H177.52V143.577H218.809V106.118ZM169.98 106.118H128.692V143.577H169.98V106.118ZM121.152 106.118H79.8632V143.577H121.152V106.118ZM72.3235 151.117H31.0349V188.696H72.3235V151.117ZM121.152 151.117H79.8632V188.696H121.152V151.117ZM169.98 151.117H128.692V188.696H169.98V151.117ZM218.809 151.117H177.52V188.696H218.809V151.117ZM267.637 151.117H226.348V188.696H267.637V151.117Z" fill="#0073EC"/>
</svg>
