<svg width="400" height="400" viewBox="0 0 400 400" fill="none" xmlns="http://www.w3.org/2000/svg">
<path d="M189.541 153.216C192.81 148.457 196.39 147.837 199.307 147.837C202.203 147.837 207.045 148.457 210.314 153.216C252.935 211.272 341.323 364.42 349.496 372.758C361.599 385.11 378.213 377.413 387.855 363.406C397.372 349.606 400 339.923 400 329.598C400 322.564 262.349 68.6146 248.466 47.4694C235.142 27.1311 230.797 22 207.997 22H190.927C168.168 22 164.879 27.1311 151.554 47.4487C137.651 68.6353 0 322.584 0 329.619C0 339.964 2.62763 349.626 12.145 363.427C21.7866 377.434 38.4007 385.151 50.5043 372.778C58.6769 364.44 146.94 211.293 189.541 153.257V153.216Z" fill="black"/>
</svg>
