<?xml version="1.0" encoding="UTF-8"?>
<svg width="100px" height="100px" viewBox="0 0 100 100" version="1.1" xmlns="http://www.w3.org/2000/svg" xmlns:xlink="http://www.w3.org/1999/xlink">
    <title>WonB 100px)</title>
    <g id="WonB-100px)" stroke="none" stroke-width="1" fill="none" fill-rule="evenodd">
        <g id="Group">
            <rect id="Rectangle" fill="#040913" x="0" y="0" width="100" height="100" rx="50"></rect>
            <g id="Flylance_Logo_05" transform="translate(14.000000, 23.000000)" fill="#FFFFFF" fill-rule="nonzero">
                <path d="M62.4398848,18.2964706 L23.2197685,9.34802434 C22.4492517,9.17225369 21.6438646,9.44211314 21.1445491,10.043364 C20.6452336,10.6446148 20.5393049,11.4721164 20.8716055,12.1755651 L24.6836141,20.2480941 C25.0140403,20.9480726 25.7211954,21.4037367 26.5080551,21.4236949 L61.9236753,22.2985606 L61.9762622,22.2985606 C63.0240413,22.2918033 63.90146,21.5190684 64.0196319,20.4989829 C64.1378039,19.4788974 63.4594638,18.5331432 62.4398848,18.2964706 Z" id="Path"></path>
                <path d="M70.1615632,25.6381923 L24.0643773,42.0019667 C23.2537258,42.2900664 22.7102449,43.0403446 22.6999375,43.8851991 C22.6901865,44.7300535 23.2157098,45.4925143 24.0193029,45.7990101 L30.3436741,48.2080454 C30.8783638,48.411571 31.4752533,48.388726 31.9921103,48.1449542 L71.7659982,29.3721444 C72.7590137,28.9029646 73.202565,27.7536095 72.7748067,26.7580625 C72.3474044,25.7621775 71.1980387,25.2696324 70.1615632,25.6381923 Z" id="Path"></path>
                <path d="M63.157856,18.611927 L36.7120466,0.45320568 C35.9846267,-0.0465590438 35.0127841,-0.0355557188 34.2973452,0.480545233 L21.5262579,9.68871724 C20.8756722,10.1580879 20.5632153,10.9554081 20.7260063,11.7307801 C20.8887973,12.5061522 21.4970891,13.1178904 22.2839375,13.2975383 L61.5040539,22.2459846 C62.4673114,22.4602582 63.4508932,21.9779074 63.8531545,21.0939803 C64.2554157,20.2100531 63.9642903,19.1708033 63.157856,18.611927 L63.157856,18.611927 Z" id="Path"></path>
                <path d="M72.904664,27.1870832 C72.7197896,26.2192565 71.8576366,25.5176653 70.8527044,25.5172673 L25.0270383,25.8411359 C24.4569961,25.8441503 23.9134483,26.077339 23.5245574,26.4857185 L0.603138744,50.5655562 C-0.048023091,51.2514565 -0.135439732,52.2849225 0.391594516,53.0664959 C0.918628764,53.8480694 1.92316163,54.1746549 2.82251761,53.8568178 L71.5728221,29.45206 C72.5205913,29.1157232 73.0830733,28.1591468 72.904664,27.1870832 Z" id="Path"></path>
            </g>
        </g>
    </g>
</svg>