<svg width="400" height="400" viewBox="0 0 400 400" fill="none" xmlns="http://www.w3.org/2000/svg">
<path d="M50.3243 257.031C53.181 260.832 56.8934 263.905 61.1604 266.002C65.7751 268.288 70.8672 269.444 76.0165 269.375C80.18 269.484 84.3246 268.777 88.2165 267.294C91.3293 266.071 94.1082 264.128 96.3256 261.624C98.4066 259.185 99.9257 256.319 100.775 253.227C101.702 249.886 102.161 246.433 102.138 242.965V230.909H101.852C99.1536 235.186 95.261 238.58 90.6554 240.669C86.2639 242.581 81.5229 243.559 76.7334 243.54C72.0403 243.575 67.3851 242.698 63.0269 240.956C58.9002 239.318 55.1245 236.906 51.9027 233.851C48.7057 230.782 46.1663 227.095 44.4387 223.013C42.6003 218.705 41.672 214.063 41.7117 209.379C41.6721 204.708 42.5502 200.075 44.2961 195.743C45.9464 191.644 48.3567 187.894 51.4002 184.691C54.4431 181.514 58.1076 178.998 62.1654 177.299C66.5073 175.494 71.171 174.591 75.873 174.644C78.014 174.656 80.1501 174.848 82.2591 175.217C84.5784 175.622 86.8424 176.297 89.0052 177.227C94.1401 179.453 98.5787 183.024 101.852 187.563H102.138V176.366H111.613V242.965C111.58 246.879 111.123 250.777 110.249 254.591C109.334 258.715 107.521 262.587 104.938 265.93C102 269.618 98.2393 272.567 93.9576 274.543C89.2681 276.839 83.1438 277.986 75.5848 277.986C69.4444 278.091 63.3449 276.969 57.6437 274.686C52.1893 272.349 47.2964 268.875 43.2921 264.496L50.3243 257.031ZM52.0462 209.092C52.0226 212.513 52.6815 215.904 53.9845 219.067C55.2268 222.102 57.0278 224.877 59.2939 227.248C61.5468 229.597 64.226 231.497 67.1886 232.846C70.2748 234.249 73.6307 234.959 77.0206 234.927C83.734 234.951 90.2032 232.41 95.1052 227.823C97.5128 225.551 99.3985 222.784 100.632 219.712C101.961 216.335 102.573 212.718 102.427 209.092C102.451 205.691 101.867 202.312 100.704 199.116C99.598 196.078 97.889 193.295 95.6795 190.935C93.4085 188.542 90.6738 186.638 87.6422 185.337C84.2855 183.911 80.6675 183.202 77.0206 183.256C73.6307 183.224 70.275 183.935 67.1886 185.337C64.2269 186.688 61.548 188.587 59.2939 190.935C57.0285 193.306 55.2273 196.081 53.9835 199.116C52.6811 202.28 52.0225 205.671 52.0462 209.092V209.092ZM150.221 243.54H139.887V141.918H171.177C181.511 141.918 189.668 144.166 195.649 148.664C201.628 153.162 204.619 159.956 204.62 169.045C204.802 175.643 202.408 182.052 197.946 186.915C193.496 191.748 187.061 194.547 178.641 195.311L207.921 243.539H195.29L167.446 196.317H150.222L150.221 243.54ZM150.221 186.844H168.593C172.541 186.927 176.48 186.444 180.291 185.408C183.078 184.663 185.688 183.37 187.97 181.605C189.811 180.124 191.243 178.197 192.132 176.008C193.005 173.791 193.444 171.428 193.424 169.045C193.435 166.711 192.996 164.397 192.132 162.229C191.233 160.024 189.804 158.077 187.97 156.558C185.71 154.758 183.092 153.462 180.291 152.755C176.472 151.771 172.536 151.313 168.593 151.392H150.221V186.844ZM225.717 141.918H255.286C265.619 141.918 273.776 144.167 279.757 148.665C285.736 153.163 288.727 159.957 288.728 169.046C288.728 178.138 285.738 184.956 279.757 189.499C273.776 194.045 265.619 196.318 255.286 196.317H236.052V243.54H225.717V141.918ZM236.053 186.845H252.703C256.651 186.928 260.59 186.444 264.401 185.409C267.188 184.664 269.798 183.371 272.08 181.606C273.921 180.125 275.353 178.198 276.242 176.009C277.115 173.793 277.554 171.429 277.534 169.046C277.545 166.712 277.106 164.398 276.242 162.23C275.343 160.026 273.913 158.078 272.08 156.559C269.82 154.76 267.202 153.463 264.401 152.756C260.582 151.772 256.646 151.314 252.703 151.393H236.052L236.053 186.845ZM392.499 227.464C390.681 230.158 388.536 232.617 386.114 234.785C383.491 237.14 380.572 239.143 377.429 240.74C374.075 242.453 370.535 243.778 366.881 244.688C362.96 245.661 358.933 246.143 354.894 246.123C347.688 246.191 340.541 244.825 333.868 242.105C327.57 239.56 321.85 235.769 317.053 230.959C312.256 226.149 308.479 220.42 305.95 214.116C303.216 207.321 301.85 200.053 301.932 192.729C301.85 185.405 303.216 178.137 305.95 171.342C308.479 165.037 312.256 159.308 317.053 154.499C321.85 149.69 327.57 145.899 333.868 143.354C340.541 140.634 347.688 139.268 354.894 139.335C361.389 139.37 367.818 140.636 373.841 143.066C380.265 145.637 385.87 149.904 390.059 155.411L381.018 162.157C379.803 160.347 378.355 158.706 376.71 157.276C374.811 155.595 372.716 154.149 370.469 152.971C368.068 151.707 365.542 150.696 362.932 149.957C360.319 149.201 357.614 148.814 354.894 148.808C348.865 148.709 342.888 149.934 337.384 152.397C332.39 154.662 327.919 157.936 324.251 162.012C320.621 166.1 317.818 170.853 315.997 176.008C312.17 186.827 312.17 198.631 315.997 209.449C317.818 214.604 320.621 219.357 324.251 223.444C327.918 227.522 332.389 230.796 337.384 233.061C342.887 235.525 348.865 236.75 354.894 236.65C357.566 236.651 360.232 236.411 362.86 235.932C365.534 235.44 368.138 234.621 370.611 233.492C373.219 232.296 375.637 230.724 377.788 228.826C380.205 226.667 382.306 224.18 384.031 221.436L392.499 227.464Z" fill="#244B5A"/>
<path d="M8.20159 121.86L7.72998 126.036V121.86H8.20159Z" fill="#75CACA"/>
<path d="M8.82575 121.86L7.72998 131.553V126.036L8.20159 121.86H8.82575V121.86Z" fill="#74CBCA"/>
<path d="M9.44891 121.86L7.72998 137.07V131.553L8.82575 121.86H9.44891V121.86Z" fill="#74CBCA"/>
<path d="M10.0721 121.86L7.72998 142.588V137.07L9.44891 121.86H10.0721Z" fill="#73CBCA"/>
<path d="M10.6952 121.86L7.72998 148.105V142.588L10.0721 121.86H10.6952Z" fill="#73CBCA"/>
<path d="M11.3194 121.86L7.72998 153.623V148.105L10.6952 121.86H11.3194ZM11.9426 121.86L7.72998 159.14V153.623L11.3194 121.86H11.9426V121.86Z" fill="#72C9C9"/>
<path d="M12.5657 121.86L7.72998 164.658V159.14L11.9426 121.86H12.5657V121.86Z" fill="#70CACA"/>
<path d="M13.1889 121.86L7.72998 170.175V164.658L12.5657 121.86H13.1889V121.86Z" fill="#70CACA"/>
<path d="M13.813 121.86L7.7908 175.157L7.72998 175.15V170.175L13.1889 121.86H13.813V121.86Z" fill="#6FCAC8"/>
<path d="M14.4364 121.86L8.41019 175.19H8.08016L7.79102 175.157L13.8133 121.86H14.4364V121.86Z" fill="#6EC8C8"/>
<path d="M15.0595 121.86L9.03432 175.19H8.41016L14.4364 121.86H15.0595Z" fill="#6EC8C8"/>
<path d="M15.6836 121.86L9.65734 175.19H9.03418L15.0594 121.86H15.6836Z" fill="#6CC9C9"/>
<path d="M16.3066 121.86L10.2804 175.19H9.65723L15.6834 121.86H16.3066Z" fill="#6DC9C8"/>
<path d="M16.9297 121.86L10.9044 175.19H10.2803L16.3065 121.86H16.9297V121.86Z" fill="#69C7C8"/>
<path d="M17.5532 121.86L11.5279 175.19H10.9048L16.93 121.86H17.5532Z" fill="#69C7C8"/>
<path d="M18.1772 121.86L12.151 175.19H11.5278L17.5531 121.86H18.1772V121.86Z" fill="#69C8C7"/>
<path d="M18.8003 121.86L12.774 175.19H12.1509L18.1771 121.86H18.8003V121.86Z" fill="#68C8C7"/>
<path d="M19.4233 121.86L13.3981 175.19H12.7739L18.8001 121.86H19.4233V121.86Z" fill="#67C7C7"/>
<path d="M20.0468 121.86L14.0216 175.19H13.3984L19.4237 121.86H20.0468V121.86Z" fill="#65C7C7"/>
<path d="M20.6709 121.86L14.6446 175.19H14.0215L20.0467 121.86H20.6709V121.86Z" fill="#64C7C7"/>
<path d="M21.2939 121.86L15.2677 175.19H14.6445L20.6708 121.86H21.2939V121.86Z" fill="#63C6C6"/>
<path d="M21.917 121.86L15.8917 175.19H15.2676L21.2938 121.86H21.917V121.86Z" fill="#60C6C6"/>
<path d="M22.5405 121.86L16.5153 175.19H15.8921L21.9173 121.86H22.5405V121.86Z" fill="#60C6C5"/>
<path d="M23.1645 121.86L17.1383 175.19H16.5151L22.5404 121.86H23.1645V121.86Z" fill="#5FC6C5"/>
<path d="M23.7876 121.86L17.7613 175.19H17.1382L23.1644 121.86H23.7876V121.86Z" fill="#5CC5C4"/>
<path d="M24.4106 121.86L18.3854 175.19H17.7612L23.7875 121.86H24.4106V121.86Z" fill="#5AC5C4"/>
<path d="M25.0341 121.86L19.0089 175.19H18.3857L24.411 121.86H25.0341V121.86Z" fill="#5AC5C4"/>
<path d="M25.6582 121.86L19.632 175.19H19.0088L25.034 121.86H25.6582V121.86Z" fill="#57C4C4"/>
<path d="M26.2812 121.86L20.255 175.19H19.6318L25.6581 121.86H26.2812V121.86Z" fill="#58C4C3"/>
<path d="M26.9043 121.86L20.879 175.19H20.2549L26.2811 121.86H26.9043V121.86Z" fill="#55C4C3"/>
<path d="M27.5278 121.86L21.5026 175.19H20.8794L26.9046 121.86H27.5278V121.86Z" fill="#53C3C2"/>
<path d="M28.1518 121.86L22.1256 175.19H21.5024L27.5277 121.86H28.1518V121.86Z" fill="#52C3C2"/>
<path d="M28.7749 121.86L22.7486 175.19H22.1255L28.1517 121.86H28.7749V121.86Z" fill="#50C3C2"/>
<path d="M29.3979 121.86L23.3727 175.19H22.7485L28.7748 121.86H29.3979Z" fill="#50C1C0"/>
<path d="M30.0224 121.86L23.9962 175.19H23.373L29.3983 121.86H30.0224V121.86Z" fill="#4BC2C0"/>
<path d="M30.6455 121.86L24.6193 175.19H23.9961L30.0223 121.86H30.6455V121.86Z" fill="#4CC1C0"/>
<path d="M31.2685 121.86L25.2423 175.19H24.6191L30.6454 121.86H31.2685V121.86Z" fill="#47C1BE"/>
<path d="M31.8916 121.86L25.8663 175.19H25.2422L31.2684 121.86H31.8916V121.86Z" fill="#46C0BE"/>
<path d="M32.5161 121.86L26.4899 175.19H25.8667L31.8919 121.86H32.5161V121.86Z" fill="#43C0BE"/>
<path d="M33.1391 121.86L27.1129 175.19H26.4897L32.516 121.86H33.1391V121.86Z" fill="#40BFBD"/>
<path d="M33.7622 121.86L27.737 175.19H27.1128L33.139 121.86H33.7622V121.86Z" fill="#3BBFBD"/>
<path d="M34.3852 121.86L28.36 175.19H27.7368L33.762 121.86H34.3852V121.86Z" fill="#39BFBC"/>
<path d="M35.0097 121.86L28.9835 175.19H28.3604L34.3856 121.86H35.0097V121.86Z" fill="#34BEBD"/>
<path d="M35.6328 121.86L29.6066 175.19H28.9834L35.0096 121.86H35.6328V121.86Z" fill="#32BEBB"/>
<path d="M36.2558 121.86L30.2306 175.19H29.6064L35.6327 121.86H36.2558V121.86Z" fill="#2DBDBB"/>
<path d="M36.8789 121.86L30.8536 175.19H30.2305L36.2557 121.86H36.8789V121.86Z" fill="#24BCBB"/>
<path d="M37.5034 121.86L31.4772 175.19H30.854L36.8792 121.86H37.5034V121.86Z" fill="#21BCB9"/>
<path d="M38.1264 121.86L32.1002 175.19H31.4771L37.5033 121.86H38.1264V121.86Z" fill="#18BBB9"/>
<path d="M38.7495 121.86L32.7243 175.19H32.1001L38.1263 121.86H38.7495V121.86Z" fill="#0FBAB9"/>
<path d="M39.3725 121.86L33.3473 175.19H32.7241L38.7493 121.86H39.3725V121.86Z" fill="#03BBB8"/>
<path d="M39.9966 121.86L33.9703 175.19H33.3472L39.3724 121.86H39.9966V121.86Z" fill="#06B8B6"/>
<path d="M40.6201 121.86L34.5939 175.19H33.9707L39.9969 121.86H40.6201V121.86Z" fill="#06B8B6"/>
<path d="M41.2431 121.86L35.2179 175.19H34.5938L40.62 121.86H41.2431Z" fill="#03B7B5"/>
<path d="M41.8662 121.86L35.8409 175.19H35.2178L41.243 121.86H41.8662V121.86Z" fill="#04B7B4"/>
<path d="M42.4902 121.86L36.464 175.19H35.8408L41.866 121.86H42.4902Z" fill="#00B6B5"/>
<path d="M43.1137 121.86L37.0875 175.19H36.4644L42.4906 121.86H43.1137V121.86Z" fill="#03B6B4"/>
<path d="M43.7368 121.86L37.7116 175.19H37.0874L43.1136 121.86H43.7368V121.86Z" fill="#05B6B2"/>
<path d="M44.3598 121.86L38.3346 175.19H37.7114L43.7367 121.86H44.3598V121.86Z" fill="#01B5B1"/>
<path d="M44.9839 121.86L38.9576 175.19H38.3345L44.3597 121.86H44.9839V121.86Z" fill="#01B5B1"/>
<path d="M45.6074 121.86L39.5812 175.19H38.958L44.9842 121.86H45.6074V121.86Z" fill="#00B4B1"/>
<path d="M46.2304 121.86L40.2052 175.19H39.5811L45.6073 121.86H46.2304V121.86Z" fill="#00B3B0"/>
<path d="M46.8545 121.86L40.8282 175.19H40.2051L46.2303 121.86H46.8545V121.86Z" fill="#00B3B0"/>
<path d="M47.4775 121.86L41.4513 175.19H40.8281L46.8543 121.86H47.4775V121.86Z" fill="#00B2AF"/>
<path d="M48.101 121.86L42.0748 175.19H41.4517L47.4779 121.86H48.101V121.86Z" fill="#00B2AE"/>
<path d="M48.7241 121.86L42.6989 175.19H42.0747L48.1009 121.86H48.7241V121.86Z" fill="#00B1AE"/>
<path d="M49.3481 121.86L43.3219 175.19H42.6987L48.724 121.86H49.3481V121.86Z" fill="#00B1AD"/>
<path d="M49.9712 121.86L43.9449 175.19H43.3218L49.348 121.86H49.9712V121.86Z" fill="#00B0AC"/>
<path d="M50.5947 121.86L44.5695 175.19H43.9453L49.9715 121.86H50.5947V121.86Z" fill="#00AFAC"/>
<path d="M60.7107 121.86L61.0597 121.899V175.19H44.5693L50.5946 121.86H60.7107V121.86Z" fill="#00AFAC"/>
<path d="M122.903 141.705L122.478 132.568H122.903V141.705Z" fill="#75CACA"/>
<path d="M122.903 151.306L122.031 132.568H122.477L122.903 141.705V151.306Z" fill="#74CBCA"/>
<path d="M122.903 160.907L121.583 132.568H122.031L122.903 151.306V160.907V160.907Z" fill="#74CBCA"/>
<path d="M122.593 163.85L121.137 132.568H121.583L122.904 160.907V163.85H122.593V163.85Z" fill="#73CBCA"/>
<path d="M122.146 163.85L120.689 132.568H121.137L122.593 163.85H122.146ZM121.699 163.85L120.242 132.568H120.689L122.146 163.85H121.699Z" fill="#72C9C9"/>
<path d="M121.251 163.85L119.794 132.568H120.242L121.699 163.85H121.251Z" fill="#70CACA"/>
<path d="M120.804 163.85L119.348 132.568H119.794L121.251 163.85H120.804Z" fill="#6FCAC8"/>
<path d="M120.358 163.85L118.9 132.568H119.348L120.804 163.85H120.358Z" fill="#6EC8C8"/>
<path d="M119.91 163.85L118.454 132.568H118.9L120.358 163.85H119.91Z" fill="#6EC8C8"/>
<path d="M119.464 163.85L118.006 132.568H118.454L119.91 163.85H119.464Z" fill="#6CC9C9"/>
<path d="M119.016 163.85L117.559 132.568H118.006L119.463 163.85H119.016Z" fill="#6DC9C8"/>
<path d="M118.569 163.85L117.111 132.568H117.559L119.016 163.85H118.569Z" fill="#69C7C8"/>
<path d="M118.121 163.85L116.665 132.568H117.111L118.569 163.85H118.121Z" fill="#69C7C8"/>
<path d="M117.675 163.85L116.217 132.568H116.664L118.121 163.85H117.675Z" fill="#69C8C7"/>
<path d="M117.227 163.85L115.771 132.568H116.217L117.675 163.85H117.227Z" fill="#68C8C7"/>
<path d="M116.78 163.85L115.323 132.568H115.77L117.227 163.85H116.78Z" fill="#67C7C7"/>
<path d="M116.333 163.85L114.876 132.568H115.323L116.78 163.85H116.333Z" fill="#65C7C7"/>
<path d="M115.886 163.85L114.429 132.568H114.876L116.333 163.85H115.886Z" fill="#64C7C7"/>
<path d="M115.438 163.85L113.981 132.568H114.429L115.886 163.85H115.438Z" fill="#63C6C6"/>
<path d="M114.992 163.85L113.535 132.568H113.982L115.439 163.85H114.992Z" fill="#60C6C6"/>
<path d="M114.544 163.85L113.087 132.568H113.535L114.992 163.85H114.544Z" fill="#60C6C5"/>
<path d="M114.097 163.85L112.641 132.568H113.087L114.544 163.85H114.097Z" fill="#5FC6C5"/>
<path d="M113.65 163.85L112.193 132.568H112.641L114.097 163.85H113.65Z" fill="#5FC6C5"/>
<path d="M113.203 163.85L111.746 132.568H112.193L113.649 163.85H113.203Z" fill="#5CC5C4"/>
<path d="M112.755 163.85L111.298 132.568H111.746L113.203 163.85H112.755Z" fill="#5AC5C4"/>
<path d="M112.309 163.85L110.852 132.568H111.299L112.755 163.85H112.309Z" fill="#5AC5C4"/>
<path d="M111.862 163.85L110.404 132.568H110.852L112.309 163.85H111.862Z" fill="#57C4C4"/>
<path d="M111.414 163.85L109.958 132.568H110.404L111.862 163.85H111.414Z" fill="#58C4C3"/>
<path d="M110.967 163.85L109.51 132.568H109.957L111.414 163.85H110.967Z" fill="#55C4C3"/>
<path d="M110.52 163.85L109.063 132.568H109.51L110.967 163.85H110.52ZM110.073 163.85L108.615 132.568H109.063L110.52 163.85H110.073Z" fill="#53C3C2"/>
<path d="M109.626 163.85L108.169 132.568H108.616L110.073 163.85H109.626Z" fill="#52C3C2"/>
<path d="M109.179 163.85L107.721 132.568H108.169L109.626 163.85H109.179Z" fill="#50C3C2"/>
<path d="M108.731 163.85L107.274 132.568H107.721L109.179 163.85H108.731Z" fill="#50C1C0"/>
<path d="M108.284 163.85L106.827 132.568H107.274L108.731 163.85H108.284Z" fill="#4DC2C1"/>
<path d="M107.837 163.85L106.38 132.568H106.827L108.284 163.85H107.837Z" fill="#4CC2C0"/>
<path d="M107.39 163.85L105.933 132.568H106.38L107.836 163.85H107.39Z" fill="#4BC0BF"/>
<path d="M106.943 163.85L105.486 132.568H105.934L107.39 163.85H106.943Z" fill="#47C1BE"/>
<path d="M106.496 163.85L105.039 132.568H105.486L106.942 163.85H106.496Z" fill="#46C0BE"/>
<path d="M106.048 163.85L104.591 132.568H105.039L106.496 163.85H106.048Z" fill="#43C0BE"/>
<path d="M105.601 163.85L104.145 132.568H104.591L106.048 163.85H105.601Z" fill="#41C0BE"/>
<path d="M105.153 163.85L103.697 132.568H104.144L105.601 163.85H105.153Z" fill="#40BFBD"/>
<path d="M104.707 163.85L103.25 132.568H103.697L105.154 163.85H104.707Z" fill="#3BBFBD"/>
<path d="M104.259 163.85L102.803 132.568H103.25L104.707 163.85H104.259Z" fill="#3CBFBC"/>
<path d="M103.813 163.85L102.356 132.568H102.803L104.259 163.85H103.813Z" fill="#39BFBC"/>
<path d="M103.365 163.85L101.908 132.568H102.356L103.813 163.85H103.365Z" fill="#34BEBD"/>
<path d="M102.918 163.85L101.461 132.568H101.908L103.365 163.85H102.918Z" fill="#32BEBB"/>
<path d="M102.471 163.85L101.014 132.568H101.461L102.918 163.85H102.471Z" fill="#2FBEBC"/>
<path d="M102.024 163.85L100.567 132.568H101.014L102.472 163.85H102.024Z" fill="#2DBDBB"/>
<path d="M101.577 163.85L100.12 132.568H100.567L102.024 163.85H101.577Z" fill="#2BBDBA"/>
<path d="M101.13 163.85L99.6729 132.568H100.12L101.577 163.85H101.13Z" fill="#24BCBB"/>
<path d="M100.683 163.85L99.2251 132.568H99.6728L101.129 163.85H100.683Z" fill="#21BCB9"/>
<path d="M100.235 163.85L98.7783 132.568H99.225L100.683 163.85H100.235V163.85Z" fill="#18BBB9"/>
<path d="M99.7883 163.85L98.3306 132.568H98.7782L100.235 163.85H99.7883Z" fill="#16BAB9"/>
<path d="M99.341 163.85L97.8843 132.568H98.331L99.7887 163.85H99.341Z" fill="#11BAB7"/>
<path d="M98.8942 163.85L97.4365 132.568H97.8842L99.3409 163.85H98.8942Z" fill="#03BBB8"/>
<path d="M98.4464 163.85L96.9897 132.568H97.4364L98.8941 163.85H98.4464Z" fill="#06B8B6"/>
<path d="M97.9997 163.85L96.543 132.568H96.9896L98.4464 163.85H97.9997Z" fill="#06B8B6"/>
<path d="M97.5519 163.85L96.0952 132.568H96.5429L97.9996 163.85H97.5519Z" fill="#06B8B6"/>
<path d="M97.1056 163.85L95.6489 132.568H96.0956L97.5523 163.85H97.1056Z" fill="#00B7B6"/>
<path d="M96.6579 163.85L95.2012 132.568H95.6488L97.1056 163.85H96.6579Z" fill="#03B7B5"/>
<path d="M96.2111 163.85L94.7544 132.568H95.2011L96.6578 163.85H96.2111Z" fill="#04B7B4"/>
<path d="M95.7633 163.85L94.3066 132.568H94.7543L96.211 163.85H95.7633Z" fill="#00B6B5"/>
<path d="M95.3166 163.85L93.8599 132.568H94.3065L95.7632 163.85H95.3166Z" fill="#00B6B5"/>
<path d="M94.8688 163.85L93.4121 132.568H93.8598L95.3165 163.85H94.8688Z" fill="#00B6B5"/>
<path d="M94.4225 163.85L92.9657 132.568H93.4124L94.8691 163.85H94.4225ZM93.9758 163.85L92.5181 132.568H92.9657L94.4225 163.85H93.9758Z" fill="#03B6B4"/>
<path d="M93.528 163.85L92.0713 132.568H92.518L93.9757 163.85H93.528Z" fill="#05B6B2"/>
<path d="M93.0812 163.85L91.6235 132.568H92.0712L93.5279 163.85H93.0812Z" fill="#01B5B1"/>
<path d="M92.6336 163.85L91.6226 142.131V132.568H91.6236L93.0813 163.85H92.6336V163.85ZM92.1869 163.85L91.6226 151.732V142.131L92.6336 163.85H92.1869V163.85Z" fill="#01B5B1"/>
<path d="M91.7392 163.85L91.6226 161.332V151.732L92.1869 163.85H91.7392Z" fill="#00B4B1"/>
<path d="M91.6226 161.332L91.7392 163.85H91.6226V161.332Z" fill="#00B4B1"/>
<path d="M35.4684 132.402L19.3809 148.61L35.588 164.697L49.2996 164.647L34.921 150.384L105.921 150.12L99.6979 156.385L106.554 156.36L114.598 148.256L106.494 140.213L99.6381 140.238L105.908 146.457L34.9081 146.72L49.179 132.351L35.4684 132.402V132.402Z" fill="#244B5A"/>
</svg>
