<svg width="1274" height="532" viewBox="0 0 1274 532" fill="none" xmlns="http://www.w3.org/2000/svg">
<path d="M636.97 163.87C606.3 163.87 581.06 189.11 581.06 219.78C581.06 250.45 606.3 275.69 636.97 275.69C650.11 275.23 661.14 285.86 661.23 298.82C661.33 311.91 650.24 322.76 636.97 322.3" stroke="black" stroke-width="10" stroke-miterlimit="10" stroke-linecap="round" stroke-linejoin="round"/>
<path fill-rule="evenodd" clip-rule="evenodd" d="M637 5.47998C724.55 5.47998 795.52 76.45 795.52 164C795.52 251.55 724.55 322.52 637 322.52C549.45 322.52 478.48 251.55 478.48 164C478.48 76.45 549.45 5.47998 637 5.47998Z" stroke="black" stroke-width="10" stroke-miterlimit="10" stroke-linecap="round" stroke-linejoin="round"/>
<path d="M748.78 275.68L749.08 164" stroke="black" stroke-width="10" stroke-miterlimit="10" stroke-linecap="round" stroke-linejoin="round"/>
<path d="M525.16 163.87H636.97" stroke="black" stroke-width="10" stroke-miterlimit="10" stroke-linecap="round" stroke-linejoin="round"/>
<path d="M749.09 52.05V163.86C749.09 225.2 698.62 275.67 637.28 275.67C606.79 275.67 578.98 263.2 558.73 243.12C538.24 222.81 525.47 194.7 525.47 163.86" stroke="black" stroke-width="10" stroke-miterlimit="10" stroke-linecap="round" stroke-linejoin="round"/>
<path d="M637 7.60999L636.97 275.68" stroke="black" stroke-width="10" stroke-miterlimit="10" stroke-linecap="round" stroke-linejoin="round"/>
<path d="M748.78 52.05L636.97 163.87" stroke="black" stroke-width="10" stroke-miterlimit="10" stroke-linecap="round" stroke-linejoin="round"/>
<path d="M525.16 275.68V52.05L748.79 275.68" stroke="black" stroke-width="10" stroke-miterlimit="10" stroke-linecap="round" stroke-linejoin="round"/>
<path d="M59.9673 432.875L17.5923 452.5L59.9673 472.5V482.375L7.96729 456.75V448.5L59.9673 423.125V432.875ZM106.879 482.375V421.5H116.129V482.5C116.129 490.167 114.754 495.917 112.004 499.75C109.254 503.583 103.713 507.625 95.3794 511.875L91.6294 504.625C98.1294 500.875 102.296 497.667 104.129 495C105.963 492.417 106.879 488.208 106.879 482.375ZM106.879 407.375V396.5H116.129V407.375H106.879ZM178.223 440.375V472.375C178.473 475.458 180.89 477.292 185.473 477.875L185.098 485.25C178.515 485.25 173.556 483.583 170.223 480.25C162.723 483.583 155.223 485.25 147.723 485.25C141.973 485.25 137.598 483.625 134.598 480.375C131.598 477.125 130.098 472.458 130.098 466.375C130.098 460.292 131.64 455.833 134.723 453C137.806 450.083 142.64 448.292 149.223 447.625L168.848 445.75V440.375C168.848 436.125 167.931 433.083 166.098 431.25C164.265 429.417 161.765 428.5 158.598 428.5C151.931 428.5 145.015 428.917 137.848 429.75L133.973 430.125L133.598 423C142.765 421.167 150.89 420.25 157.973 420.25C165.056 420.25 170.181 421.875 173.348 425.125C176.598 428.375 178.223 433.458 178.223 440.375ZM139.723 465.875C139.723 473.542 142.89 477.375 149.223 477.375C154.89 477.375 160.473 476.417 165.973 474.5L168.848 473.5V452.875L150.348 454.625C146.598 454.958 143.89 456.042 142.223 457.875C140.556 459.708 139.723 462.375 139.723 465.875ZM220.095 420.25C222.845 420.25 227.512 420.75 234.095 421.75L237.095 422.125L236.72 429.75C230.054 429 225.137 428.625 221.97 428.625C214.887 428.625 210.054 430.333 207.47 433.75C204.97 437.083 203.72 443.333 203.72 452.5C203.72 461.583 204.887 467.917 207.22 471.5C209.637 475.083 214.595 476.875 222.095 476.875L236.845 475.75L237.22 483.5C229.47 484.667 223.679 485.25 219.845 485.25C210.095 485.25 203.345 482.75 199.595 477.75C195.929 472.75 194.095 464.333 194.095 452.5C194.095 440.583 196.095 432.25 200.095 427.5C204.095 422.667 210.762 420.25 220.095 420.25ZM260.539 484H251.164V394.25H260.539V447.25L270.289 446.75L288.164 421.5H298.789L278.414 450.25L299.664 484H289.039L270.414 455L260.539 455.375V484ZM330.603 428.625C321.52 428.625 316.978 431.792 316.978 438.125C316.978 441.042 318.02 443.125 320.103 444.375C322.186 445.542 326.936 446.792 334.353 448.125C341.77 449.375 347.02 451.167 350.103 453.5C353.186 455.833 354.728 460.208 354.728 466.625C354.728 473.042 352.645 477.75 348.478 480.75C344.395 483.75 338.395 485.25 330.478 485.25C325.311 485.25 319.228 484.667 312.228 483.5L308.478 482.875L308.978 474.75C318.478 476.167 325.645 476.875 330.478 476.875C335.311 476.875 338.978 476.125 341.478 474.625C344.061 473.042 345.353 470.458 345.353 466.875C345.353 463.208 344.27 460.75 342.103 459.5C339.936 458.167 335.186 456.917 327.853 455.75C320.52 454.583 315.311 452.875 312.228 450.625C309.145 448.375 307.603 444.208 307.603 438.125C307.603 432.042 309.728 427.542 313.978 424.625C318.311 421.708 323.686 420.25 330.103 420.25C335.186 420.25 341.561 420.833 349.228 422L352.728 422.625L352.478 430.625C343.228 429.292 335.936 428.625 330.603 428.625ZM366.333 452.625C366.333 441.208 368.375 432.958 372.458 427.875C376.542 422.792 383.417 420.25 393.083 420.25C402.833 420.25 409.708 422.792 413.708 427.875C417.792 432.958 419.833 441.208 419.833 452.625C419.833 464.042 417.917 472.333 414.083 477.5C410.25 482.667 403.25 485.25 393.083 485.25C382.917 485.25 375.917 482.667 372.083 477.5C368.25 472.333 366.333 464.042 366.333 452.625ZM375.958 452.5C375.958 461.583 377.042 467.958 379.208 471.625C381.458 475.292 386.083 477.125 393.083 477.125C400.167 477.125 404.792 475.333 406.958 471.75C409.125 468.083 410.208 461.667 410.208 452.5C410.208 443.333 409 437.042 406.583 433.625C404.167 430.125 399.667 428.375 393.083 428.375C386.583 428.375 382.083 430.125 379.583 433.625C377.167 437.042 375.958 443.333 375.958 452.5ZM444.499 484H435.124V421.5H444.374V425.875C451.124 422.125 457.582 420.25 463.749 420.25C472.082 420.25 477.665 422.5 480.499 427C483.415 431.5 484.874 439.5 484.874 451V484H475.624V451.25C475.624 442.583 474.749 436.667 472.999 433.5C471.332 430.25 467.707 428.625 462.124 428.625C459.457 428.625 456.624 429.042 453.624 429.875C450.707 430.625 448.457 431.375 446.874 432.125L444.499 433.25V484ZM529.887 420.25C538.304 420.25 544.179 422.667 547.512 427.5C550.929 432.25 552.637 440.625 552.637 452.625C552.637 464.625 550.512 473.083 546.262 478C542.096 482.833 534.387 485.25 523.137 485.25C519.637 485.25 513.846 484.917 505.762 484.25L502.262 483.875V394.25H511.512V424.625C517.846 421.708 523.971 420.25 529.887 420.25ZM523.012 476.875C531.179 476.875 536.554 475.042 539.137 471.375C541.804 467.625 543.137 461.333 543.137 452.5C543.137 443.667 542.096 437.5 540.012 434C537.929 430.417 534.221 428.625 528.887 428.625C524.054 428.625 519.096 429.542 514.012 431.375L511.512 432.25V476.25C516.929 476.667 520.762 476.875 523.012 476.875ZM568.808 484V394.25H578.183V484H568.808ZM641.114 440.375V472.375C641.364 475.458 643.78 477.292 648.364 477.875L647.989 485.25C641.405 485.25 636.447 483.583 633.114 480.25C625.614 483.583 618.114 485.25 610.614 485.25C604.864 485.25 600.489 483.625 597.489 480.375C594.489 477.125 592.989 472.458 592.989 466.375C592.989 460.292 594.53 455.833 597.614 453C600.697 450.083 605.53 448.292 612.114 447.625L631.739 445.75V440.375C631.739 436.125 630.822 433.083 628.989 431.25C627.155 429.417 624.655 428.5 621.489 428.5C614.822 428.5 607.905 428.917 600.739 429.75L596.864 430.125L596.489 423C605.655 421.167 613.78 420.25 620.864 420.25C627.947 420.25 633.072 421.875 636.239 425.125C639.489 428.375 641.114 433.458 641.114 440.375ZM602.614 465.875C602.614 473.542 605.78 477.375 612.114 477.375C617.78 477.375 623.364 476.417 628.864 474.5L631.739 473.5V452.875L613.239 454.625C609.489 454.958 606.78 456.042 605.114 457.875C603.447 459.708 602.614 462.375 602.614 465.875ZM668.986 484H659.611V421.5H668.861V425.875C675.611 422.125 682.069 420.25 688.236 420.25C696.569 420.25 702.153 422.5 704.986 427C707.903 431.5 709.361 439.5 709.361 451V484H700.111V451.25C700.111 442.583 699.236 436.667 697.486 433.5C695.819 430.25 692.194 428.625 686.611 428.625C683.944 428.625 681.111 429.042 678.111 429.875C675.194 430.625 672.944 431.375 671.361 432.125L668.986 433.25V484ZM736.125 484H726.75V394.25H736.125V447.25L745.875 446.75L763.75 421.5H774.375L754 450.25L775.25 484H764.625L746 455L736.125 455.375V484ZM827.477 476.25L831.102 475.875L831.352 483.25C821.852 484.583 813.727 485.25 806.977 485.25C797.977 485.25 791.602 482.667 787.852 477.5C784.102 472.25 782.227 464.125 782.227 453.125C782.227 431.208 790.935 420.25 808.352 420.25C816.769 420.25 823.06 422.625 827.227 427.375C831.394 432.042 833.477 439.417 833.477 449.5L832.977 456.625H791.727C791.727 463.542 792.977 468.667 795.477 472C797.977 475.333 802.31 477 808.477 477C814.727 477 821.06 476.75 827.477 476.25ZM824.102 449.125C824.102 441.458 822.852 436.042 820.352 432.875C817.935 429.708 813.935 428.125 808.352 428.125C802.852 428.125 798.685 429.792 795.852 433.125C793.102 436.458 791.685 441.792 791.602 449.125H824.102ZM857.462 484H848.087V421.5H857.337V425.875C864.087 422.125 870.546 420.25 876.712 420.25C885.046 420.25 890.629 422.5 893.462 427C896.379 431.5 897.837 439.5 897.837 451V484H888.587V451.25C888.587 442.583 887.712 436.667 885.962 433.5C884.296 430.25 880.671 428.625 875.087 428.625C872.421 428.625 869.587 429.042 866.587 429.875C863.671 430.625 861.421 431.375 859.837 432.125L857.462 433.25V484ZM934.851 428.625C925.768 428.625 921.226 431.792 921.226 438.125C921.226 441.042 922.268 443.125 924.351 444.375C926.434 445.542 931.184 446.792 938.601 448.125C946.018 449.375 951.268 451.167 954.351 453.5C957.434 455.833 958.976 460.208 958.976 466.625C958.976 473.042 956.893 477.75 952.726 480.75C948.643 483.75 942.643 485.25 934.726 485.25C929.559 485.25 923.476 484.667 916.476 483.5L912.726 482.875L913.226 474.75C922.726 476.167 929.893 476.875 934.726 476.875C939.559 476.875 943.226 476.125 945.726 474.625C948.309 473.042 949.601 470.458 949.601 466.875C949.601 463.208 948.518 460.75 946.351 459.5C944.184 458.167 939.434 456.917 932.101 455.75C924.768 454.583 919.559 452.875 916.476 450.625C913.393 448.375 911.851 444.208 911.851 438.125C911.851 432.042 913.976 427.542 918.226 424.625C922.559 421.708 927.934 420.25 934.351 420.25C939.434 420.25 945.809 420.833 953.476 422L956.976 422.625L956.726 430.625C947.476 429.292 940.184 428.625 934.851 428.625ZM982.707 484H973.332V394.25H982.707V425C989.373 421.833 995.79 420.25 1001.96 420.25C1010.29 420.25 1015.87 422.5 1018.71 427C1021.62 431.5 1023.08 439.5 1023.08 451V484H1013.71V451.25C1013.71 442.583 1012.83 436.667 1011.08 433.5C1009.41 430.25 1005.83 428.625 1000.33 428.625C995.082 428.625 989.998 429.583 985.082 431.5L982.707 432.375V484ZM1040.47 484V421.5H1049.85V484H1040.47ZM1040.47 407.375V396.5H1049.85V407.375H1040.47ZM1067.81 511.75V421.5H1077.06V426C1083.4 422.167 1089.65 420.25 1095.81 420.25C1103.73 420.25 1109.48 422.792 1113.06 427.875C1116.65 432.875 1118.44 441.167 1118.44 452.75C1118.44 464.333 1116.31 472.667 1112.06 477.75C1107.9 482.75 1100.94 485.25 1091.19 485.25C1086.11 485.25 1081.44 484.792 1077.19 483.875V511.75H1067.81ZM1094.44 428.625C1091.94 428.625 1089.23 429.042 1086.31 429.875C1083.48 430.708 1081.23 431.542 1079.56 432.375L1077.19 433.625V475.75C1083.11 476.667 1087.61 477.125 1090.69 477.125C1097.44 477.125 1102.15 475.208 1104.81 471.375C1107.56 467.542 1108.94 461.292 1108.94 452.625C1108.94 443.958 1107.69 437.792 1105.19 434.125C1102.77 430.458 1099.19 428.625 1094.44 428.625ZM1156.2 482.75L1191.45 395.5L1199.82 398.625L1164.57 485.75L1156.2 482.75ZM1256.34 452.5L1213.96 432.875V423.125L1265.96 448.5V456.75L1213.96 482.375V472.5L1256.34 452.5Z" fill="black"/>
</svg>
