<svg width="328" height="328" viewBox="0 0 328 328" fill="none" xmlns="http://www.w3.org/2000/svg">
<path d="M163.97 163.87C133.3 163.87 108.06 189.11 108.06 219.78C108.06 250.45 133.3 275.69 163.97 275.69C177.11 275.23 188.14 285.86 188.23 298.82C188.33 311.91 177.24 322.76 163.97 322.3" stroke="black" stroke-width="10" stroke-miterlimit="10" stroke-linecap="round" stroke-linejoin="round"/>
<path fill-rule="evenodd" clip-rule="evenodd" d="M164 5.47998C251.55 5.47998 322.52 76.45 322.52 164C322.52 251.55 251.55 322.52 164 322.52C76.45 322.52 5.47998 251.55 5.47998 164C5.47998 76.45 76.45 5.47998 164 5.47998Z" stroke="black" stroke-width="10" stroke-miterlimit="10" stroke-linecap="round" stroke-linejoin="round"/>
<path d="M275.78 275.68L276.08 164" stroke="black" stroke-width="10" stroke-miterlimit="10" stroke-linecap="round" stroke-linejoin="round"/>
<path d="M52.16 163.87H163.97" stroke="black" stroke-width="10" stroke-miterlimit="10" stroke-linecap="round" stroke-linejoin="round"/>
<path d="M276.09 52.05V163.86C276.09 225.2 225.62 275.67 164.28 275.67C133.79 275.67 105.98 263.2 85.73 243.12C65.24 222.81 52.47 194.7 52.47 163.86" stroke="black" stroke-width="10" stroke-miterlimit="10" stroke-linecap="round" stroke-linejoin="round"/>
<path d="M164 7.60999L163.97 275.68" stroke="black" stroke-width="10" stroke-miterlimit="10" stroke-linecap="round" stroke-linejoin="round"/>
<path d="M275.78 52.05L163.97 163.87" stroke="black" stroke-width="10" stroke-miterlimit="10" stroke-linecap="round" stroke-linejoin="round"/>
<path d="M52.16 275.68V52.05L275.79 275.68" stroke="black" stroke-width="10" stroke-miterlimit="10" stroke-linecap="round" stroke-linejoin="round"/>
</svg>
