<svg width="647" height="375" viewBox="0 0 647 375" fill="none" xmlns="http://www.w3.org/2000/svg">
<g filter="url(#filter0_i)">
<path d="M80.3527 283.58C79.9127 286.22 79.3261 288.64 78.5927 290.84C77.8594 292.893 76.9061 295.093 75.7327 297.44C62.8261 292.6 50.2127 286.88 37.8927 280.28C25.5727 273.533 15.1594 266.787 6.65273 260.04L7.09273 250.14C16.1861 243.393 26.7461 236.793 38.7727 230.34C50.7994 223.887 63.1927 218.093 75.9527 212.96C77.4194 216.04 78.4461 218.533 79.0327 220.44C79.7661 222.347 80.3527 224.4 80.7927 226.6C70.2327 231.147 60.4794 235.767 51.5327 240.46C42.7327 245.153 34.3727 250.14 26.4527 255.42C33.3461 260.113 41.1927 264.807 49.9927 269.5C58.7927 274.047 68.9127 278.74 80.3527 283.58ZM169.779 312.18C166.846 324.207 162.226 333.373 155.919 339.68C149.613 346.133 141.986 349.36 133.039 349.36C122.479 349.36 113.606 344.593 106.419 335.06C99.3793 325.673 95.0526 312.913 93.4393 296.78C95.9326 295.02 98.7193 293.553 101.799 292.38C105.026 291.06 108.619 290.033 112.579 289.3C114.633 305.287 117.126 316.507 120.059 322.96C122.993 329.413 127.246 332.64 132.819 332.64C139.273 332.64 144.039 328.387 147.119 319.88C150.199 311.227 151.739 297.953 151.739 280.06C151.739 264.513 151.153 247.94 149.979 230.34C148.806 212.593 147.119 194.187 144.919 175.12C146.679 173.947 148.953 172.993 151.739 172.26C154.526 171.527 157.386 171.087 160.319 170.94C162.666 170.793 164.793 170.793 166.699 170.94C168.753 170.94 170.659 171.087 172.419 171.38C173.886 187.367 174.913 200.713 175.499 211.42C176.086 221.98 176.379 231.733 176.379 240.68C176.379 257.107 175.866 270.893 174.839 282.04C173.813 293.04 172.126 303.087 169.779 312.18ZM315.811 346.28C312.731 348.04 309.358 349.507 305.691 350.68C302.025 351.853 297.625 352.807 292.491 353.54C290.731 341.073 288.825 329.267 286.771 318.12C284.718 306.827 282.445 296.047 279.951 285.78C269.538 285.78 259.638 286.147 250.251 286.88C240.865 287.467 232.211 288.347 224.291 289.52C221.211 297.293 217.911 304.993 214.391 312.62C211.018 320.247 207.425 327.8 203.611 335.28C199.505 334.547 195.765 333.227 192.391 331.32C189.165 329.56 186.305 327.36 183.811 324.72C196.425 302.133 206.838 279.913 215.051 258.06C223.411 236.06 231.625 208.267 239.691 174.68C244.531 174.827 248.638 175.12 252.011 175.56C255.385 175.853 258.758 176.44 262.131 177.32C276.211 202.987 287.358 228.873 295.571 254.98C303.785 281.087 310.531 311.52 315.811 346.28ZM250.911 202.18C247.685 215.82 244.385 228.36 241.011 239.8C237.785 251.24 234.338 262.093 230.671 272.36C238.445 271.333 246.071 270.527 253.551 269.94C261.178 269.353 268.511 268.987 275.551 268.84C272.325 256.96 268.658 245.593 264.551 234.74C260.591 223.74 256.045 212.887 250.911 202.18ZM448.88 325.82C446.974 327.873 444.48 329.927 441.4 331.98C438.467 334.033 435.24 335.94 431.72 337.7C424.68 321.567 418.08 307.267 411.92 294.8C405.76 282.187 399.747 270.673 393.88 260.26C383.907 272.727 374.154 284.313 364.62 295.02C355.234 305.727 345.26 316.36 334.7 326.92C332.354 325.453 330.007 323.62 327.66 321.42C325.314 319.073 323.48 316.873 322.16 314.82C336.974 298.54 348.854 285.047 357.8 274.34C366.894 263.487 375.4 252.853 383.32 242.44C375.84 229.973 367.847 218.24 359.34 207.24C350.98 196.093 341.74 185.093 331.62 174.24C334.994 171.307 338.587 168.593 342.4 166.1C346.36 163.607 350.32 161.553 354.28 159.94C363.814 171.967 372.174 183.187 379.36 193.6C386.694 203.867 393.367 213.913 399.38 223.74C406.714 213.327 413.314 203.427 419.18 194.04C425.047 184.507 430.547 174.973 435.68 165.44C438.76 166.907 441.84 168.96 444.92 171.6C448 174.24 450.567 177.1 452.62 180.18C446.754 189.567 440.374 199.173 433.48 209C426.587 218.827 418.594 229.68 409.5 241.56C415.807 252.853 422.04 265.173 428.2 278.52C434.507 291.867 441.4 307.633 448.88 325.82ZM544.35 165.22C546.99 165.807 549.777 166.907 552.71 168.52C555.643 170.133 558.43 172.113 561.07 174.46C548.603 204.233 533.863 236.867 516.85 272.36C499.837 307.853 482.603 341.953 465.15 374.66C461.923 373.487 458.917 372.167 456.13 370.7C453.343 369.38 451.143 368.06 449.53 366.74C461.703 345.18 476.663 315.553 494.41 277.86C512.157 240.02 528.803 202.473 544.35 165.22ZM570.941 297.22C569.327 293.847 568.227 291.28 567.641 289.52C567.054 287.613 566.541 285.56 566.101 283.36C576.661 278.813 586.341 274.267 595.141 269.72C604.087 265.027 612.594 260.04 620.661 254.76C613.767 250.067 605.921 245.447 597.121 240.9C588.467 236.207 578.274 231.367 566.541 226.38C566.981 223.74 567.567 221.393 568.301 219.34C569.034 217.14 570.061 214.94 571.381 212.74C584.141 217.58 596.681 223.373 609.001 230.12C621.321 236.72 631.734 243.32 640.241 249.92L639.801 259.82C630.561 266.713 619.927 273.46 607.901 280.06C595.874 286.513 583.554 292.233 570.941 297.22Z" fill="#7D63BC"/>
</g>
<defs>
<filter id="filter0_i" x="6.65271" y="159.94" width="633.588" height="218.72" filterUnits="userSpaceOnUse" color-interpolation-filters="sRGB">
<feFlood flood-opacity="0" result="BackgroundImageFix"/>
<feBlend mode="normal" in="SourceGraphic" in2="BackgroundImageFix" result="shape"/>
<feColorMatrix in="SourceAlpha" type="matrix" values="0 0 0 0 0 0 0 0 0 0 0 0 0 0 0 0 0 0 127 0" result="hardAlpha"/>
<feOffset dy="4"/>
<feGaussianBlur stdDeviation="2"/>
<feComposite in2="hardAlpha" operator="arithmetic" k2="-1" k3="1"/>
<feColorMatrix type="matrix" values="0 0 0 0 0 0 0 0 0 0 0 0 0 0 0 0 0 0 0.75 0"/>
<feBlend mode="normal" in2="shape" result="effect1_innerShadow"/>
</filter>
</defs>
</svg>
