<svg width="263" height="149" viewBox="0 0 263 149" fill="none" xmlns="http://www.w3.org/2000/svg">
<path d="M64.525 70.15L66.8 73.725L49.375 84.35L66.8 95L64.325 98.5L45.25 86.575V82.075L64.525 70.15ZM96.0555 65.55V88.4C96.0555 89.9333 95.8471 91.425 95.4305 92.875C95.0138 94.325 94.3305 95.6333 93.3805 96.8C92.4471 97.9667 91.2055 98.8917 89.6555 99.575C88.1055 100.258 86.2055 100.6 83.9555 100.6C80.3888 100.6 77.1805 99.55 74.3305 97.45L76.4555 94.225C77.8888 95.1583 79.2055 95.7833 80.4055 96.1C81.6221 96.4167 82.7638 96.575 83.8305 96.575C86.1138 96.575 87.8971 95.8417 89.1805 94.375C90.4638 92.8917 91.1055 90.8333 91.1055 88.2V69.475H80.8305V65.55H96.0555ZM122.361 91.425H109.311L106.711 100H101.736L112.836 65.55H119.086L130.211 100H124.961L122.361 91.425ZM110.461 87.45H121.211L115.861 69.55L110.461 87.45ZM133.166 65.55H138.766L145.941 78.425L153.166 65.55H158.491L148.816 81.4L159.616 100H154.016L145.841 84.825L137.591 100H132.266L142.916 81.65L133.166 65.55ZM172.177 105.225L168.327 103.5L189.677 59.475L193.477 61.3L191.077 66.225L216.702 82.05V86.575L197.627 98.5L195.152 95.025L212.577 84.35L189.227 70.05L172.177 105.225Z" fill="black"/>
<path d="M13.8625 42V40.7H16V30.1875H13.8625V28.875H17.1875L17.475 32.025C17.9917 30.9583 18.6083 30.125 19.325 29.525C20.05 28.9167 21.025 28.6125 22.25 28.6125C22.5917 28.6125 22.8958 28.6375 23.1625 28.6875C23.4375 28.7375 23.725 28.8 24.025 28.875L23.85 33H22.35V30.4375L22.375 30.1125C22.275 30.1042 22.1708 30.1 22.0625 30.1C21.0042 30.1 20.1042 30.4625 19.3625 31.1875C18.6208 31.9042 18.0167 33.0417 17.55 34.6V40.7H20.25V42H13.8625ZM29.8527 36.0625C29.8777 37.1625 30.0736 38.0667 30.4402 38.775C30.8152 39.475 31.3069 39.9917 31.9152 40.325C32.5236 40.6583 33.1861 40.825 33.9027 40.825C34.5944 40.825 35.2069 40.725 35.7402 40.525C36.2819 40.325 36.8486 40.0208 37.4402 39.6125L38.2527 40.775C37.6444 41.2417 36.9569 41.6042 36.1902 41.8625C35.4319 42.1208 34.6902 42.25 33.9652 42.25C32.7569 42.25 31.7194 41.9667 30.8527 41.4C29.9944 40.8333 29.3361 40.0417 28.8777 39.025C28.4194 38 28.1902 36.8083 28.1902 35.45C28.1902 34.1167 28.4236 32.9375 28.8902 31.9125C29.3569 30.8875 30.0027 30.0875 30.8277 29.5125C31.6611 28.9292 32.6277 28.6375 33.7277 28.6375C35.3194 28.6375 36.5652 29.2083 37.4652 30.35C38.3652 31.4833 38.8152 33.0292 38.8152 34.9875C38.8152 35.2125 38.8111 35.4167 38.8027 35.6C38.7944 35.775 38.7861 35.9292 38.7777 36.0625H29.8527ZM33.7652 30.0875C32.7069 30.0875 31.8152 30.4625 31.0902 31.2125C30.3736 31.9625 29.9694 33.1125 29.8777 34.6625H37.3402C37.3069 33.1208 36.9611 31.975 36.3027 31.225C35.6444 30.4667 34.7986 30.0875 33.7652 30.0875ZM53.7305 41.375C53.2971 41.6583 52.7721 41.875 52.1555 42.025C51.5388 42.175 50.968 42.25 50.443 42.25C49.1263 42.25 48.093 41.9 47.343 41.2C46.6013 40.5 46.2305 39.6208 46.2305 38.5625V30.175H43.1305V28.875H46.2305V25.85L47.7805 25.6625V28.875H52.4055L52.193 30.175H47.7805V38.525C47.7805 39.2833 47.9846 39.8708 48.393 40.2875C48.8096 40.6958 49.5055 40.9 50.4805 40.9C50.9805 40.9 51.443 40.8417 51.868 40.725C52.293 40.6083 52.6888 40.4542 53.0555 40.2625L53.7305 41.375ZM60.2582 28.875V38.2625C60.2582 39.1958 60.454 39.8792 60.8457 40.3125C61.2457 40.7375 61.8749 40.95 62.7332 40.95C63.5499 40.95 64.3165 40.7208 65.0332 40.2625C65.7499 39.7958 66.2999 39.2625 66.6832 38.6625V28.875H68.2332V42H66.9332L66.7582 40.1625C66.2249 40.8292 65.5749 41.3458 64.8082 41.7125C64.0415 42.0708 63.2749 42.25 62.5082 42.25C61.2415 42.25 60.2915 41.9208 59.6582 41.2625C59.0249 40.5958 58.7082 39.6583 58.7082 38.45V28.875H60.2582ZM73.8234 42V40.7H75.9609V30.1875H73.8234V28.875H77.1484L77.4359 32.025C77.9526 30.9583 78.5693 30.125 79.2859 29.525C80.0109 28.9167 80.9859 28.6125 82.2109 28.6125C82.5526 28.6125 82.8568 28.6375 83.1234 28.6875C83.3984 28.7375 83.6859 28.8 83.9859 28.875L83.8109 33H82.3109V30.4375L82.3359 30.1125C82.2359 30.1042 82.1318 30.1 82.0234 30.1C80.9651 30.1 80.0651 30.4625 79.3234 31.1875C78.5818 31.9042 77.9776 33.0417 77.5109 34.6V40.7H80.2109V42H73.8234ZM88.6887 42V28.875H89.9887L90.1137 30.7875C90.6303 30.1042 91.3095 29.575 92.1512 29.2C93.0012 28.825 93.7928 28.6375 94.5262 28.6375C95.8678 28.6375 96.822 28.9792 97.3887 29.6625C97.9637 30.3458 98.2512 31.2917 98.2512 32.5V42H96.7012V34.1625C96.7012 33.1625 96.647 32.35 96.5387 31.725C96.4303 31.1 96.197 30.6458 95.8387 30.3625C95.4803 30.0708 94.9178 29.925 94.1512 29.925C93.5678 29.925 93.0178 30.0542 92.5012 30.3125C91.9928 30.5625 91.5428 30.875 91.1512 31.25C90.7678 31.6167 90.4637 31.975 90.2387 32.325V42H88.6887ZM120.894 33.25C120.894 35.0917 121.107 36.6708 121.532 37.9875C121.957 39.2958 122.577 40.4625 123.394 41.4875C124.219 42.5125 125.227 43.5167 126.419 44.5L125.669 45.375C124.311 44.275 123.148 43.1583 122.182 42.025C121.223 40.9 120.49 39.6375 119.982 38.2375C119.473 36.8292 119.219 35.1667 119.219 33.25C119.219 31.325 119.473 29.6625 119.982 28.2625C120.49 26.8542 121.223 25.5875 122.182 24.4625C123.148 23.3292 124.311 22.2167 125.669 21.125L126.419 22C125.502 22.7667 124.698 23.525 124.007 24.275C123.315 25.025 122.736 25.8292 122.269 26.6875C121.811 27.5375 121.465 28.4958 121.232 29.5625C121.007 30.6292 120.894 31.8583 120.894 33.25Z" fill="black"/>
<path d="M21.0375 116.25C21.0375 114.858 20.9208 113.629 20.6875 112.562C20.4625 111.496 20.1167 110.537 19.65 109.687C19.1917 108.829 18.6167 108.025 17.925 107.275C17.2333 106.525 16.4292 105.767 15.5125 105L16.2625 104.125C17.6292 105.217 18.7917 106.329 19.75 107.462C20.7083 108.587 21.4417 109.854 21.95 111.262C22.4583 112.662 22.7125 114.325 22.7125 116.25C22.7125 118.167 22.4583 119.829 21.95 121.237C21.4417 122.637 20.7083 123.9 19.75 125.025C18.7917 126.158 17.6292 127.275 16.2625 128.375L15.5125 127.5C16.7042 126.517 17.7083 125.513 18.525 124.487C19.35 123.462 19.975 122.296 20.4 120.987C20.825 119.671 21.0375 118.092 21.0375 116.25Z" fill="black"/>
</svg>
