<svg width="678" height="360" viewBox="0 0 678 360" fill="none" xmlns="http://www.w3.org/2000/svg">
<path d="M122.502 253C122.368 254.6 122.035 256.2 121.502 257.8C120.968 259.267 120.235 260.867 119.302 262.6C107.968 258.333 97.4349 253.6 87.7016 248.4C78.1016 243.2 69.5682 237.733 62.1016 232L62.7016 224.2C70.7016 218.333 79.3682 212.933 88.7016 208C98.1682 202.933 108.502 198.133 119.702 193.6C120.635 196 121.368 198 121.902 199.6C122.568 201.2 122.968 202.4 123.102 203.2C113.368 207.333 104.702 211.467 97.1016 215.6C89.5016 219.6 82.3016 223.867 75.5016 228.4C81.3682 232.4 88.0349 236.4 95.5016 240.4C103.102 244.4 112.102 248.6 122.502 253ZM199.153 284.2C196.486 293.8 192.62 301.067 187.553 306C182.486 311.067 176.353 313.6 169.153 313.6C160.086 313.6 152.62 309.333 146.753 300.8C141.02 292.267 137.286 280.133 135.553 264.4C137.286 263.2 139.22 262.2 141.353 261.4C143.486 260.6 146.153 259.867 149.353 259.2C151.22 274.8 153.62 285.8 156.553 292.2C159.62 298.467 163.953 301.6 169.553 301.6C175.953 301.6 180.686 297.4 183.753 289C186.953 280.467 188.553 267.533 188.553 250.2C188.553 235.8 188.02 220.933 186.953 205.6C186.02 190.267 184.42 173.2 182.153 154.4C183.353 153.733 184.82 153.2 186.553 152.8C188.286 152.267 190.153 151.867 192.153 151.6C193.353 151.467 194.62 151.4 195.953 151.4C197.286 151.267 198.753 151.267 200.353 151.4C201.82 165 202.953 177.933 203.753 190.2C204.553 202.467 204.953 213.867 204.953 224.4C204.953 238.4 204.486 250.133 203.553 259.6C202.62 268.933 201.153 277.133 199.153 284.2ZM329.594 312C327.46 313.2 325.26 314.2 322.994 315C320.727 315.8 317.794 316.467 314.194 317C312.194 303.267 310.194 291.2 308.194 280.8C306.194 270.4 304.127 260.867 301.994 252.2C292.527 252.067 283.26 252.333 274.194 253C265.127 253.533 256.66 254.4 248.794 255.6C245.994 262.533 242.86 269.667 239.394 277C236.06 284.333 232.327 292.067 228.194 300.2C225.66 299.667 223.26 298.8 220.994 297.6C218.727 296.533 216.527 295 214.394 293C226.26 272.067 235.927 251.6 243.394 231.6C250.994 211.467 258.327 185.933 265.394 155C268.994 155.133 271.994 155.333 274.394 155.6C276.794 155.867 279.127 156.267 281.394 156.8C294.46 182.133 304.527 206.333 311.594 229.4C318.794 252.467 324.794 280 329.594 312ZM273.794 173.8C270.594 187.8 267.327 200.467 263.994 211.8C260.794 223 257.26 233.667 253.394 243.8C259.794 242.867 266.794 242.133 274.394 241.6C281.994 240.933 290.194 240.467 298.994 240.2C295.66 228.467 291.994 217.267 287.994 206.6C283.994 195.933 279.26 185 273.794 173.8ZM449.036 293.6C447.436 295.2 445.636 296.667 443.636 298C441.636 299.467 439.569 300.667 437.436 301.6C430.769 286.133 424.569 272.467 418.836 260.6C413.103 248.733 407.569 237.933 402.236 228.2C391.569 241.4 381.769 253.067 372.836 263.2C363.903 273.2 354.836 282.867 345.636 292.2C343.903 291 342.236 289.667 340.636 288.2C339.036 286.733 337.836 285.267 337.036 283.8C349.303 270.6 360.036 258.667 369.236 248C378.436 237.2 387.036 226.533 395.036 216C388.236 204.667 380.969 193.933 373.236 183.8C365.636 173.667 356.836 163.267 346.836 152.6C349.369 150.333 351.903 148.4 354.436 146.8C356.969 145.067 359.569 143.733 362.236 142.8C371.569 154.267 379.703 164.867 386.636 174.6C393.569 184.333 399.903 194 405.636 203.6C412.436 194.133 418.703 184.8 424.436 175.6C430.169 166.4 435.636 157.067 440.836 147.6C442.836 148.667 444.836 150.133 446.836 152C448.969 153.733 450.836 155.733 452.436 158C446.703 167.333 440.569 176.733 434.036 186.2C427.636 195.667 420.503 205.533 412.636 215.8C418.236 225.667 423.836 236.667 429.436 248.8C435.036 260.8 441.569 275.733 449.036 293.6ZM537.673 146.8C539.673 147.467 541.607 148.333 543.473 149.4C545.34 150.467 547.14 151.733 548.873 153.2C537.273 181.067 523.94 210.867 508.873 242.6C493.807 274.333 478.273 305.467 462.273 336C460.273 335.467 458.34 334.667 456.473 333.6C454.473 332.667 452.54 331.533 450.673 330.2C461.873 310.6 474.94 285.067 489.873 253.6C504.807 222 520.74 186.4 537.673 146.8ZM559.247 262.6C558.314 260.2 557.514 258.2 556.847 256.6C556.314 255 555.98 253.733 555.847 252.8C565.58 248.667 574.247 244.6 581.847 240.6C589.447 236.467 596.647 232.133 603.447 227.6C597.847 223.733 591.247 219.8 583.647 215.8C576.18 211.8 567.114 207.533 556.447 203C556.58 201.4 556.914 199.8 557.447 198.2C558.114 196.6 558.914 195 559.847 193.4C571.18 197.667 581.647 202.4 591.247 207.6C600.98 212.8 609.514 218.267 616.847 224L616.247 231.8C608.38 237.533 599.78 242.933 590.447 248C581.114 253.067 570.714 257.933 559.247 262.6Z" fill="#6E5099"/>
</svg>
