<svg width="400" height="400" viewBox="0 0 400 400" fill="none" xmlns="http://www.w3.org/2000/svg">
<path d="M291.717 58.0239H118.775V336.172H291.717V58.0239Z" fill="#DDDDDD"/>
<path d="M110.29 367.212H289.709C291.307 367.212 292.888 366.897 294.364 366.286C295.84 365.674 297.181 364.778 298.31 363.649C299.44 362.519 300.336 361.178 300.947 359.702C301.559 358.227 301.873 356.645 301.873 355.048V175.628C301.873 174.031 301.559 172.449 300.947 170.974C300.336 169.498 299.44 168.157 298.31 167.027C297.181 165.898 295.84 165.002 294.364 164.39C292.888 163.779 291.307 163.464 289.709 163.464H110.29C108.693 163.464 107.111 163.779 105.635 164.39C104.159 165.002 102.818 165.898 101.689 167.027C100.559 168.157 99.6632 169.498 99.0519 170.974C98.4406 172.449 98.126 174.031 98.126 175.628V355.048C98.126 356.645 98.4406 358.227 99.0519 359.702C99.6632 361.178 100.559 362.519 101.689 363.649C102.818 364.778 104.159 365.674 105.635 366.286C107.111 366.897 108.693 367.212 110.29 367.212ZM206.386 301.185H270.855C272.791 301.185 274.647 301.954 276.016 303.323C277.384 304.692 278.153 306.548 278.153 308.484C278.153 310.419 277.384 312.276 276.016 313.645C274.647 315.013 272.791 315.782 270.855 315.782H206.386C204.45 315.782 202.594 315.013 201.225 313.645C199.856 312.276 199.087 310.419 199.087 308.484C199.087 306.548 199.856 304.692 201.225 303.323C202.594 301.954 204.45 301.185 206.386 301.185ZM128.852 222.484C127.563 221.101 126.861 219.271 126.895 217.38C126.928 215.489 127.694 213.685 129.031 212.348C130.368 211.011 132.172 210.245 134.063 210.211C135.954 210.178 137.784 210.88 139.167 212.169L184.758 257.735C186.125 259.104 186.893 260.959 186.893 262.893C186.893 264.827 186.125 266.682 184.758 268.051L139.167 313.641C137.784 314.931 135.954 315.632 134.063 315.599C132.172 315.566 130.368 314.8 129.031 313.462C127.694 312.125 126.928 310.321 126.895 308.43C126.861 306.54 127.563 304.71 128.852 303.326L169.285 262.893L128.852 222.484Z" fill="black"/>
<path fill-rule="evenodd" clip-rule="evenodd" d="M158.826 140.691C162.064 140.691 164.655 134.537 164.655 126.625C164.655 118.712 162.064 112.559 158.826 112.559C155.587 112.559 152.996 118.712 152.996 126.625C152.996 134.537 155.587 140.691 158.826 140.691Z" fill="#C0C81F"/>
<path fill-rule="evenodd" clip-rule="evenodd" d="M325.907 35.2221C317.995 26.8704 281.951 36.9803 259.973 50.6067C242.83 41.8155 222.17 36.5408 200.192 36.5408C177.775 36.5408 157.115 41.8155 139.973 50.6067C117.995 36.9803 81.5111 26.4309 74.0386 35.2221C66.1265 44.0133 79.7529 80.4969 96.0166 100.717C94.6979 105.991 93.8188 111.266 93.8188 116.98C93.8188 134.563 101.291 150.826 114.039 164.013H186.566C184.368 159.618 187.445 156.98 200.632 156.98C213.819 157.42 216.456 159.618 214.698 164.013H287.225C299.973 150.826 307.445 134.123 307.445 116.98C307.445 111.266 306.566 105.991 305.247 100.717C320.632 80.4969 333.819 43.5737 325.907 35.2221ZM158.874 151.266C143.489 151.266 130.742 138.519 130.742 123.134C130.742 107.75 143.489 95.0023 158.874 95.0023C174.258 95.0023 187.006 107.75 187.006 123.134C187.006 138.519 174.258 151.266 158.874 151.266ZM241.511 151.266C226.127 151.266 213.379 138.519 213.379 123.134C213.379 107.75 226.127 95.0023 241.511 95.0023C256.896 95.0023 269.643 107.75 269.643 123.134C269.643 138.519 257.335 151.266 241.511 151.266Z" fill="#784421"/>
<path fill-rule="evenodd" clip-rule="evenodd" d="M283.517 149.508C309.89 116.541 363.956 100.717 400 123.574C357.802 116.98 319.561 127.969 283.517 149.508Z" fill="#2B1100"/>
<path fill-rule="evenodd" clip-rule="evenodd" d="M281.758 141.596C296.703 106.431 341.099 83.5737 376.703 95.8815C339.341 100.717 309.011 115.222 281.758 141.596Z" fill="#2B1100"/>
<path fill-rule="evenodd" clip-rule="evenodd" d="M281.319 158.739C308.572 132.805 368.791 124.014 387.253 151.266C349.89 139.398 317.363 144.673 281.319 158.739Z" fill="#2B1100"/>
<path fill-rule="evenodd" clip-rule="evenodd" d="M116.484 149.508C90.1099 116.541 36.0439 100.717 0 123.574C42.1978 116.98 80.4395 127.969 116.484 149.508Z" fill="#2B1100"/>
<path fill-rule="evenodd" clip-rule="evenodd" d="M118.242 141.596C103.297 106.431 58.9013 83.5737 23.2969 95.8815C60.6595 100.717 90.9892 115.222 118.242 141.596Z" fill="#2B1100"/>
<path fill-rule="evenodd" clip-rule="evenodd" d="M118.681 158.739C91.4284 132.805 31.2086 124.014 12.7471 151.266C50.1097 139.398 82.6372 144.673 118.681 158.739Z" fill="#2B1100"/>
<path fill-rule="evenodd" clip-rule="evenodd" d="M83.956 132.804C72.967 132.804 63.7362 138.519 59.3406 147.31C58.9011 147.31 58.4615 147.31 58.022 147.31C46.1538 147.31 36.0439 156.101 36.0439 167.09C36.0439 182.475 51.8681 190.826 66.3736 185.552C75.1648 198.299 94.0659 199.178 101.099 185.552C111.648 185.112 128.791 183.354 131.429 167.09C133.187 156.101 121.758 147.31 109.451 147.31C109.011 147.31 108.571 147.31 108.132 147.31C104.615 138.519 94.945 132.804 83.956 132.804ZM316.044 132.804C327.033 132.804 336.264 138.519 340.659 147.31C341.099 147.31 335.824 147.31 341.978 147.31C348.132 147.31 363.956 156.101 363.956 167.09C363.956 182.475 348.132 190.826 333.626 185.552C324.835 198.299 305.934 199.178 298.901 185.552C288.352 185.112 271.209 183.354 268.571 167.09C266.813 156.101 284.396 147.31 290.549 147.31C296.703 147.31 291.429 147.31 291.868 147.31C295.385 138.519 305.055 132.804 316.044 132.804Z" fill="#483737"/>
<path fill-rule="evenodd" clip-rule="evenodd" d="M240.534 140.691C243.772 140.691 246.363 134.537 246.363 126.624C246.363 118.712 243.772 112.559 240.534 112.559C237.295 112.559 234.704 118.712 234.704 126.624C234.704 134.537 237.295 140.691 240.534 140.691Z" fill="#C0C81F"/>
</svg>
