<svg width="400" height="400" viewBox="0 0 400 400" fill="none" xmlns="http://www.w3.org/2000/svg">
<g clip-path="url(#clip0_1310_237)">
<path d="M111.067 256.167C111.049 270.89 105.193 285.005 94.7818 295.415C84.3711 305.826 70.2563 311.682 55.5333 311.7C24.9167 311.7 0 286.8 0 256.167C0 225.533 24.9167 200.617 55.5333 200.617C70.2564 200.643 84.3687 206.505 94.778 216.917C105.187 227.33 111.045 241.444 111.067 256.167ZM303.817 195.433C293.959 201.841 282.458 205.262 270.7 205.283C259.693 205.228 248.908 202.18 239.5 196.467L239.633 196.667C231.324 191.745 224.277 184.954 219.05 176.833L175.517 115.283C175.344 115.12 175.193 114.935 175.067 114.733C170.126 106.642 163.185 99.9599 154.912 95.3301C146.639 90.7003 137.314 88.2792 127.833 88.3001C118.315 88.2488 108.946 90.6549 100.63 95.2856C92.3145 99.9164 85.3349 106.615 80.3667 114.733C80.2691 114.902 80.1516 115.059 80.0167 115.2L22.8833 204.25C29.7268 199.891 37.3707 196.939 45.3681 195.568C53.3656 194.197 61.5561 194.434 69.4609 196.265C77.3656 198.096 84.8261 201.485 91.4061 206.233C97.9861 210.98 103.554 216.992 107.783 223.917C107.876 224.009 107.959 224.109 108.033 224.217L153.967 288.7C159.086 295.845 165.84 301.66 173.666 305.661C181.491 309.663 190.161 311.733 198.95 311.7C207.77 311.76 216.476 309.705 224.338 305.706C232.2 301.707 238.988 295.881 244.133 288.717L244.283 288.5C245.5 286.783 246.567 285.133 247.533 283.417L271.567 245.833L303.817 195.433ZM391.733 227.133L391.5 226.667L390.767 225.567C390.611 225.319 390.45 225.074 390.283 224.833L331.533 135.333C331.933 138.133 332.4 140.917 332.4 143.833C332.4 156.183 328.75 168.117 321.833 178.3L275.117 251.3L298.717 287.617L298.683 287.65C298.838 287.786 298.973 287.943 299.083 288.117C304.21 295.391 311.007 301.329 318.904 305.433C326.801 309.536 335.567 311.686 344.467 311.7C359.191 311.687 373.308 305.832 383.72 295.42C394.132 285.008 399.987 270.891 400 256.167C400 245.95 397.15 235.9 391.733 227.133ZM270.7 199.367C285.426 199.349 299.543 193.49 309.954 183.076C320.366 172.662 326.22 158.543 326.233 143.817C326.216 129.094 320.359 114.979 309.948 104.568C299.538 94.1576 285.423 88.3011 270.7 88.2834C255.977 88.3011 241.862 94.1576 231.451 104.568C221.041 114.979 215.184 129.094 215.167 143.817C215.189 158.54 221.046 172.654 231.455 183.066C241.865 193.479 255.977 199.34 270.7 199.367Z" fill="black"/>
</g>
<defs>
<clipPath id="clip0_1310_237">
<rect width="400" height="400" fill="white"/>
</clipPath>
</defs>
</svg>
