<svg width="400" height="400" viewBox="0 0 400 400" fill="none" xmlns="http://www.w3.org/2000/svg">
<path fill-rule="evenodd" clip-rule="evenodd" d="M231.819 13.4102C229.084 13.4102 226.544 13.9963 224.199 14.7779C229.181 18.0994 231.917 22.4956 233.284 27.4779C233.382 28.1617 233.577 28.6502 233.675 29.334C233.773 29.9202 233.87 30.5064 233.87 31.0925C234.261 39.6895 231.624 40.7641 229.767 45.8441C226.934 52.3895 227.716 59.4234 231.135 65.0896C231.428 65.7734 231.819 66.5549 232.307 67.2388C228.595 42.5225 249.208 38.8102 253.018 31.0925C253.311 24.3517 247.743 19.8579 243.347 16.7317C239.146 14.1917 235.336 13.4102 231.819 13.4102ZM262.885 18.9786C262.494 21.2256 262.787 20.6394 262.69 21.8117C262.592 22.5933 262.592 23.5702 262.495 24.3517C262.299 25.1333 262.104 25.9148 261.811 26.6964C261.616 27.4779 261.322 28.2594 261.029 29.041C260.638 29.8225 260.345 30.5064 259.955 31.2879C259.662 31.6788 259.466 32.0694 259.173 32.4602C258.978 32.7533 258.782 33.0464 258.587 33.3395C258.099 34.0233 257.61 34.7071 257.122 35.2933C256.535 35.8795 256.047 36.5633 255.363 37.0518V37.1496C254.777 37.6381 254.191 38.2242 253.507 38.7127C251.455 40.2757 249.111 41.4481 246.962 42.9135C246.278 43.4019 245.594 43.7927 245.008 44.3789C244.324 44.8673 243.738 45.3558 243.152 45.9419C242.468 46.5281 241.979 47.1142 241.393 47.7981C240.905 48.3843 240.318 49.0681 239.928 49.752C239.439 50.4358 238.951 51.1196 238.56 51.8035C238.169 52.585 237.876 53.2689 237.485 54.0504C237.192 54.8319 236.899 55.5158 236.704 56.2973C236.411 57.1766 236.215 57.9581 236.02 58.7397C235.922 59.1306 235.922 59.6189 235.825 60.0097C235.727 60.4006 235.727 60.7912 235.63 61.182C235.63 61.9635 235.532 62.8428 235.532 63.6243C235.532 64.2104 235.532 64.7966 235.63 65.3828C235.63 66.1643 235.727 66.9458 235.923 67.8251C236.02 68.6066 236.216 69.3881 236.411 70.1697C236.704 70.9512 236.9 71.7328 237.193 72.5143C237.388 73.0028 237.681 73.4912 237.876 73.882L215.407 65.1874C211.597 64.1127 207.885 63.1358 204.075 62.2566C202.023 61.7681 199.972 61.2797 197.92 60.7912C192.059 59.6189 186.099 58.7397 180.14 58.1535C179.945 58.1535 179.847 58.0557 179.652 58.0557C173.79 57.4695 168.026 57.1765 162.165 57.1765C157.866 57.1765 153.568 57.3717 149.367 57.6649C143.408 58.0558 137.448 58.8373 131.489 59.8141C130.024 60.0094 128.558 60.3026 127.093 60.5957C124.065 61.1818 121.134 61.8657 118.301 62.5496C116.835 62.9405 115.37 63.3311 113.905 63.7219C112.439 64.308 111.071 64.9919 109.704 65.578C108.629 66.0665 107.555 66.5549 106.48 67.0434C106.285 67.1413 106.089 67.1413 105.991 67.2387C105.015 67.7271 104.135 68.1179 103.256 68.6064C102.963 68.7042 102.768 68.8016 102.572 68.8994C101.498 69.3879 100.423 69.974 99.5438 70.4625C98.8599 70.7556 98.1761 71.1464 97.5899 71.4395C97.2968 71.6347 96.906 71.8304 96.7107 71.9279C95.8314 72.4164 94.9522 72.9048 94.1707 73.3933C93.2914 73.8818 92.5099 74.3702 91.826 74.8586C91.1422 75.3471 90.4583 75.7379 89.8722 76.2263C89.7743 76.3242 89.6769 76.3242 89.5791 76.4216C88.9929 76.8125 88.3091 77.3008 87.723 77.7893C87.723 77.7893 87.6251 77.8871 87.5277 77.9846C87.0393 78.3755 86.5508 78.7661 86.0623 79.1568C85.8671 79.2546 85.6714 79.4499 85.4762 79.5477C84.9877 79.9387 84.4993 80.427 84.0108 80.8178C83.9129 81.013 83.7177 81.1109 83.6199 81.2087C83.0337 81.7949 82.4476 82.2833 81.8614 82.8695C81.7635 82.8695 81.7635 82.9673 81.6662 83.0647C81.08 83.5532 80.4938 84.1393 79.9077 84.7255C79.8098 84.8233 79.8098 84.9207 79.7125 84.9207C79.224 85.4092 78.7355 85.8977 78.2471 86.4838C78.0518 86.679 77.7586 86.8747 77.5632 87.0699C77.0748 87.6561 76.4886 88.2422 75.9025 88.8284C75.8046 89.0236 75.6094 89.1215 75.5115 89.3169C74.73 90.0984 74.0461 90.88 73.2646 91.6615C73.1667 91.7593 73.0694 91.8567 72.9715 91.9546C71.4084 93.6154 69.7476 95.2761 67.9892 96.7415C66.2307 98.3046 64.3746 99.77 62.5184 101.04C60.5645 102.408 58.7084 103.58 56.6568 104.752C54.703 105.827 52.6514 106.804 50.5022 107.683C48.4507 108.562 46.3014 109.344 44.1522 110.028C40.0491 110.907 35.8483 112.568 32.2337 112.861C31.4522 112.861 30.5729 113.056 29.7914 113.154C28.9122 113.349 28.1306 113.545 27.3491 113.74C26.5676 114.033 25.786 114.326 25.0045 114.619C24.2229 114.912 23.4414 115.303 22.6599 115.694C21.976 116.182 21.1945 116.573 20.5106 117.062C19.8268 117.55 19.1429 118.136 18.5567 118.722C17.8729 119.211 17.189 119.895 16.6029 120.481C16.0167 121.165 15.4306 121.751 14.9421 122.435C14.4537 123.216 13.8675 123.9 13.4767 124.682C12.9883 125.365 12.4998 126.147 12.109 126.928C11.7181 127.808 11.3275 128.589 11.0344 129.469C10.7413 130.25 10.4483 131.129 10.1552 132.009C9.95994 132.79 9.76425 133.572 9.66672 134.353C9.66672 134.451 9.56888 134.548 9.56888 134.646C9.37364 135.525 9.37364 136.698 9.2758 137.284C9.17795 137.968 9.08057 138.554 9.08057 139.238C9.08057 139.629 9.08057 140.117 9.17841 140.508C9.27625 141.192 9.37364 141.778 9.56934 142.364C9.76457 142.95 9.96026 143.536 10.2532 144.122V144.22C10.5462 144.806 10.937 145.393 11.3278 145.979C11.7187 146.565 12.1093 147.151 12.5978 147.737C13.0862 148.226 13.6724 148.812 14.2586 149.3C14.8447 149.886 15.4309 150.375 16.1147 150.863C18.4593 152.915 19.0455 153.599 22.074 155.162C22.5624 155.455 23.0509 155.65 23.6371 155.943C23.7349 155.943 23.8323 156.041 23.9302 156.041C23.9302 156.236 23.9302 156.334 24.028 156.53C24.1259 157.311 24.3211 158.093 24.5165 158.874C24.7117 159.754 25.005 160.535 25.298 161.219C25.5911 161.805 25.7865 162.391 26.0796 162.977C26.1774 163.173 26.2748 163.368 26.3727 163.466C26.7636 164.247 27.1542 164.931 27.5449 165.615C28.0334 166.299 28.5219 166.983 29.0103 167.667C29.4988 168.253 30.0849 168.937 30.6711 169.523C31.2573 170.109 31.8434 170.597 32.5273 171.184C32.5273 171.184 32.6252 171.282 32.7225 171.282C33.3087 171.77 33.8948 172.259 34.481 172.649C35.1648 173.138 35.8487 173.528 36.6302 173.919C37.3141 174.31 38.0956 174.701 38.8772 174.994C39.4633 175.287 40.1471 175.482 40.831 175.678C40.9289 175.776 41.0262 175.776 41.2219 175.873C41.6129 175.971 42.1011 176.068 42.4919 176.166C42.1988 181.441 42.101 186.424 42.8828 188.182C43.762 190.136 48.0605 184.177 52.359 177.338C51.7729 184.079 51.3821 191.992 52.359 194.337C53.4336 196.779 59.2952 189.159 64.3752 180.758C133.639 164.736 196.846 212.605 203.489 280.209C202.219 269.658 189.226 263.796 183.267 265.262C180.336 272.491 175.354 281.772 167.343 287.536C168.027 281.088 167.734 274.445 166.366 267.997C164.217 276.985 160.016 285.386 154.252 292.616C144.972 293.299 135.691 288.806 130.806 282.065C130.415 281.772 130.318 281.186 130.025 280.795C129.732 280.111 129.438 279.427 129.243 278.743C128.95 278.059 128.755 277.376 128.657 276.692C128.559 276.008 128.559 275.324 128.559 274.542C128.559 274.054 128.559 273.566 128.559 273.077C128.657 272.393 128.852 271.709 129.047 271.026C129.243 270.342 129.438 269.658 129.731 268.974C130.122 268.29 130.415 267.606 130.904 266.922C132.564 262.233 132.564 258.423 129.536 256.176C128.95 255.785 128.364 255.492 127.68 255.199C127.289 255.102 126.801 254.906 126.41 254.808C126.117 254.711 125.921 254.613 125.628 254.515C124.944 254.32 124.261 254.124 123.577 254.027C122.893 253.832 122.209 253.734 121.525 253.734C120.841 253.636 120.06 253.539 119.376 253.539C118.887 253.539 118.399 253.636 117.911 253.636C117.129 253.636 116.445 253.734 115.761 253.929C115.077 254.027 114.394 254.125 113.71 254.32C113.026 254.516 112.342 254.711 111.658 255.004C110.974 255.297 110.388 255.59 109.704 255.883C109.118 256.177 108.532 256.567 107.848 256.86C85.0858 271.71 98.6651 306.488 114.198 316.551C108.337 317.625 102.377 318.895 100.717 320.165C100.619 320.263 100.521 320.36 100.521 320.36C104.722 322.9 109.118 325.05 113.71 326.906C119.962 328.957 126.605 330.813 129.536 331.595V331.693C137.645 333.354 145.851 333.94 154.155 333.451C197.433 330.423 232.895 297.5 239.343 254.125C239.538 255.004 239.734 255.786 239.929 256.665C240.222 258.423 240.613 260.28 240.808 262.136V262.234C241.003 263.113 241.101 263.992 241.199 264.774V265.165C241.297 266.044 241.394 266.923 241.394 267.705C241.492 268.779 241.589 269.854 241.589 270.929V272.492C241.589 272.98 241.687 273.566 241.687 274.055C241.687 274.641 241.589 275.227 241.589 275.813V277.181C241.589 277.865 241.491 278.451 241.491 279.135C241.491 279.526 241.491 279.916 241.394 280.405C241.394 281.089 241.296 281.772 241.296 282.554C241.198 282.847 241.198 283.14 241.198 283.433C241.1 284.215 241.003 284.899 240.905 285.68C240.905 285.973 240.905 286.266 240.807 286.559C240.709 287.536 240.514 288.416 240.416 289.392V289.49V289.588C240.221 290.467 240.025 291.444 239.83 292.324V292.617C239.635 293.496 239.439 294.375 239.244 295.254C239.244 295.352 239.146 295.547 239.146 295.645C238.951 296.524 238.755 297.404 238.462 298.283V298.576C238.169 299.553 237.876 300.432 237.681 301.311C237.583 301.409 237.583 301.507 237.583 301.507C237.29 302.484 236.997 303.46 236.703 304.437C236.313 305.414 236.02 306.294 235.629 307.27C235.238 308.247 234.945 309.224 234.554 310.104C234.163 311.081 233.773 311.96 233.382 312.937H233.284C232.893 313.816 232.502 314.793 232.014 315.672C231.916 315.965 231.819 316.161 231.721 316.356C231.623 316.454 231.623 316.551 231.526 316.649C225.176 329.447 215.797 340.681 204.074 349.474C203.292 349.962 202.511 350.548 201.729 351.134C201.534 351.33 201.241 351.428 201.046 351.623C200.362 352.111 199.678 352.6 198.896 353.088L199.189 353.675H199.287C200.655 353.479 202.023 353.284 203.39 353.088H203.488C206.028 352.697 208.568 352.209 211.108 351.721C211.792 351.623 212.574 351.428 213.257 351.232C213.746 351.134 214.137 351.037 214.625 350.939C215.309 350.841 215.993 350.646 216.677 350.548C217.263 350.353 217.849 350.255 218.435 350.06C228.204 347.715 237.681 344.491 246.766 340.681C231.233 361.88 210.424 378.977 186.099 390.211C197.334 389.43 208.568 387.574 219.412 384.447C258.782 372.822 291.9 346.347 311.731 310.69C307.726 333.257 298.738 354.749 285.452 373.506C294.928 367.254 303.623 360.024 311.536 351.818C333.419 328.958 347.78 299.943 352.665 268.779C355.986 284.215 356.963 300.139 355.498 315.867C426.032 217.491 361.359 115.5 334.299 88.6343C334.201 88.4391 334.103 88.3412 334.103 88.1458C334.005 88.2437 334.005 88.2437 334.005 88.3411C334.005 88.2433 334.005 88.2433 333.907 88.1458C333.907 89.3182 333.81 90.4904 333.712 91.6628C333.419 93.9097 333.126 96.0589 332.735 98.2082C332.247 100.357 331.661 102.507 331.075 104.656C330.391 106.707 329.609 108.857 328.73 110.908C327.851 112.862 326.874 114.914 325.799 116.867C324.725 118.724 323.552 120.677 322.282 122.436C321.012 124.292 319.645 126.051 318.277 127.711C316.811 129.47 315.248 131.033 313.685 132.596C312.708 133.475 311.829 134.257 310.852 135.038C310.071 135.722 309.387 136.308 308.605 136.992C306.847 138.36 305.088 139.63 303.134 140.802C301.278 141.974 299.325 143.147 297.371 144.124C295.319 145.101 293.268 145.98 291.216 146.859C289.164 147.641 287.015 148.324 284.866 148.911C282.717 149.497 280.47 149.985 278.321 150.376C276.074 150.767 273.827 150.962 271.677 151.158C270.114 151.255 268.551 151.353 266.988 151.353C264.741 151.353 262.494 151.158 260.345 150.962C258.098 150.767 255.851 150.473 253.702 149.985C251.455 149.594 249.306 149.008 247.157 148.324H247.059C249.208 148.129 251.357 147.933 253.507 147.543C255.753 147.152 257.903 146.663 260.052 146.077C262.201 145.491 264.35 144.807 266.402 144.026C268.551 143.244 270.603 142.267 272.557 141.29C274.608 140.313 276.464 139.239 278.418 138.066C280.274 136.796 282.13 135.526 283.889 134.159C285.647 132.791 287.308 131.326 288.871 129.763C290.532 128.297 291.997 126.636 293.463 124.976C294.928 123.217 296.296 121.459 297.566 119.7C297.761 119.407 297.957 119.016 298.152 118.723C299.129 117.16 300.106 115.597 300.985 114.034C302.06 112.08 303.037 110.126 303.916 108.075C304.795 106.023 305.577 103.972 306.261 101.822C306.944 99.7709 307.433 97.6217 307.921 95.4725C308.312 93.2255 308.703 91.0763 308.898 88.9271C309.093 86.6801 309.289 84.4332 309.289 82.284C309.289 80.7209 309.191 79.1578 309.094 77.5947C308.899 75.3478 308.605 73.1986 308.312 71.0493C307.921 68.8024 307.433 66.6532 306.847 64.5039C306.163 62.4524 305.479 60.3031 304.698 58.2516C303.916 56.2 302.939 54.1485 301.962 52.1946C300.888 50.2408 299.813 48.2869 298.641 46.4308C297.371 44.5747 296.101 42.8162 294.733 41.0577C293.268 39.3969 291.802 37.7362 290.239 36.0754C289.458 35.2939 288.578 34.4146 287.699 33.6331C283.303 30.2138 278.711 26.99 274.12 24.0592C273.436 23.6683 272.85 23.3753 272.166 23.0822C268.942 21.0307 265.914 19.9555 262.885 18.9786Z" fill="#E0234E"/>
</svg>
