<svg width="323" height="362" viewBox="0 0 323 362" fill="none" xmlns="http://www.w3.org/2000/svg">
<path fill-rule="evenodd" clip-rule="evenodd" d="M181 161C181 142.222 165.778 127 147 127C128.222 127 113 142.222 113 161C113 179.778 128.222 195 147 195C147.503 195 148.003 194.989 148.5 194.967H155L162.5 201H170.5L173 203.5V210L175 212H181.5L184 214.5V222L186 224H210V211L178 179V174.985C179.927 170.719 181 165.985 181 161ZM146 149.5C146 153.642 142.642 157 138.5 157C134.358 157 131 153.642 131 149.5C131 145.358 134.358 142 138.5 142C142.642 142 146 145.358 146 149.5Z" fill="url(#paint0_linear)"/>
<path fill-rule="evenodd" clip-rule="evenodd" d="M45.452 262.992C57.6975 284.607 72.3895 303.041 89.5 319C110.249 338.352 130.774 351.357 161 361.336V361.5L161.25 361.418L161.5 361.5V361.336C191.726 351.357 212.251 338.352 233 319C289.674 266.141 319.815 186.12 322.404 53.3403L218.39 132.079C229.373 144.99 236 161.721 236 180C236 220.869 202.869 254 162 254C136.338 254 113.727 240.938 100.453 221.1C100.491 221.156 100.529 221.213 100.568 221.27L45.452 262.992Z" fill="url(#paint1_linear)"/>
<path fill-rule="evenodd" clip-rule="evenodd" d="M322.404 53.3403C322.41 53.0604 322.415 52.7803 322.42 52.5C322.451 50.8416 322.478 49.1749 322.5 47.5L161.5 0.147064V0L161.25 0.0735168L161 0V0.147064L0 47.5C1.26881 142.92 16.4486 211.528 45.1742 262.5C45.2667 262.664 45.3593 262.828 45.4521 262.992L100.568 221.27C100.507 221.18 100.447 221.09 100.387 221C92.5614 209.263 88 195.164 88 180C88 139.131 121.131 106 162 106C184.375 106 204.431 115.931 218 131.625C218.13 131.776 218.26 131.927 218.39 132.079L322.404 53.3403Z" fill="url(#paint2_linear)"/>
<g style="mix-blend-mode:overlay">
<path fill-rule="evenodd" clip-rule="evenodd" d="M161 361.5L161.25 361.418L161.5 361.5V361.336C191.726 351.357 212.251 338.352 233 319C289.793 266.029 319.942 185.782 322.42 52.5C322.451 50.8416 322.478 49.1749 322.5 47.5L161.5 0.147095V0L161.25 0.0734863L161 0V0.147095V106.007C161.333 106.002 161.666 106 162 106C184.375 106 204.431 115.931 218 131.625C229.216 144.597 236 161.506 236 180C236 220.869 202.869 254 162 254C161.666 254 161.333 253.998 161 253.993V361.336V361.5Z" fill="black" fill-opacity="0.3"/>
</g>
<defs>
<linearGradient id="paint0_linear" x1="161.5" y1="127" x2="161.5" y2="224" gradientUnits="userSpaceOnUse">
<stop stop-color="#FE5800"/>
<stop offset="1" stop-color="#FFAF00"/>
</linearGradient>
<linearGradient id="paint1_linear" x1="60.5" y1="265.5" x2="183.928" y2="361.5" gradientUnits="userSpaceOnUse">
<stop stop-color="#E364EB"/>
<stop offset="1" stop-color="#B62AE4"/>
</linearGradient>
<linearGradient id="paint2_linear" x1="48.5" y1="248.5" x2="154.5" y2="14.5" gradientUnits="userSpaceOnUse">
<stop stop-color="#39ECB8"/>
<stop offset="1" stop-color="#1DBAF1"/>
</linearGradient>
</defs>
</svg>
