<svg width="400" height="400" viewBox="0 0 400 400" fill="none" xmlns="http://www.w3.org/2000/svg">
<path d="M26.73 300.006C28.5379 303.153 31.1602 305.755 34.3212 307.539L189.615 397.198L189.62 397.193C192.749 399.031 196.312 400 199.94 400C203.569 400 207.132 399.031 210.261 397.193L365.56 307.534C368.714 305.744 371.334 303.145 373.148 300.003C374.961 296.862 375.903 293.293 375.875 289.666V110.348L375.87 110.343C375.898 106.715 374.955 103.145 373.141 100.003C371.327 96.8613 368.706 94.2608 365.55 92.4707L210.251 2.81168C207.125 0.973948 203.564 0 199.938 0C196.312 0 192.751 0.968995 189.625 2.80672L34.3309 92.4707C31.1734 94.2595 28.5513 96.8595 26.736 100.002C24.9206 103.144 23.9781 106.714 24.0058 110.343L24.0009 110.348V289.666C23.966 293.295 24.9118 296.866 26.73 300.006Z" fill="#009639"/>
<path d="M150.216 268.268C150.216 273.565 148.112 278.644 144.367 282.39C140.621 286.135 135.541 288.239 130.245 288.239C124.948 288.239 119.868 286.135 116.123 282.39C112.377 278.644 110.273 273.565 110.273 268.268L110.278 268.273L110.297 131.176C110.475 128.399 111.207 125.686 112.451 123.198C113.695 120.709 115.425 118.495 117.539 116.686C119.653 114.877 122.108 113.51 124.759 112.666C127.41 111.822 130.203 111.518 132.974 111.771C138.123 111.705 143.224 112.76 147.925 114.862C152.626 116.963 156.813 120.062 160.197 123.943L166.232 131.166L249.667 231.015V131.733H249.658C249.658 129.111 250.174 126.514 251.178 124.091C252.181 121.668 253.653 119.466 255.507 117.611C257.362 115.757 259.563 114.286 261.986 113.282C264.409 112.278 267.006 111.762 269.629 111.762C272.252 111.762 274.849 112.278 277.272 113.282C279.695 114.286 281.897 115.757 283.751 117.611C285.606 119.466 287.077 121.668 288.081 124.091C289.084 126.514 289.601 129.111 289.601 131.733H289.596L289.577 268.82C289.399 271.596 288.666 274.309 287.422 276.798C286.178 279.286 284.448 281.5 282.334 283.309C280.221 285.118 277.766 286.485 275.115 287.329C272.464 288.173 269.671 288.478 266.9 288.225C261.751 288.292 256.649 287.238 251.948 285.136C247.247 283.035 243.06 279.935 239.677 276.053L150.207 168.981V268.273L150.216 268.268Z" fill="white"/>
</svg>
