<svg width="100" height="100" viewBox="0 0 100 100" fill="none" xmlns="http://www.w3.org/2000/svg">
<path d="M34.1504 44.5039C32.7599 42.9775 31.0401 42.2091 28.9962 42.2091C27.7364 42.2091 26.5759 42.4496 25.5095 42.9357C24.4432 43.4219 23.5231 44.0805 22.7443 44.9221C21.9706 45.769 21.359 46.7517 20.9094 47.8913C20.4599 49.0256 20.2351 50.2541 20.2351 51.5818C20.2351 52.8834 20.4442 54.0701 20.8572 55.1417C21.2754 56.2081 21.8556 57.1229 22.6083 57.8861C23.3611 58.6493 24.255 59.2452 25.29 59.6738C26.325 60.1025 27.4594 60.3168 28.693 60.3168C29.2524 60.3168 29.7699 60.275 30.2403 60.1966C30.7108 60.1182 31.1604 59.9875 31.589 59.8097C32.0176 59.6268 32.4358 59.3968 32.854 59.1197C33.267 58.8374 33.7009 58.482 34.1504 58.0586V62.5907H34.1452V63.0298H28.4369L24.1452 67.8599V68.6911H40.2508V66.7308V42.6848H34.1504V44.5039ZM34.1347 52.8103C33.9204 53.2912 33.6381 53.7146 33.2931 54.0753C32.9429 54.436 32.5299 54.713 32.049 54.9169C31.5681 55.1208 31.0558 55.2201 30.5174 55.2201C29.9528 55.2201 29.4301 55.1208 28.9492 54.9169C28.4682 54.713 28.0501 54.436 27.6998 54.0753C27.3496 53.7146 27.0778 53.2912 26.8739 52.8103C26.67 52.3293 26.5707 51.8014 26.5707 51.242C26.5707 50.7036 26.6753 50.1966 26.8896 49.7261C27.1039 49.2556 27.3862 48.8479 27.7521 48.4977C28.1128 48.1474 28.5257 47.8704 28.9962 47.656C29.4667 47.4417 29.9737 47.3372 30.5122 47.3372C31.0297 47.3372 31.5263 47.4365 32.0124 47.6404C32.4933 47.839 32.9168 48.1213 33.2775 48.482C33.6381 48.8427 33.9204 49.2556 34.14 49.7261C34.3543 50.1966 34.4588 50.7141 34.4588 51.2786C34.4536 51.8171 34.3491 52.3293 34.1347 52.8103Z" fill="#1F1E37"/>
<path d="M17.1302 44.7862C16.8061 44.4046 16.4401 44.0753 16.0481 43.7825C15.6979 43.5264 15.3267 43.3016 14.9242 43.1187C14.7308 43.0298 14.5269 42.9566 14.3126 42.8887C14.0042 42.7893 13.6696 42.7214 13.3246 42.6639H8.97543L6.10037 45.9415V45.5599V42.7318H0V60.024H6.10037V52.6064V48.3565H6.9472H8.64611H11.7564H11.8296L12.3053 48.3461V60.0188H18.4056V49.2033C18.4056 48.2833 18.3168 47.4626 18.1391 46.7412C17.9613 46.0251 17.6268 45.3769 17.1302 44.7862Z" fill="#1F1E37"/>
<path d="M58.1913 42.6848H53.6696C53.6696 42.6848 52.0543 42.6848 51.5368 42.6848L48.8917 45.6644V42.6848H42.7861V59.977H48.9022L48.9074 48.4035H50.9147H53.3455L58.1913 42.9252V42.6848V42.6848Z" fill="#1F1E37"/>
<path d="M91.1552 50.6722L99.4981 42.9775V42.6848H91.4584L85.0601 48.9211V32H78.9597V59.9718H85.0601V52.9305L91.7668 59.9718H100V59.6424L91.1552 50.6722Z" fill="#1F1E37"/>
<path d="M74.1924 44.6555C73.2619 43.8348 72.1589 43.1971 70.8887 42.7371C69.6184 42.2771 68.2436 42.0471 66.759 42.0471C65.2536 42.0471 63.8631 42.2823 62.598 42.7528C61.3278 43.2232 60.2353 43.8714 59.31 44.6869C58.39 45.5076 57.6686 46.4747 57.1511 47.5881C56.6336 48.7015 56.3774 49.8986 56.3774 51.1793C56.3774 52.5959 56.6336 53.8819 57.1511 55.0371C57.6686 56.1924 58.3795 57.1856 59.2943 58.0167C60.2039 58.8479 61.286 59.4909 62.5458 59.9404C63.8056 60.39 65.1751 60.6148 66.6597 60.6148C68.1652 60.6148 69.5609 60.39 70.8573 59.9404C72.1485 59.4909 73.2567 58.8583 74.1767 58.0324C75.0967 57.2117 75.8233 56.2342 76.3513 55.0999C76.8793 53.9655 77.1459 52.7162 77.1459 51.3414C77.1459 49.9718 76.8845 48.7172 76.3722 47.5829C75.8495 46.4537 75.1229 45.4762 74.1924 44.6555ZM70.3816 52.8416C70.1673 53.3225 69.885 53.746 69.54 54.1066C69.1898 54.4673 68.7768 54.7444 68.2959 54.9483C67.8097 55.1521 67.3027 55.2514 66.7643 55.2514C66.2259 55.2514 65.7136 55.1521 65.2274 54.9483C64.7465 54.7444 64.3283 54.4673 63.9833 54.1066C63.6331 53.746 63.356 53.3225 63.1417 52.8416C62.9274 52.3607 62.8228 51.8275 62.8228 51.242C62.8228 50.7036 62.9274 50.1966 63.1417 49.7261C63.356 49.2556 63.6331 48.8427 63.9833 48.482C64.3335 48.1213 64.7465 47.839 65.2274 47.6404C65.7136 47.4365 66.2206 47.3372 66.7643 47.3372C67.3027 47.3372 67.815 47.4365 68.2959 47.6404C68.7768 47.839 69.195 48.1213 69.54 48.482C69.8903 48.8427 70.1673 49.2661 70.3816 49.747C70.596 50.2279 70.7005 50.7402 70.7005 51.2786C70.7005 51.838 70.596 52.3607 70.3816 52.8416Z" fill="#1F1E37"/>
</svg>
