<svg width="148" height="158" viewBox="0 0 148 158" fill="none" xmlns="http://www.w3.org/2000/svg">
<path d="M134.05 33.86L79.1 2.13C74.17 -0.71 68.05 -0.71 63.11 2.13C58.18 4.98 55.12 10.28 55.12 15.97V20.11L51.54 18.04C46.61 15.2 40.49 15.2 35.55 18.04C30.62 20.89 27.56 26.19 27.56 31.89V36.03L23.98 33.96C19.05 31.12 12.93 31.12 7.98999 33.96C3.05999 36.81 0 42.11 0 47.81V147.23C0 150.09 1.65999 152.75 4.23999 153.99C6.80999 155.24 9.93 154.9 12.17 153.13L39.42 131.64L81.44 155.9C82.6 156.57 83.9 156.9 85.2 156.9C86.5 156.9 87.8 156.56 88.96 155.9C91.28 154.56 92.72 152.07 92.72 149.39V89.56C92.72 79.74 87.44 70.6 78.94 65.69L65.16 57.73V15.98C65.16 13.86 66.3 11.88 68.14 10.82C69.98 9.76 72.26 9.76 74.1 10.82L129.05 42.54C134.46 45.66 137.82 51.49 137.82 57.73V132.23C137.82 134.35 136.68 136.33 134.84 137.39L120.28 145.8V73.64C120.28 63.82 115 54.68 106.5 49.77L72.67 30.24V41.81L101.49 58.45C106.9 61.57 110.26 67.39 110.26 73.64V150.13C110.26 152.8 111.7 155.3 114.02 156.64C115.18 157.31 116.48 157.64 117.78 157.64C119.08 157.64 120.38 157.3 121.54 156.64L139.86 146.06C144.79 143.21 147.85 137.91 147.85 132.21V57.71C147.83 47.92 142.55 38.77 134.05 33.86ZM73.91 74.37C79.32 77.49 82.68 83.31 82.68 89.56V145.06L47.88 124.97L59.05 116.17C62.92 113.12 65.14 108.55 65.14 103.62V69.32L73.91 74.37ZM55.12 63.52V103.6C55.12 105.44 54.29 107.15 52.85 108.28L10.02 142.05V47.8C10.02 45.68 11.16 43.7 13 42.64C14.84 41.58 17.12 41.58 18.96 42.64L27.56 47.6V118.65L37.58 110.75V31.89C37.58 29.77 38.72 27.79 40.56 26.73C42.4 25.67 44.68 25.67 46.52 26.73L55.12 31.69V51.94L45.1 46.15V57.73L55.12 63.52Z" fill="#0099FF"/>
</svg>
