<svg width="400" height="400" viewBox="0 0 400 400" fill="none" xmlns="http://www.w3.org/2000/svg">
<path d="M41.6798 103.25C44.0307 103.286 46.3652 102.853 48.5474 101.978C50.7296 101.103 52.716 99.8029 54.3911 98.153C56.0661 96.5031 57.3962 94.5366 58.3041 92.3678C59.2121 90.199 59.6796 87.8713 59.6796 85.5202C59.6796 83.169 59.2121 80.8414 58.3041 78.6726C57.3962 76.5038 56.0661 74.5373 54.3911 72.8874C52.716 71.2374 50.7296 69.9371 48.5474 69.062C46.3652 68.1869 44.0307 67.7545 41.6798 67.79C37.0238 67.8603 32.5824 69.7593 29.3147 73.0767C26.047 76.3941 24.2153 80.8637 24.2153 85.5202C24.2153 90.1767 26.047 94.6463 29.3147 97.9637C32.5824 101.281 37.0238 103.18 41.6798 103.25ZM313.228 88.2182C315.579 88.2535 317.914 87.8208 320.096 86.9455C322.278 86.0701 324.264 84.7696 325.939 83.1194C327.614 81.4693 328.944 79.5026 329.851 77.3338C330.759 75.1649 331.226 72.8372 331.226 70.486C331.226 68.1349 330.758 65.8072 329.85 63.6386C328.942 61.4699 327.611 59.5035 325.936 57.8538C324.261 56.2041 322.274 54.9039 320.092 54.0291C317.91 53.1543 315.575 52.7221 313.224 52.7579C308.568 52.8287 304.127 54.7282 300.86 58.0459C297.592 61.3637 295.761 65.8336 295.762 70.4901C295.762 75.1466 297.594 79.616 300.863 82.933C304.131 86.25 308.572 88.1485 313.228 88.2182Z" fill="#FF37AD"/>
<path d="M327.618 316.016C329.969 316.052 332.303 315.619 334.485 314.744C336.667 313.868 338.653 312.568 340.328 310.918C342.003 309.267 343.333 307.301 344.241 305.132C345.148 302.963 345.616 300.635 345.616 298.284C345.615 295.933 345.147 293.605 344.239 291.437C343.331 289.268 342.001 287.302 340.325 285.652C338.65 284.002 336.664 282.702 334.481 281.827C332.299 280.952 329.964 280.52 327.614 280.556C322.958 280.627 318.516 282.526 315.249 285.844C311.982 289.162 310.151 293.632 310.151 298.288C310.152 302.945 311.984 307.414 315.252 310.731C318.52 314.048 322.962 315.947 327.618 316.016ZM114.096 35.4623C116.447 35.4978 118.781 35.0654 120.963 34.1904C123.146 33.3153 125.132 32.0149 126.807 30.365C128.482 28.7151 129.812 26.7485 130.72 24.5798C131.628 22.411 132.096 20.0833 132.096 17.7322C132.096 15.381 131.628 13.0533 130.72 10.8846C129.812 8.71581 128.482 6.74926 126.807 5.09934C125.132 3.44942 123.146 2.14909 120.963 1.27399C118.781 0.398902 116.447 -0.0334753 114.096 0.00202114C109.44 0.0723224 104.998 1.97124 101.731 5.28864C98.463 8.60605 96.6313 13.0757 96.6313 17.7322C96.6313 22.3887 98.463 26.8583 101.731 30.1757C104.998 33.4931 109.44 35.392 114.096 35.4623Z" fill="#FCC954"/>
<path d="M218.997 158.593C216.894 158.593 214.818 158.114 212.928 157.193C211.038 156.271 209.382 154.931 208.087 153.274C206.792 151.617 205.891 149.687 205.454 147.63C205.016 145.572 205.053 143.443 205.561 141.402C206.115 139.183 206.568 136.956 206.907 134.733C202.753 136.448 198.327 137.412 193.835 137.582C185.784 137.89 178.573 136.532 172.429 133.557C166.406 130.671 161.391 126.041 158.036 120.267C151.427 108.812 151.997 93.7431 159.479 81.8759C166.613 70.5462 178.694 64.4145 191.794 65.4169C201.883 66.2051 210.727 69.9843 217.808 76.4677C219.098 72.8299 220.335 68.9334 221.511 64.7863C228.746 39.2491 231.135 13.6068 231.155 13.3481C231.319 11.538 231.837 9.77792 232.681 8.1684C233.525 6.55887 234.678 5.13148 236.074 3.9678C237.47 2.80412 239.082 1.92698 240.817 1.38651C242.553 0.846035 244.377 0.652831 246.187 0.817938C249.842 1.15123 253.216 2.92236 255.565 5.74195C257.915 8.56154 259.049 12.1988 258.717 15.8541C258.616 17.002 256.07 44.342 248.136 72.3449C244.13 86.4837 239.397 98.4318 234.033 107.971C234.429 110.097 234.744 112.28 234.979 114.515C236.094 125.311 235.205 136.932 232.412 148.116C231.66 151.106 229.933 153.76 227.503 155.657C225.073 157.555 222.08 158.588 218.997 158.593ZM188.872 92.9832C187.441 92.9832 184.919 93.4036 182.89 96.621C180.946 99.705 180.566 103.917 182.009 106.419C183.929 109.745 189.575 110.036 192.772 109.915C196.402 109.778 200.121 107.502 203.759 103.355C203.151 102.087 202.434 100.873 201.616 99.7293C198.613 95.558 194.81 93.4238 189.644 93.0196C189.45 93.0075 189.187 92.9832 188.872 92.9832Z" fill="#2890E9"/>
<path d="M179.201 196.511C121.801 151.265 61.8056 131.661 45.1971 152.728C43.6344 154.732 42.4858 157.026 41.818 159.478C41.7169 159.773 41.636 160.084 41.5835 160.392V160.428C41.3612 161.374 41.1955 162.328 41.0864 163.298L8.58882 353.566C3.38275 384.123 33.633 408.59 62.4321 397.118L238.662 326.897C241.771 325.66 249.418 320.935 251.512 318.328C252.066 317.786 252.584 317.21 253.064 316.602C269.669 295.531 236.597 241.773 179.201 196.511Z" fill="#F0A420"/>
<path d="M253.043 316.611C269.66 295.532 236.6 241.762 179.2 196.512C121.8 151.262 61.7969 131.666 45.1803 152.745C28.5637 173.824 61.623 227.594 119.023 272.844C176.423 318.094 236.427 337.69 253.043 316.611Z" fill="#FCC954"/>
<path d="M243.023 304.335C256.656 287.035 226.62 240.617 175.93 200.658C125.239 160.695 73.0895 142.324 59.4559 159.62C45.8182 176.919 75.8543 223.338 126.545 263.297C177.235 303.26 229.385 321.634 243.023 304.335Z" fill="#F0A420"/>
<path d="M121.861 373.441C100.415 373.546 82.9329 362.81 61.7448 346.109C37.0888 326.667 20.7147 303.393 19.4212 290.14L12.4326 331.049C15.6662 342.722 26.6888 357.52 42.6748 370.122C55.9729 380.607 69.3882 387.806 83.2967 388.804L121.861 373.441ZM100.406 299.19C59.3237 266.797 32.6345 229.627 33.3863 208.366L26.5756 248.232C27.1011 267.222 49.2915 297.908 80.8594 322.795C109.145 345.094 138.619 360.789 161.19 357.77L199.504 342.5C168.635 344.634 136.065 327.31 100.406 299.19Z" fill="#2E6AC9"/>
<path d="M185.448 217.145C187.799 217.181 190.134 216.748 192.316 215.873C194.498 214.998 196.485 213.698 198.16 212.048C199.835 210.398 201.165 208.431 202.073 206.263C202.981 204.094 203.448 201.766 203.448 199.415C203.448 197.064 202.981 194.736 202.073 192.567C201.165 190.399 199.835 188.432 198.16 186.782C196.485 185.132 194.498 183.832 192.316 182.957C190.134 182.082 187.799 181.649 185.448 181.685C180.792 181.755 176.351 183.654 173.083 186.971C169.816 190.289 167.984 194.759 167.984 199.415C167.984 204.072 169.816 208.541 173.083 211.859C176.351 215.176 180.792 217.075 185.448 217.145Z" fill="#2890E9"/>
<path fill-rule="evenodd" clip-rule="evenodd" d="M281.075 182.647L281.204 182.502C281.366 182.328 281.665 182.009 282.098 181.572C282.971 180.699 284.373 179.357 286.289 177.74C291.617 173.28 297.441 169.447 303.645 166.318C318.807 158.646 341.381 152.385 370.989 159.212C375.261 160.197 379.749 159.445 383.466 157.121C385.307 155.97 386.903 154.468 388.163 152.7C389.423 150.933 390.323 148.934 390.811 146.819C391.299 144.704 391.365 142.513 391.006 140.372C390.647 138.231 389.87 136.182 388.72 134.342C387.569 132.501 386.067 130.905 384.299 129.645C382.532 128.385 380.533 127.485 378.418 126.997C340.092 118.161 309.619 126.241 288.714 136.827C280.226 141.111 272.26 146.359 264.976 152.47C262.789 154.306 260.684 156.238 258.666 158.258C257.883 159.045 257.118 159.851 256.374 160.675L256.197 160.877L256.132 160.95L256.104 160.982L256.091 160.994C256.087 161.002 256.079 161.01 268.61 171.786L256.079 161.01C253.29 164.336 251.92 168.624 252.265 172.951C252.61 177.277 254.643 181.295 257.924 184.135C261.206 186.976 265.473 188.412 269.805 188.134C274.136 187.855 278.184 185.885 281.075 182.647Z" fill="#FF37AD"/>
<path d="M117.325 64.7422C116.093 62.7841 114.485 61.0886 112.596 59.7527C110.707 58.4168 108.573 57.4669 106.316 56.9573C104.058 56.4478 101.723 56.3887 99.4431 56.7833C97.1632 57.178 94.9834 58.0187 93.029 59.2573C91.0731 60.4915 89.3796 62.0992 88.0453 63.9882C86.711 65.8773 85.762 68.0108 85.2526 70.2668C84.7433 72.5228 84.6835 74.8571 85.0766 77.1362C85.4698 79.4153 86.3082 81.5946 87.544 83.5496C88.1827 84.5722 101.283 105.797 103.975 134.863C106.715 164.393 98.0371 191.539 78.1465 215.88C84.844 224.392 92.9037 233.24 102.111 242.088C114.852 227.367 124.435 211.547 130.733 194.809C138.481 174.215 141.222 152.38 138.885 129.915C135.163 94.1759 119.613 68.3719 117.325 64.7422Z" fill="#FF37AD"/>
<path d="M337.708 234.401C346.693 236.725 353.043 239.259 355.787 240.439C358.995 242.408 362.744 243.306 366.495 243.004C370.246 242.703 373.804 241.217 376.656 238.762C378.545 237.13 380.069 235.118 381.128 232.857C382.188 230.596 382.759 228.138 382.804 225.642C382.867 221.879 381.733 218.194 379.564 215.119C377.395 212.044 374.304 209.739 370.739 208.536C362.327 204.801 330.46 192.19 288.335 194.429C259.98 195.937 232.713 203.791 207.297 217.796C183.231 231.058 160.883 249.849 140.596 273.822C150.275 280.71 160.357 287.012 170.79 292.694C205.046 253.653 244.568 232.489 288.606 229.692C305.118 228.689 321.686 230.278 337.708 234.401Z" fill="#2890E9"/>
</svg>
