<svg width="100" height="100" viewBox="0 0 100 100" fill="none" xmlns="http://www.w3.org/2000/svg">
<path fill-rule="evenodd" clip-rule="evenodd" d="M39.2602 0L8.61542 8.02502L0.17273 38.8401L10.7345 49.6841L0 60.3493L7.94767 91.3006L38.4576 99.8255L49.1921 89.1581L59.7539 100L90.3966 91.975L98.8393 61.1557L88.2796 50.3159L99.012 39.6507L91.0664 8.69944L60.5523 0.174457L49.822 10.8397L39.2602 0ZM20.4537 13.9523L36.5955 9.72278L43.6543 16.9691L33.36 27.1983L20.4537 13.9523ZM55.8886 17.067L63.0611 9.93979L79.1334 14.431L66.0164 27.4642L55.8886 17.067ZM9.84348 36.3104L14.2902 20.0796L27.1923 33.3255L16.9001 43.5547L9.84348 36.3104ZM72.083 33.6915L85.2 20.6561L89.3834 36.9615L82.213 44.0887L72.083 33.6915ZM39.4287 33.4255L49.723 23.1964L59.8487 33.5936L49.5566 43.8227L39.4287 33.4255ZM22.9688 49.7819L33.261 39.5528L43.391 49.95L33.0967 60.1791L22.9688 49.7819ZM55.6253 50.05L65.9174 39.8209L76.0453 50.2181L65.751 60.4472L55.6253 50.05ZM9.62862 63.0385L16.8032 55.9092L26.929 66.3085L13.8163 79.3396L9.62862 63.0385ZM39.1633 66.4064L49.4576 56.1773L59.5854 66.5745L49.2932 76.8036L39.1633 66.4064ZM71.8176 66.6745L82.1119 56.4453L89.1706 63.6895L84.7239 79.9204L71.8176 66.6745ZM19.8808 85.569L32.9956 72.5337L43.1255 82.9309L35.953 90.0602L19.8808 85.569ZM55.3599 83.0309L65.652 72.8017L78.5562 86.0477L62.4165 90.2751L55.3599 83.0309Z" fill="#111111"/>
</svg>
