<svg width="24" height="25" viewBox="0 0 24 25" fill="none" xmlns="http://www.w3.org/2000/svg">
<g clip-path="url(#clip0)">
<path fill-rule="evenodd" clip-rule="evenodd" d="M20.0111 19.038L9.16408 22.225C9.08913 22.2482 9.00945 22.2516 8.9328 22.2348C8.85615 22.218 8.78515 22.1817 8.72673 22.1293C8.66832 22.0769 8.62447 22.0103 8.59947 21.9359C8.57446 21.8616 8.56916 21.782 8.58408 21.705L12.4611 3.26796C12.5341 2.92296 13.0131 2.86796 13.1651 3.18796L20.3381 18.326C20.3697 18.3936 20.3863 18.4673 20.3866 18.5419C20.3869 18.6166 20.3709 18.6904 20.3398 18.7582C20.3087 18.8261 20.2632 18.8864 20.2064 18.9348C20.1496 18.9833 20.083 19.0178 20.0111 19.038ZM21.8711 18.286L13.5631 0.75796C13.4593 0.541475 13.2989 0.357045 13.099 0.224153C12.899 0.0912603 12.6669 0.0148385 12.4271 0.00295972C12.187 -0.0131405 11.9472 0.0366657 11.7334 0.146996C11.5196 0.257326 11.34 0.423984 11.2141 0.62896L2.20508 15.129C1.92608 15.58 1.93208 16.137 2.22108 16.584L6.62508 23.362C6.79252 23.6168 7.03757 23.8109 7.32395 23.9155C7.61033 24.0202 7.9228 24.0298 8.21508 23.943L20.9971 20.187C21.3891 20.071 21.7091 19.797 21.8771 19.431C21.9595 19.2511 22.0015 19.0554 22.0001 18.8576C21.9987 18.6598 21.954 18.4646 21.8691 18.286H21.8711Z" fill="black"/>
</g>
<defs>
<clipPath id="clip0">
<rect width="24" height="24.0017" fill="white"/>
</clipPath>
</defs>
</svg>
