<svg width="400" height="400" viewBox="0 0 400 400" fill="none" xmlns="http://www.w3.org/2000/svg">
<path d="M383.959 160.02H255.973C253.863 160.033 251.772 159.628 249.82 158.827C247.869 158.026 246.096 156.845 244.604 155.354C243.112 153.863 241.932 152.09 241.131 150.139C240.329 148.188 239.924 146.097 239.937 143.988V16.0324C239.937 13.9317 239.522 11.8518 238.714 9.91227C237.907 7.97277 236.725 6.212 235.234 4.73127C233.744 3.25055 231.975 2.07911 230.03 1.28438C228.085 0.489643 226.002 0.0873056 223.901 0.100517H175.994C173.893 0.0873056 171.81 0.489643 169.865 1.28438C167.92 2.07911 166.151 3.25055 164.661 4.73127C163.171 6.212 161.988 7.97277 161.181 9.91227C160.374 11.8518 159.958 13.9317 159.958 16.0324V143.988C159.971 146.097 159.566 148.188 158.765 150.139C157.963 152.09 156.783 153.863 155.291 155.354C153.799 156.845 152.026 158.026 150.075 158.827C148.123 159.628 146.032 160.033 143.922 160.02H96.0151C93.9055 160.033 91.8143 159.628 89.8627 158.827C87.9111 158.026 86.1381 156.845 84.6463 155.354C83.1546 153.863 81.9739 152.09 81.1727 150.139C80.3716 148.188 79.9659 146.097 79.9792 143.988V16.0324C79.9925 13.9233 79.5868 11.8326 78.7856 9.88145C77.9845 7.93035 76.8038 6.1577 75.3121 4.66633C73.8203 3.17496 72.0473 1.99455 70.0957 1.19358C68.1441 0.392606 66.0529 -0.0129897 63.9433 0.000317123H15.936C13.8348 0.000275577 11.7544 0.415662 9.81442 1.22257C7.87445 2.02948 6.11325 3.21198 4.63218 4.70201C3.1511 6.19205 1.97938 7.96021 1.18446 9.90473C0.389536 11.8493 -0.0128976 13.9317 0.000317199 16.0324V383.968C-0.0129928 386.077 0.3927 388.167 1.19386 390.119C1.99503 392.07 3.17572 393.842 4.66744 395.334C6.15917 396.825 7.93224 398.005 9.88381 398.806C11.8354 399.607 13.9266 400.013 16.0362 400H383.959C386.069 400.013 388.16 399.607 390.111 398.806C392.063 398.005 393.836 396.825 395.328 395.334C396.82 393.842 398 392.07 398.801 390.119C399.603 388.167 400.008 386.077 399.995 383.968V176.353C400.049 174.219 399.673 172.095 398.89 170.109C398.107 168.123 396.933 166.315 395.437 164.791C393.941 163.268 392.154 162.06 390.182 161.241C388.211 160.421 386.094 160.006 383.959 160.02ZM319.615 295.892C319.628 299.045 319.019 302.17 317.821 305.087C316.623 308.004 314.86 310.656 312.635 312.89C310.409 315.125 307.764 316.897 304.851 318.107C301.939 319.317 298.816 319.94 295.662 319.94H263.59C260.436 319.94 257.313 319.317 254.4 318.107C251.487 316.897 248.842 315.125 246.617 312.89C244.391 310.656 242.629 308.004 241.431 305.087C240.233 302.17 239.623 299.045 239.636 295.892V263.928C239.623 260.774 240.233 257.65 241.431 254.733C242.629 251.815 244.391 249.164 246.617 246.929C248.842 244.695 251.487 242.922 254.4 241.712C257.313 240.502 260.436 239.88 263.59 239.88H295.662C298.816 239.88 301.939 240.502 304.851 241.712C307.764 242.922 310.409 244.695 312.635 246.929C314.86 249.164 316.623 251.815 317.821 254.733C319.019 257.65 319.628 260.774 319.615 263.928V295.892Z" fill="#FF6600"/>
</svg>
