<svg width="400" height="400" viewBox="0 0 400 400" fill="none" xmlns="http://www.w3.org/2000/svg">
<g clip-path="url(#clip0_1104_304)">
<path d="M1.85781 171.162C0.904926 177.841 0.284889 184.563 0 191.303H303.828C302.767 189.23 301.341 187.361 299.904 185.533C247.963 118.427 220.022 124.245 180.053 122.54C166.727 121.992 157.69 121.772 104.648 121.772C76.2582 121.772 45.3945 121.844 15.3398 121.924C11.4492 132.426 7.69688 142.605 5.86992 150.885H161.562V171.162H1.85781ZM306.223 211.6H0.155859C0.476172 217.011 0.980859 222.349 1.70977 227.615H284.284C296.881 227.615 303.932 220.468 306.222 211.6H306.223ZM17.5848 282.932C17.5848 282.932 64.4301 397.957 199.789 400C280.692 400 350.207 351.951 381.784 282.932H17.5848Z" fill="black"/>
<path d="M199.787 0C124.982 0 59.8871 41.0781 25.5117 101.802C52.3754 101.745 104.693 101.713 104.693 101.713H104.705V101.693C166.545 101.693 168.843 101.97 180.923 102.474L188.403 102.75C214.458 103.618 246.482 106.415 271.68 125.48C285.358 135.82 305.107 158.643 316.879 174.902C327.762 189.941 330.893 207.229 323.493 223.792C316.682 239.014 302.028 248.095 284.281 248.095H6.51953C6.51953 248.095 8.17305 255.104 10.6523 262.841H389.805C396.539 242.602 399.981 221.414 400 200.085C400.004 89.5918 310.364 0 199.787 0Z" fill="black"/>
</g>
<defs>
<clipPath id="clip0_1104_304">
<rect width="400" height="400" fill="white"/>
</clipPath>
</defs>
</svg>
