<svg width="400" height="400" viewBox="0 0 400 400" fill="none" xmlns="http://www.w3.org/2000/svg">
<g clip-path="url(#clip0_1101_220)">
<circle cx="200" cy="200" r="200" fill="#252525"/>
<path fill-rule="evenodd" clip-rule="evenodd" d="M189.601 46.668C168.593 54.7396 164.144 84.4553 181.778 98.9146C187.981 104.002 195.818 106.477 210.673 108.039C229.387 110.008 233.367 113.192 236.555 128.75C241.188 151.366 233.853 161.933 212.067 164.034C206.472 164.574 199.501 165.607 196.577 166.333C159.201 175.597 163.715 227.801 201.894 227.801C220.542 227.801 230.962 217.115 235.961 192.867C239.874 173.887 242.946 171.129 262.475 169.075C289.436 166.24 301.175 157.067 302.047 138.156C303.045 116.525 290.599 105.843 261.081 102.998C242.347 101.19 238.758 97.9824 235.658 80.2641C230.623 51.4825 212.146 38.0054 189.601 46.668ZM124.564 106.951C98.9988 116.49 96.9337 151.244 121.163 164.181C127.614 167.625 142.743 167.306 149.461 163.585C170.905 151.705 170.905 120.655 149.461 108.946C143.626 105.76 130.562 104.714 124.564 106.951ZM52.4295 167.988C26.8644 177.527 24.7993 212.281 49.029 225.218C55.4795 228.662 70.6083 228.343 77.327 224.622C98.7704 212.742 98.7704 181.692 77.327 169.983C71.4915 166.797 58.4278 165.751 52.4295 167.988ZM328.02 167.988C302.455 177.527 300.39 212.281 324.62 225.218C331.07 228.662 346.199 228.343 352.917 224.622C374.361 212.742 374.361 181.692 352.917 169.983C347.082 166.797 334.018 165.751 328.02 167.988Z" fill="#FF8080"/>
<path fill-rule="evenodd" clip-rule="evenodd" d="M189.601 46.6154C168.651 54.8924 164.214 84.535 181.772 98.9147C187.968 103.989 195.819 106.477 210.526 108.024C229.95 110.067 233.271 112.729 236.588 128.913C238.094 136.269 238.124 137.679 236.912 144.655C234.434 158.943 230.103 162.142 210.217 164.379C203.605 165.122 196.095 166.371 193.529 167.152C158.816 177.727 165.722 227.801 201.894 227.801C221.308 227.801 231.112 217.221 236.487 190.471C239.776 174.102 243.472 171.075 262.635 169.059C289.538 166.229 301.284 156.892 302.083 137.701C302.97 116.423 290.462 105.946 260.619 102.97C242.357 101.148 238.72 97.8373 235.68 80.2643C232.531 62.0679 226.848 52.8338 215.374 47.2729C209.192 44.2766 196.347 43.9492 189.601 46.6154ZM124.564 106.951C98.9988 116.491 96.9337 151.245 121.163 164.182C127.614 167.626 142.743 167.306 149.461 163.585C170.905 151.705 170.905 120.655 149.461 108.946C143.626 105.76 130.562 104.714 124.564 106.951ZM52.4295 167.988C26.8644 177.527 24.7993 212.281 49.029 225.218C55.4795 228.662 70.6083 228.343 77.327 224.622C98.7704 212.742 98.7704 181.692 77.327 169.983C71.4915 166.797 58.4278 165.751 52.4295 167.988ZM328.02 167.988C302.455 177.527 300.39 212.281 324.62 225.218C331.07 228.662 346.199 228.343 352.917 224.622C374.361 212.742 374.361 181.692 352.917 169.983C347.082 166.797 334.018 165.751 328.02 167.988Z" fill="#DF6060"/>
<path fill-rule="evenodd" clip-rule="evenodd" d="M190.399 46.5101C165.753 55.6379 164.211 92.2109 188.022 102.908C194.526 105.83 197.932 106.602 210.399 107.98C230.045 110.151 233.272 112.731 236.588 128.913C238.094 136.269 238.124 137.679 236.912 144.655C234.434 158.943 230.103 162.142 210.217 164.379C203.605 165.122 196.095 166.371 193.529 167.152C158.637 177.782 165.87 227.801 202.299 227.801C221.208 227.801 231.173 216.92 236.487 190.471C239.777 174.098 243.378 171.157 262.762 169.017C290.737 165.929 301.772 156.677 301.772 136.312C301.772 115.283 290.219 105.922 260.619 102.97C243.032 101.216 238.62 97.5433 236.079 82.5458C232.643 62.2677 227.305 53.0512 215.755 47.4598C209.301 44.3359 197.467 43.892 190.399 46.5101ZM124.564 106.951C98.9988 116.491 96.9337 151.245 121.163 164.182C127.614 167.626 142.743 167.307 149.461 163.585C170.905 151.705 170.905 120.655 149.461 108.946C143.626 105.76 130.562 104.714 124.564 106.951ZM52.4295 167.988C26.8644 177.527 24.7993 212.281 49.029 225.218C55.4795 228.662 70.6083 228.343 77.327 224.622C98.7704 212.742 98.7704 181.692 77.327 169.983C71.4915 166.797 58.4278 165.751 52.4295 167.988ZM328.02 167.988C302.455 177.527 300.39 212.281 324.62 225.218C331.07 228.662 346.199 228.343 352.917 224.622C374.361 212.742 374.361 181.692 352.917 169.983C347.082 166.797 334.018 165.751 328.02 167.988Z" fill="#D84E4E"/>
<path fill-rule="evenodd" clip-rule="evenodd" d="M192.184 45.9377C185.228 48.6732 184.202 49.242 180.624 52.3502C167.957 63.3516 167.85 86.1165 180.409 97.7034C186.892 103.684 194.25 106.171 210.969 108.033C231.062 110.271 238.007 117.949 237.807 137.707C237.619 156.233 231.849 161.897 210.68 164.339C181.748 167.676 169.941 178.147 171.071 199.467C173.087 237.492 225.686 237.498 234.339 199.476C235.134 195.981 236.402 190.416 237.157 187.11C240.095 174.232 244.563 171.03 262.357 169.054C290.548 165.926 301.772 156.602 301.772 136.312C301.772 115.113 290.562 106.126 260.166 102.962C241.743 101.043 237.836 97.142 235.152 77.9838C233.085 63.2286 226.239 52.5352 215.548 47.36C210.111 44.728 197.25 43.9447 192.184 45.9377ZM124.564 106.951C98.9988 116.491 96.9337 151.245 121.163 164.182C127.614 167.626 142.743 167.307 149.461 163.585C170.905 151.705 170.905 120.655 149.461 108.946C143.626 105.76 130.562 104.714 124.564 106.951ZM52.4295 167.988C26.8644 177.527 24.7993 212.281 49.029 225.219C55.4795 228.662 70.6083 228.343 77.327 224.622C98.7704 212.742 98.7704 181.692 77.327 169.983C71.4915 166.797 58.4278 165.751 52.4295 167.988ZM328.02 167.988C302.455 177.527 300.39 212.281 324.62 225.219C331.07 228.662 346.199 228.343 352.917 224.622C374.361 212.742 374.361 181.692 352.917 169.983C347.082 166.797 334.018 165.751 328.02 167.988Z" fill="#D45555"/>
<path fill-rule="evenodd" clip-rule="evenodd" d="M192.184 45.991C185.549 48.4898 184.237 49.2121 180.624 52.3499C167.937 63.3699 167.821 85.7639 180.389 97.5246C186.934 103.649 196.21 106.815 211.142 108.021C228.887 109.454 233.657 113.487 236.96 129.85C241.237 151.033 233.738 161.809 213.22 163.971C182.803 167.178 171.376 176.274 171.376 197.283C171.376 216.269 182.503 227.214 201.894 227.298C219.34 227.375 230.087 218.159 234.339 199.475C235.134 195.981 236.402 190.416 237.157 187.11C240.11 174.164 245.269 170.419 262.006 169.073C289.416 166.868 301.772 156.667 301.772 136.246C301.772 115.181 290.503 106.119 260.414 102.987C241.431 101.013 238.41 98.0859 235.226 78.5939C231.045 53.0056 211.954 38.5445 192.184 45.991ZM124.564 106.951C98.9988 116.49 96.9337 151.244 121.163 164.181C127.614 167.625 142.743 167.306 149.461 163.585C170.905 151.705 170.905 120.655 149.461 108.946C143.626 105.76 130.562 104.714 124.564 106.951ZM52.4295 167.988C26.8644 177.527 24.7993 212.281 49.029 225.218C55.4795 228.662 70.6083 228.343 77.327 224.622C98.7704 212.742 98.7704 181.692 77.327 169.983C71.4915 166.797 58.4278 165.751 52.4295 167.988ZM328.02 167.988C302.455 177.527 300.39 212.281 324.62 225.218C331.07 228.662 346.199 228.343 352.917 224.622C374.361 212.742 374.361 181.692 352.917 169.983C347.082 166.797 334.018 165.751 328.02 167.988Z" fill="#D74351"/>
<path fill-rule="evenodd" clip-rule="evenodd" d="M192.184 45.9911C185.549 48.4899 184.237 49.2122 180.624 52.35C171.223 60.5151 168.112 76.0684 173.552 87.6959C179.56 100.533 190.294 106.337 211.142 108.021C229.178 109.477 233.519 113.15 236.94 129.85C241.267 150.977 233.787 161.753 213.241 163.99C182.667 167.318 171.455 176.24 171.399 197.283C171.349 216.247 182.49 227.214 201.894 227.298C221.559 227.384 231.168 217.393 236.097 191.734C239.426 174.403 243.878 170.509 262.006 169.066C289.106 166.911 301.772 156.458 301.772 136.246C301.772 115.082 290.742 106.31 259.907 102.953C241.375 100.935 238.607 98.2072 235.187 78.594C230.664 52.657 212.018 38.5205 192.184 45.9911ZM124.564 106.951C98.9988 116.49 96.9337 151.244 121.163 164.181C127.614 167.625 142.743 167.306 149.461 163.585C170.905 151.705 170.905 120.655 149.461 108.946C143.626 105.76 130.562 104.714 124.564 106.951ZM52.4295 167.988C26.8644 177.527 24.7993 212.281 49.029 225.218C55.4795 228.662 70.6083 228.343 77.327 224.622C98.7704 212.742 98.7704 181.692 77.327 169.983C71.4915 166.797 58.4278 165.751 52.4295 167.988ZM328.02 167.988C302.455 177.527 300.39 212.281 324.62 225.218C331.07 228.662 346.199 228.343 352.917 224.622C374.361 212.742 374.361 181.692 352.917 169.983C347.082 166.797 334.018 165.751 328.02 167.988Z" fill="#CC4D4D"/>
<path fill-rule="evenodd" clip-rule="evenodd" d="M192.184 45.9911C185.633 48.4585 184.244 49.2547 180.447 52.7163C171.056 61.2799 168.134 76.2682 173.602 87.8272C179.54 100.377 191.118 106.535 211.604 108.04C232.234 109.555 241.019 122.064 237.124 144.375C234.481 159.515 231.184 162.005 210.616 164.391C203.784 165.184 196.738 166.247 194.958 166.752C159.065 176.95 164.814 227.136 201.894 227.298C221.563 227.384 231.331 217.111 236.151 191.272C239.248 174.672 244.184 170.357 261.544 169.073C288.941 167.045 302.962 155.29 302.098 135.075C301.261 115.496 290.016 106.462 262.691 103.414C241.246 101.022 238.428 98.5521 235.255 79.3681C230.914 53.1195 212.057 38.5058 192.184 45.9911ZM124.564 106.951C98.9988 116.49 96.9337 151.245 121.163 164.182C127.614 167.625 142.743 167.306 149.461 163.585C170.905 151.705 170.905 120.655 149.461 108.946C143.626 105.76 130.562 104.714 124.564 106.951ZM52.4295 167.988C26.8644 177.527 24.7993 212.281 49.029 225.218C55.4795 228.662 70.6083 228.343 77.327 224.622C98.7704 212.742 98.7704 181.692 77.327 169.983C71.4915 166.797 58.4278 165.751 52.4295 167.988ZM328.02 167.988C302.455 177.527 300.39 212.281 324.62 225.218C331.07 228.662 346.199 228.343 352.917 224.622C374.361 212.742 374.361 181.692 352.917 169.983C347.082 166.797 334.018 165.751 328.02 167.988Z" fill="#CA4245"/>
<path fill-rule="evenodd" clip-rule="evenodd" d="M124.564 106.951C98.9988 116.491 96.9337 151.245 121.163 164.182C127.614 167.626 142.743 167.307 149.461 163.585C170.905 151.705 170.905 120.655 149.461 108.946C143.626 105.76 130.562 104.714 124.564 106.951ZM52.4295 167.988C26.8644 177.528 24.7993 212.281 49.029 225.219C55.4795 228.662 70.6083 228.343 77.327 224.622C98.7704 212.742 98.7704 181.692 77.327 169.983C71.4915 166.797 58.4278 165.751 52.4295 167.988ZM328.02 167.988C302.455 177.528 300.39 212.281 324.62 225.219C331.07 228.662 346.199 228.343 352.917 224.622C374.361 212.742 374.361 181.692 352.917 169.983C347.082 166.797 334.018 165.751 328.02 167.988Z" fill="white"/>
</g>
<defs>
<clipPath id="clip0_1101_220">
<rect width="400" height="400" fill="white"/>
</clipPath>
</defs>
</svg>
