<svg width="76" height="76" viewBox="0 0 76 76" fill="none" xmlns="http://www.w3.org/2000/svg">
<rect width="76" height="76" rx="12" fill="#EC5990"/>
<path d="M54.9591 12.1815H44.0921C43.7038 10.9675 42.9392 9.90828 41.9087 9.15667C40.8782 8.40505 39.6352 8 38.3591 8C37.0831 8 35.84 8.40505 34.8095 9.15667C33.779 9.90828 33.0144 10.9675 32.6261 12.1815H21.7521C19.6961 12.1815 17.7243 12.9971 16.2705 14.449C14.8167 15.9009 14 17.87 14 19.9233V60.2582C14 62.3114 14.8167 64.2806 16.2705 65.7325C17.7243 67.1843 19.6961 68 21.7521 68H54.9591C57.0151 68 58.9869 67.1843 60.4407 65.7325C61.8945 64.2806 62.7112 62.3114 62.7112 60.2582V19.9233C62.7112 17.87 61.8945 15.9009 60.4407 14.449C58.9869 12.9971 57.0151 12.1815 54.9591 12.1815ZM33.1688 13.5891C33.3326 13.5927 33.4927 13.5392 33.6213 13.4377C33.7499 13.3362 33.8391 13.1931 33.8735 13.0331C34.0975 12.0067 34.6663 11.0877 35.4855 10.4287C36.3046 9.7697 37.3249 9.41037 38.3767 9.41037C39.4286 9.41037 40.4489 9.7697 41.268 10.4287C42.0872 11.0877 42.656 12.0067 42.88 13.0331C42.9144 13.1931 43.0036 13.3362 43.1322 13.4377C43.2608 13.5392 43.4208 13.5927 43.5847 13.5891H47.3762V18.199C47.3762 18.759 47.1535 19.296 46.757 19.692C46.3605 20.0879 45.8227 20.3104 45.262 20.3104H31.4844C30.9237 20.3104 30.386 20.0879 29.9895 19.692C29.593 19.296 29.3702 18.759 29.3702 18.199V13.5891H33.1688ZM61.3017 60.2582C61.3017 61.9381 60.6335 63.5493 59.444 64.7371C58.2546 65.925 56.6413 66.5924 54.9591 66.5924H21.7521C20.0699 66.5924 18.4566 65.925 17.2672 64.7371C16.0777 63.5493 15.4095 61.9381 15.4095 60.2582V19.9233C15.4095 18.2434 16.0777 16.6322 17.2672 15.4443C18.4566 14.2564 20.0699 13.5891 21.7521 13.5891H27.9608V18.199C27.9608 19.1323 28.332 20.0274 28.9928 20.6873C29.6537 21.3472 30.5499 21.718 31.4844 21.718H45.2268C46.1613 21.718 47.0576 21.3472 47.7184 20.6873C48.3792 20.0274 48.7504 19.1323 48.7504 18.199V13.5891H54.9591C56.6413 13.5891 58.2546 14.2564 59.444 15.4443C60.6335 16.6322 61.3017 18.2434 61.3017 19.9233V60.2582Z" fill="white"/>
<path d="M53.578 35.125H41.1747C40.9878 35.125 40.8085 35.1992 40.6764 35.3311C40.5442 35.4631 40.47 35.6421 40.47 35.8288C40.47 36.0155 40.5442 36.1945 40.6764 36.3265C40.8085 36.4585 40.9878 36.5326 41.1747 36.5326H53.578C53.7649 36.5326 53.9442 36.4585 54.0763 36.3265C54.2085 36.1945 54.2828 36.0155 54.2828 35.8288C54.2828 35.6421 54.2085 35.4631 54.0763 35.3311C53.9442 35.1992 53.7649 35.125 53.578 35.125Z" fill="white"/>
<path d="M53.578 35.125H41.1747C40.9878 35.125 40.8085 35.1992 40.6764 35.3311C40.5442 35.4631 40.47 35.6421 40.47 35.8288C40.47 36.0155 40.5442 36.1945 40.6764 36.3265C40.8085 36.4585 40.9878 36.5326 41.1747 36.5326H53.578C53.7649 36.5326 53.9442 36.4585 54.0763 36.3265C54.2085 36.1945 54.2828 36.0155 54.2828 35.8288C54.2828 35.6421 54.2085 35.4631 54.0763 35.3311C53.9442 35.1992 53.7649 35.125 53.578 35.125Z" fill="white"/>
<path d="M53.2253 51.7139H40.7868C40.5999 51.7139 40.4206 51.788 40.2884 51.92C40.1563 52.052 40.082 52.231 40.082 52.4177C40.082 52.6043 40.1563 52.7833 40.2884 52.9153C40.4206 53.0473 40.5999 53.1215 40.7868 53.1215H53.2253C53.4122 53.1215 53.5915 53.0473 53.7236 52.9153C53.8558 52.7833 53.9301 52.6043 53.9301 52.4177C53.9301 52.231 53.8558 52.052 53.7236 51.92C53.5915 51.788 53.4122 51.7139 53.2253 51.7139Z" fill="white"/>
<path d="M53.2253 51.7139H40.7868C40.5999 51.7139 40.4206 51.788 40.2884 51.92C40.1563 52.052 40.082 52.231 40.082 52.4177C40.082 52.6043 40.1563 52.7833 40.2884 52.9153C40.4206 53.0473 40.5999 53.1215 40.7868 53.1215H53.2253C53.4122 53.1215 53.5915 53.0473 53.7236 52.9153C53.8558 52.7833 53.9301 52.6043 53.9301 52.4177C53.9301 52.231 53.8558 52.052 53.7236 51.92C53.5915 51.788 53.4122 51.7139 53.2253 51.7139Z" fill="white"/>
</svg>
