<svg width="400" height="400" viewBox="0 0 400 400" fill="none" xmlns="http://www.w3.org/2000/svg">
<g clip-path="url(#clip0_1106_216)">
<path d="M309.496 159.088C298.105 155.507 292.223 156.714 280.276 155.409C261.807 153.394 254.448 146.176 251.327 127.598C249.58 117.228 251.643 102.043 247.183 92.6428C238.655 74.7181 218.699 66.679 198.65 71.2674C181.723 75.1471 167.639 92.0646 166.858 109.43C165.966 129.257 177.264 146.174 196.662 152.013C205.878 154.792 215.67 156.191 225.295 156.9C242.947 158.186 244.303 167.999 249.079 176.075C252.089 181.167 255.006 186.185 255.006 201.368C255.006 216.551 252.07 221.568 249.079 226.66C244.303 234.718 238.413 239.996 220.762 241.302C211.136 242.011 201.326 243.41 192.128 246.189C172.73 252.046 161.433 268.944 162.325 288.771C163.105 306.137 177.189 323.054 194.116 326.934C214.165 331.541 234.121 323.483 242.65 305.559C247.128 296.158 249.58 285.508 251.327 275.137C254.467 256.559 261.825 249.341 280.276 247.326C292.223 246.021 304.588 247.326 315.784 240.966C327.615 232.322 338.185 219.348 338.185 201.368C338.185 183.387 326.794 164.534 309.496 159.088Z" fill="#F44250"/>
<path d="M119.999 243.506C96.7171 243.506 77.7261 224.48 77.7261 201.154C77.7261 177.829 96.7171 158.803 119.999 158.803C143.281 158.803 162.272 177.829 162.272 201.154C162.272 224.461 143.262 243.506 119.999 243.506Z" fill="#121212"/>
<path d="M42.1234 329.574C18.8792 329.518 -0.0557183 310.417 0.000123196 287.073C0.0562123 263.767 19.1217 244.797 42.4219 244.871C65.6847 244.928 84.6196 264.029 84.5451 287.372C84.4889 310.66 65.4234 329.63 42.1234 329.574Z" fill="#121212"/>
<path d="M356.229 329.574C332.91 329.704 313.771 310.809 313.639 287.54C313.51 264.179 332.37 245.003 355.594 244.872C378.913 244.742 398.053 263.637 398.184 286.905C398.313 310.248 379.454 329.442 356.229 329.574Z" fill="#121212"/>
</g>
<defs>
<clipPath id="clip0_1106_216">
<rect width="400" height="259.574" fill="white" transform="translate(0 70)"/>
</clipPath>
</defs>
</svg>
