<svg width="100" height="100" viewBox="0 0 100 100" fill="none" xmlns="http://www.w3.org/2000/svg">
<path d="M39.7915 43.5843C40.5346 43.429 41.2998 43.3181 42.065 43.2516L48.0093 42.686L39.9357 33.836C37.507 31.1633 36.165 27.7032 36.165 24.0878H29.4888C29.4888 29.3667 31.4517 34.4349 35.0117 38.3386L39.7915 43.5843Z" fill="#1C1E21"/>
<path d="M60.6407 56.5487C60.0419 56.6596 59.4319 56.7372 58.8219 56.8038L52.3896 57.4137L60.4411 66.2415C62.8699 68.9142 64.2118 72.3744 64.2118 75.9898H70.8991C70.8991 70.7108 68.9362 65.6537 65.3762 61.7389L60.6407 56.5487Z" fill="#1C1E21"/>
<path d="M71.6978 36.9302C70.5999 31.4739 66.3191 27.5036 60.7962 26.8049L59.7759 26.6718C56.3269 26.2393 53.7207 23.2893 53.7207 19.8181V16.2582C56.7816 14.9828 58.933 11.9663 58.933 8.4507C58.933 3.78175 55.1513 0 50.4823 0C45.8134 0 42.0316 3.78175 42.0316 8.4507C42.0316 11.8887 44.0944 14.8497 47.0444 16.1695V19.8181C47.0444 26.6608 52.157 32.4609 58.9441 33.3038L59.9644 33.4368C63.1473 33.8361 64.7332 36.1872 65.1546 38.25C65.5761 40.3127 65.0326 43.0964 62.249 44.7044C60.8849 45.4918 59.4099 45.9687 57.8462 46.1129L42.5085 47.5546C39.98 47.7986 37.5845 48.5638 35.3886 49.8281C30.5644 52.6228 28.1578 57.9461 29.2669 63.4025C30.3648 68.8588 34.6456 72.8291 40.1685 73.5278L41.1888 73.6609C44.6378 74.0934 47.244 77.0434 47.244 80.5146V83.7529C44.1942 85.0283 42.0538 88.0448 42.0538 91.5493C42.0538 96.2183 45.8356 100 50.5045 100C55.1735 100 58.9552 96.2183 58.9552 91.5493C58.9552 88.1003 56.8814 85.1281 53.9203 83.8195V80.5146C53.9203 73.672 48.8077 67.8718 42.0205 67.0289L41.0003 66.8959C37.8174 66.4966 36.2315 64.1455 35.8101 62.0827C35.3886 60.02 35.932 57.2363 38.7157 55.6283C40.0798 54.8409 41.5548 54.364 43.1185 54.2198L58.4562 52.7781C60.9847 52.5341 63.3802 51.7689 65.5761 50.5046C70.4003 47.7099 72.7957 42.3866 71.6978 36.9302Z" fill="#1C1E21"/>
</svg>
