<svg width="100" height="100" viewBox="0 0 100 100" fill="none" xmlns="http://www.w3.org/2000/svg">
<path fill-rule="evenodd" clip-rule="evenodd" d="M90.1366 77.118C91.0373 88.6721 91.0373 94.0882 91.0373 100H64.2847C64.2847 98.7124 64.3076 97.5342 64.3309 96.3397C64.4034 92.6261 64.4789 88.754 63.8768 80.9342C63.0811 69.4857 58.1474 66.9416 49.0757 66.9416H41.0386H7V46.1118H50.3489C61.8079 46.1118 67.5373 42.6286 67.5373 33.4062C67.5373 25.2969 61.8079 20.3826 50.3489 20.3826H7V0H55.1235C81.0652 0 93.9565 12.2435 93.9565 31.8012C93.9565 46.4298 84.8851 55.9702 72.6304 57.5602C82.9752 59.6273 89.023 65.5106 90.1366 77.118Z" fill="black"/>
<path d="M7 100V84.472H35.2867C40.0116 84.472 41.0375 87.9739 41.0375 90.0621V100H7Z" fill="black"/>
</svg>
