<svg width="392" height="392" viewBox="0 0 392 392" fill="none" xmlns="http://www.w3.org/2000/svg">
<path fill-rule="evenodd" clip-rule="evenodd" d="M175.982 0.542853C153.382 2.80985 129.673 9.73385 108.513 20.2459C50.6395 48.9969 11.1125 103.444 1.46047 167.704C-0.504531 180.787 -0.482531 210.434 1.50147 223.815C9.88847 280.363 41.5925 329.451 89.9825 360.812C111.542 374.785 137.64 384.716 165.982 389.731C177.478 391.765 214.922 391.463 227.2 389.237C247.596 385.541 262.558 380.785 279.769 372.53C299.422 363.103 314.824 352.466 330.384 337.577C355.491 313.552 372.91 285.489 382.846 253.058C397.445 205.404 393.224 152.971 371.257 109.131C342.379 51.4979 289.365 12.4289 225.982 2.07185C214.48 0.192853 187.649 -0.628147 175.982 0.542853ZM189.533 71.6089L216.598 98.6599L206.769 108.317L196.941 117.973L188.587 109.662L180.233 101.351L171.107 110.433C166.088 115.428 161.982 119.853 161.982 120.266C161.982 120.679 165.578 124.631 169.974 129.05L177.966 137.084L139.934 175.071L101.901 213.058L85.3705 196.074C76.2775 186.732 68.3435 178.493 67.7395 177.765C66.8865 176.738 68.6345 174.438 75.5405 167.5C80.4355 162.582 84.8915 158.558 85.4425 158.558C85.9935 158.558 90.5325 162.628 95.5275 167.603L104.609 176.647L113.77 167.353L122.932 158.058L104.457 139.548C94.2965 129.368 85.9825 120.584 85.9825 120.028C85.9825 119.471 90.0345 114.983 94.9885 110.053L103.993 101.089L122.983 120.059L141.972 139.028L151.478 129.562L160.983 120.097L151.982 111.058C147.032 106.088 142.982 101.587 142.982 101.058C142.982 100.529 147.081 95.9789 152.092 90.9479L161.202 81.7999L152.092 72.8269C147.081 67.8929 142.982 63.4599 142.982 62.9759C142.982 61.7429 160.217 44.5579 161.454 44.5579C162.012 44.5579 174.648 56.7309 189.533 71.6089ZM113.878 72.6699L123.245 81.7819L113.62 91.4069L103.995 101.032L94.4885 91.5639L84.9815 82.0969L94.2125 72.8269C99.2895 67.7289 103.683 63.5579 103.977 63.5579C104.27 63.5579 108.726 67.6579 113.878 72.6699ZM265.482 102.668C268.595 103.523 272.437 106.68 282.817 116.912C290.151 124.142 297.013 131.728 298.067 133.768C300.532 138.543 300.525 145.595 298.05 150.348C296.988 152.388 282.138 168.005 265.05 185.052C240.959 209.086 233.982 216.603 233.982 218.528C233.982 220.269 236.118 223.161 241.13 228.207L248.278 235.403L251.865 233.481C256.169 231.174 262.991 230.994 267.368 233.071C269.122 233.903 282.765 246.841 297.686 261.821C320.921 285.149 324.973 289.658 325.919 293.24C327.224 298.184 326.084 304.61 323.322 307.88C318.895 313.121 313.218 318.459 309.982 320.425C305.603 323.084 296.619 323.347 292.955 320.922C288.026 317.662 238.795 267.962 236.913 264.348C234.493 259.699 234.499 253.122 236.928 248.56L238.79 245.063L230.583 236.549C220.797 226.398 218.852 221.781 221.004 213.808C222.172 209.481 225.165 206.163 254.634 176.524C275.641 155.397 286.982 143.284 286.982 141.975C286.982 139.914 262.288 114.558 260.281 114.558C259.715 114.558 258.025 115.523 256.525 116.703L253.798 118.848L249.14 114.138L244.482 109.427L247.982 106.458C253.392 101.869 258.525 100.757 265.482 102.668ZM241.719 121.795C252.499 132.555 255.982 136.645 255.982 138.542C255.982 142.18 145.66 252.558 142.023 252.558C140.185 252.558 135.926 248.926 125.27 238.27C113.34 226.34 110.982 223.495 110.982 221.03C110.982 218.463 118.19 210.87 166.242 162.818C214.509 114.551 221.879 107.558 224.48 107.558C226.975 107.558 229.763 109.86 241.719 121.795ZM57.4895 129.565L66.4555 138.572L56.8225 148.205L47.1895 157.838L41.0365 151.448C37.6525 147.933 33.4605 143.588 31.7205 141.791L28.5575 138.524L37.4995 129.541C42.4175 124.6 46.9095 120.558 47.4825 120.558C48.0555 120.558 52.5585 124.611 57.4895 129.565Z" fill="#21409A"/>
</svg>
