<svg width="100" height="100" viewBox="0 0 100 100" fill="none" xmlns="http://www.w3.org/2000/svg">
<path d="M85.254 0H14.746C6.60202 0 0 6.60202 0 14.746V85.254C0 93.398 6.60202 100 14.746 100H85.254C93.398 100 100 93.398 100 85.254V14.746C100 6.60202 93.398 0 85.254 0Z" fill="#F4B223"/>
<path d="M71.3511 80.9275C71.3511 83.9389 69.745 85.4045 66.9745 85.4045C63.8526 85.4045 62.4372 83.4571 62.3569 80.5762H65.1275C65.1877 82.0417 65.8201 82.7846 66.9745 82.7846C68.1289 82.7846 68.5505 82.0618 68.5505 80.7769V71.0801H71.3511V80.9275Z" fill="white"/>
<path d="M82.6039 75.0552H79.7932C79.8089 74.8221 79.7754 74.5883 79.6948 74.369C79.6143 74.1497 79.4885 73.9498 79.3257 73.7822C79.1629 73.6147 78.9666 73.4832 78.7497 73.3965C78.5328 73.3097 78.3001 73.2694 78.0667 73.2784C77.8578 73.2527 77.6459 73.2735 77.446 73.3394C77.2462 73.4053 77.0634 73.5146 76.9109 73.6595C76.7583 73.8044 76.6397 73.9813 76.5636 74.1775C76.4874 74.3737 76.4557 74.5843 76.4706 74.7942C76.4706 75.8783 77.2335 76.2196 78.9601 76.8018C81.9715 77.8056 83.0456 79.0704 83.0456 81.1985C83.0456 83.9289 81.038 85.4948 78.3277 85.4948C75.0954 85.4948 73.409 83.5876 73.3086 80.8973H76.1293C76.107 81.1913 76.1496 81.4865 76.2542 81.7621C76.3588 82.0377 76.5228 82.2868 76.7346 82.4919C76.9463 82.6969 77.2006 82.8528 77.4794 82.9485C77.7582 83.0442 78.0547 83.0773 78.3477 83.0455C78.5784 83.0768 78.813 83.0588 79.0362 82.9927C79.2593 82.9266 79.4659 82.814 79.6424 82.6622C79.8188 82.5104 79.961 82.323 80.0597 82.1122C80.1584 81.9014 80.2113 81.6721 80.2148 81.4394C80.2148 80.4356 79.462 79.9437 77.7053 79.3615C75.1355 78.5283 73.6298 77.3539 73.6298 75.025C73.6298 72.6962 75.3162 70.7889 78.1068 70.7889C80.8974 70.7889 82.4835 72.2746 82.6039 75.0552Z" fill="white"/>
<path d="M33.2162 37.4423H14.0132L33.2162 9.78717V37.4423Z" fill="white"/>
<path d="M33.2163 37.4423V65.0873L52.4092 37.4423H33.2163Z" fill="white"/>
</svg>
