<svg width="400" height="400" viewBox="0 0 400 400" fill="none" xmlns="http://www.w3.org/2000/svg">
<g clip-path="url(#clip0_1101_220)">
<path fill-rule="evenodd" clip-rule="evenodd" d="M202.718 398.952C246.478 235.023 245.211 234.29 276.828 117.431L284.426 122.03C288.563 124.521 291.94 122.47 291.94 117.489V61.7767C300.326 30.9832 306.911 7.19222 308.825 0.0285645H343.087L400.002 55.2869L362.631 89.1275L390.913 121.152L204.589 398.952C203.675 400.52 202.408 400.168 202.69 398.952H202.718Z" fill="black"/>
<path fill-rule="evenodd" clip-rule="evenodd" d="M223.079 45.6636C224.767 45.6636 226.132 46.6304 226.132 47.861V76.4277C226.132 77.5997 224.866 78.5959 223.177 78.5959H177.166C175.478 78.5959 174.071 77.6144 174.071 76.3984V47.8317C174.071 46.6304 175.478 45.6636 177.166 45.6636H223.177H223.079ZM279.868 14.0204L229.242 44.6381C229.833 45.5903 230.185 46.689 230.185 47.861V76.4277C230.185 77.8927 229.622 79.2112 228.637 80.3099L279.713 111.221C283.09 113.345 286.045 111.616 286.045 107.412V17.8733C286.045 13.6542 283.09 11.9255 279.713 14.0351L279.868 14.0204ZM169.934 76.4277V47.861C169.934 46.689 170.286 45.5903 170.863 44.6381L120.237 14.0204C116.761 11.9255 113.905 13.6542 113.905 17.8586V107.368C113.905 111.616 116.747 113.228 120.237 111.177L171.383 80.2659C170.469 79.094 169.92 77.7755 169.92 76.3105L169.934 76.4277Z" fill="black"/>
<path fill-rule="evenodd" clip-rule="evenodd" d="M195.385 398.953H197.27C153.511 235.024 154.777 234.291 123.174 117.431L115.576 122.031C111.439 124.522 108.048 122.471 108.048 117.49V61.7774C99.6201 30.9693 93.0069 7.17831 91.037 0H56.8454L0 55.273L37.3575 89.1136L9.07556 121.138L195.371 398.894L195.385 398.953Z" fill="black"/>
<path d="M198.604 138.219C206.236 138.219 212.422 131.739 212.422 123.745C212.422 115.751 206.236 109.271 198.604 109.271C190.973 109.271 184.787 115.751 184.787 123.745C184.787 131.739 190.973 138.219 198.604 138.219Z" fill="black"/>
<path d="M198.604 224.314C206.236 224.314 212.422 217.834 212.422 209.84C212.422 201.846 206.236 195.366 198.604 195.366C190.973 195.366 184.787 201.846 184.787 209.84C184.787 217.834 190.973 224.314 198.604 224.314Z" fill="black"/>
<path d="M198.604 310.409C206.236 310.409 212.422 303.929 212.422 295.935C212.422 287.942 206.236 281.461 198.604 281.461C190.973 281.461 184.787 287.942 184.787 295.935C184.787 303.929 190.973 310.409 198.604 310.409Z" fill="black"/>
</g>
<defs>
<clipPath id="clip0_1101_220">
<rect width="400" height="400" fill="white"/>
</clipPath>
</defs>
</svg>
