<svg width="400" height="400" viewBox="0 0 400 400" fill="none" xmlns="http://www.w3.org/2000/svg">
<g clip-path="url(#clip0_1103_286)">
<path d="M282.812 0H117.188C52.4666 0 0 52.4666 0 117.188V282.812C0 347.533 52.4666 400 117.188 400H282.812C347.533 400 400 347.533 400 282.812V117.188C400 52.4666 347.533 0 282.812 0Z" fill="#398CCB"/>
<path fill-rule="evenodd" clip-rule="evenodd" d="M199.567 58.5938L255.096 90.6313V108.247L322.308 147.061V213.456L340.337 223.864V287.975L284.844 320.012L260.207 305.764L200.306 340.348L140.764 305.964L116.473 320.012L60.9795 287.92V223.864L78.3054 213.862V147.061L144.074 109.092L144.111 109.091V90.6313L199.567 58.5938ZM255.096 124.905V154.705L199.603 186.743L144.111 154.705V125.731L144.074 125.733L92.7281 155.391V205.534L116.473 191.827L171.965 223.864V287.92L155.177 297.629L200.306 323.69L245.795 297.431L229.351 287.92V223.864L284.844 191.827L307.884 205.129V155.391L255.096 124.905ZM243.774 279.663V240.559L277.632 260.102V299.207L243.774 279.663ZM325.913 240.505L292.055 260.048V299.207L325.913 279.609V240.505ZM75.4026 279.609V240.505L109.261 260.048V299.152L75.4026 279.609ZM157.542 240.505L123.684 260.048V299.152L157.542 279.609V240.505ZM250.986 228.065L284.844 208.522L318.702 228.065L284.844 247.627L250.986 228.065ZM116.473 208.467L82.614 228.065L116.473 247.572L150.33 228.065L116.473 208.467ZM158.534 146.377V107.272L192.355 126.833V165.92L158.534 146.377ZM240.637 107.272L206.815 126.833V165.902L240.637 146.377V107.272ZM165.745 94.7953L199.567 75.2524L233.426 94.7953L199.567 114.339L165.745 94.7953Z" fill="white"/>
</g>
<defs>
<clipPath id="clip0_1103_286">
<rect width="400" height="400" fill="white"/>
</clipPath>
</defs>
</svg>
