<svg width="100" height="100" viewBox="0 0 100 100" fill="none" xmlns="http://www.w3.org/2000/svg">
<path d="M49.95 0C77.5888 0 99.8997 22.3333 99.8997 50C99.8997 77.6666 77.5888 100 49.95 100C22.3109 100 0 77.6666 0 50C0 22.3333 22.3109 0 49.95 0ZM49.95 13.3333C29.6369 13.3333 13.32 29.6667 13.32 50C13.32 70.3334 29.6369 86.6666 49.95 86.6666C70.2628 86.6666 86.5797 70.3334 86.5797 50C86.5797 29.6667 70.2628 13.3333 49.95 13.3333ZM37.6287 52C43.29 52 47.9519 56.6666 47.9519 62.3334C47.9519 68 43.29 72.6666 37.6287 72.6666C31.9678 72.6666 27.3059 68 27.3059 62.3334C27.3059 56.6666 31.9678 52 37.6287 52ZM62.2709 52C67.9319 52 72.5937 56.6666 72.5937 62.3334C72.5937 68 67.9319 72.6666 62.2709 72.6666C56.6097 72.6666 51.9478 68 51.9478 62.3334C51.9478 56.6666 56.6097 52 62.2709 52ZM62.2709 27.3333C67.9319 27.3333 72.5937 32 72.5937 37.6666C72.5937 43.3334 67.9319 48 62.2709 48C56.6097 48 51.9478 43.3334 51.9478 37.6666C51.9478 32 56.6097 27.3333 62.2709 27.3333ZM37.6287 27.3333C43.29 27.3333 47.9519 32 47.9519 37.6666C47.9519 43.3334 43.29 48 37.6287 48C31.9678 48 27.3059 43.3334 27.3059 37.6666C27.3059 32 31.9678 27.3333 37.6287 27.3333Z" fill="#F22F46"/>
</svg>
