<svg width="400" height="400" viewBox="0 0 400 400" fill="none" xmlns="http://www.w3.org/2000/svg">
<g clip-path="url(#clip0_1307_211)">
<mask id="mask0_1307_211" style="mask-type:luminance" maskUnits="userSpaceOnUse" x="0" y="0" width="400" height="400">
<path d="M400 0H0V400H400V0Z" fill="white"/>
</mask>
<g mask="url(#mask0_1307_211)">
<g filter="url(#filter0_d_1307_211)">
<path d="M292.923 138.798L205.316 265.467C204.387 266.81 203.044 267.816 201.49 268.332C199.936 268.849 198.257 268.844 196.706 268.325C195.155 267.804 193.818 266.793 192.897 265.447C191.977 264.099 191.523 262.49 191.605 260.863L195.111 190.929L138.507 178.925C137.298 178.668 136.17 178.119 135.226 177.325C134.281 176.531 133.548 175.517 133.091 174.373C132.634 173.229 132.468 171.991 132.607 170.767C132.746 169.543 133.186 168.371 133.889 167.356L221.497 40.6878C222.426 39.3441 223.769 38.3382 225.323 37.8226C226.877 37.307 228.557 37.3096 230.108 37.8306C231.659 38.3513 232.996 39.3618 233.916 40.7087C234.837 42.0553 235.291 43.6648 235.209 45.2929L231.702 115.228L288.305 127.231C289.515 127.487 290.642 128.037 291.588 128.831C292.533 129.625 293.265 130.638 293.721 131.782C294.179 132.926 294.344 134.165 294.206 135.389C294.068 136.613 293.626 137.783 292.923 138.798Z" fill="#FCC72B"/>
<path d="M201.18 371.741C198.85 371.743 196.542 371.287 194.389 370.395C192.236 369.503 190.281 368.194 188.636 366.546L105.857 283.772C102.545 280.444 100.689 275.937 100.695 271.241C100.701 266.546 102.569 262.041 105.89 258.722C109.21 255.401 113.713 253.532 118.409 253.525C123.105 253.52 127.612 255.375 130.942 258.686L201.18 328.916L354.194 175.909C357.53 172.627 362.027 170.797 366.706 170.816C371.387 170.835 375.869 172.702 379.176 176.011C382.485 179.32 384.354 183.802 384.373 188.482C384.39 193.161 382.56 197.659 379.278 200.994L213.721 366.546C212.075 368.196 210.121 369.503 207.968 370.395C205.816 371.287 203.509 371.743 201.18 371.741Z" fill="#729B1B"/>
<path d="M201.108 371.741C203.438 371.743 205.746 371.287 207.899 370.395C210.052 369.503 212.007 368.194 213.652 366.546L296.431 283.772C299.743 280.444 301.6 275.937 301.593 271.241C301.588 266.546 299.719 262.041 296.397 258.722C293.076 255.401 288.574 253.532 283.879 253.525C279.183 253.52 274.676 255.375 271.345 258.686L201.108 328.916L48.0942 175.909C44.7585 172.627 40.261 170.797 35.5817 170.816C30.9022 170.835 26.4198 172.702 23.111 176.011C19.8021 179.32 17.9347 183.802 17.9157 188.482C17.8966 193.161 19.7274 197.659 23.0093 200.994L188.567 366.546C190.213 368.196 192.167 369.503 194.319 370.395C196.472 371.287 198.779 371.743 201.108 371.741Z" fill="#729B1B" fill-opacity="0.5"/>
</g>
</g>
</g>
<defs>
<filter id="filter0_d_1307_211" x="7.37007" y="28.65" width="394.579" height="362.424" filterUnits="userSpaceOnUse" color-interpolation-filters="sRGB">
<feFlood flood-opacity="0" result="BackgroundImageFix"/>
<feColorMatrix in="SourceAlpha" type="matrix" values="0 0 0 0 0 0 0 0 0 0 0 0 0 0 0 0 0 0 127 0" result="hardAlpha"/>
<feOffset dx="3.51515" dy="5.27273"/>
<feGaussianBlur stdDeviation="7.0303"/>
<feComposite in2="hardAlpha" operator="out"/>
<feColorMatrix type="matrix" values="0 0 0 0 0.108333 0 0 0 0 0.108333 0 0 0 0 0.108333 0 0 0 0.2 0"/>
<feBlend mode="normal" in2="BackgroundImageFix" result="effect1_dropShadow_1307_211"/>
<feBlend mode="normal" in="SourceGraphic" in2="effect1_dropShadow_1307_211" result="shape"/>
</filter>
<clipPath id="clip0_1307_211">
<rect width="400" height="400" fill="white"/>
</clipPath>
</defs>
</svg>
