<svg width="86" height="105" viewBox="0 0 86 105" fill="none" xmlns="http://www.w3.org/2000/svg">
<path fill-rule="evenodd" clip-rule="evenodd" d="M0.304002 0.72C7.5 12.946 30 52.288 30 52.644C30 53.016 14.639 79.725 0.320002 104.25C0.0790015 104.662 5.744 105 12.91 105H25.937L33.375 92.25C37.467 85.238 41.448 78.64 42.223 77.589C43.524 75.823 44.274 76.795 52.066 90.334L60.5 104.991L73.25 104.996C80.263 104.998 85.997 104.662 85.993 104.25C85.989 103.838 72.558 80.325 56.147 52L26.307 0.5L13.076 0.22C5.799 0.0670003 0.0520017 0.292 0.304002 0.72ZM58.156 4.859C54.796 12.669 53.545 22.568 54.92 30.464C56.171 37.646 58.729 45 59.976 45C60.722 45 86 1.923 86 0.651C86 0.293 80.205 0 73.123 0H60.246L58.156 4.859Z" fill="black"/>
</svg>
