<svg width="400" height="400" viewBox="0 0 400 400" fill="none" xmlns="http://www.w3.org/2000/svg">
<g clip-path="url(#clip0_1101_220)">
<path d="M200 0C310.425 0 400 89.5753 400 200C400 310.425 310.425 400 200 400C89.5753 400 0 310.425 0 200C0 89.5753 89.5753 0 200 0Z" fill="#2C8EBB"/>
<path d="M336.062 260.618C334.672 249.653 325.405 242.085 313.513 242.239C295.753 242.471 280.849 251.66 270.965 257.761C267.104 260.154 263.784 261.93 260.927 263.243C261.544 254.286 261.004 242.548 256.371 229.653C250.733 214.208 243.166 204.71 237.761 199.228C244.015 190.116 252.587 176.834 256.602 156.293C260.077 138.764 258.996 111.506 251.042 96.2162C249.421 93.1274 246.718 90.888 243.32 89.9614C241.93 89.5753 239.305 88.8031 234.131 90.2703C226.332 74.1313 223.629 72.4324 221.544 71.0425C217.22 68.2626 212.123 67.6448 207.336 69.4209C200.927 71.7375 195.444 77.9151 190.27 88.8803C189.498 90.5019 188.803 92.0463 188.185 93.5907C178.378 94.2857 162.934 97.8378 149.884 111.969C148.262 113.745 145.096 115.058 141.776 116.293H141.853C135.058 118.687 131.969 124.247 128.185 134.286C122.934 148.34 128.34 162.162 133.668 171.12C126.409 177.606 116.757 187.954 111.66 200.077C105.328 215.058 104.633 229.73 104.865 237.683C99.4593 243.398 91.1196 254.131 90.1929 266.178C88.9574 283.012 95.0578 294.44 97.7605 298.61C98.5327 299.846 99.3821 300.849 100.309 301.853C99.9999 303.938 99.9227 306.178 100.386 308.494C101.39 313.9 104.788 318.301 109.961 321.081C120.154 326.486 134.363 328.803 145.328 323.32C149.266 327.49 156.448 331.506 169.498 331.506H170.27C173.591 331.506 215.753 329.266 228.031 326.255C233.513 324.942 237.297 322.625 239.768 320.541C247.645 318.069 269.421 310.656 289.961 297.375C304.479 287.954 309.498 285.946 320.309 283.32C330.811 280.772 337.374 271.197 336.062 260.618V260.618ZM317.683 271.969C305.328 274.903 299.073 277.606 283.784 287.568C259.923 303.012 233.822 310.193 233.822 310.193C233.822 310.193 231.66 313.436 225.405 314.903C214.594 317.529 173.899 319.768 170.193 319.846C160.232 319.923 154.131 317.297 152.432 313.205C147.259 300.849 159.845 295.444 159.845 295.444C159.845 295.444 157.066 293.745 155.444 292.201C153.977 290.734 152.432 287.799 151.969 288.88C150.038 293.591 149.035 305.096 143.861 310.27C136.757 317.452 123.32 315.058 115.367 310.888C106.641 306.255 115.984 295.367 115.984 295.367C115.984 295.367 111.274 298.147 107.49 292.432C104.093 287.181 100.927 278.224 101.776 267.181C102.703 254.595 116.757 242.394 116.757 242.394C116.757 242.394 114.286 223.784 122.394 204.71C129.73 187.336 149.498 173.359 149.498 173.359C149.498 173.359 132.896 154.981 139.073 138.456C143.089 127.645 144.71 127.722 146.023 127.259C150.656 125.483 155.135 123.552 158.455 119.923C175.058 102.008 196.216 105.405 196.216 105.405C196.216 105.405 206.255 74.9035 215.521 80.8494C218.378 82.7027 228.649 105.56 228.649 105.56C228.649 105.56 239.614 99.1506 240.849 101.544C247.49 114.44 248.262 139.073 245.328 154.054C240.386 178.764 228.031 192.046 223.089 200.386C221.93 202.317 236.371 208.417 245.483 233.668C253.899 256.757 246.409 276.139 247.722 278.301C247.954 278.687 248.031 278.842 248.031 278.842C248.031 278.842 257.683 279.614 277.066 267.645C287.413 261.236 299.691 254.054 313.668 253.9C327.181 253.668 327.876 269.498 317.683 271.969V271.969Z" fill="white"/>
</g>
<defs>
<clipPath id="clip0_1101_220">
<rect width="400" height="400" fill="white"/>
</clipPath>
</defs>
</svg>
